%TF.GenerationSoftware,KiCad,Pcbnew,9.0.7*%
%TF.CreationDate,2026-04-06T16:01:56+02:00*%
%TF.ProjectId,RASRF2400WBMC,52415352-4632-4343-9030-57424d432e6b,A*%
%TF.SameCoordinates,Original*%
%TF.FileFunction,Legend,Top*%
%TF.FilePolarity,Positive*%
%FSLAX46Y46*%
G04 Gerber Fmt 4.6, Leading zero omitted, Abs format (unit mm)*
G04 Created by KiCad (PCBNEW 9.0.7) date 2026-04-06 16:01:56*
%MOMM*%
%LPD*%
G01*
G04 APERTURE LIST*
%ADD10C,0.150000*%
%ADD11C,0.254000*%
%ADD12C,0.125000*%
%ADD13C,0.300000*%
%ADD14C,0.200000*%
%ADD15C,0.250000*%
%ADD16C,0.120000*%
%ADD17C,0.152400*%
%ADD18C,0.100000*%
%ADD19C,0.000000*%
%ADD20C,0.205563*%
%ADD21C,0.127000*%
G04 APERTURE END LIST*
D10*
X148880952Y-115052730D02*
X148547619Y-114576539D01*
X148309524Y-115052730D02*
X148309524Y-114052730D01*
X148309524Y-114052730D02*
X148690476Y-114052730D01*
X148690476Y-114052730D02*
X148785714Y-114100349D01*
X148785714Y-114100349D02*
X148833333Y-114147968D01*
X148833333Y-114147968D02*
X148880952Y-114243206D01*
X148880952Y-114243206D02*
X148880952Y-114386063D01*
X148880952Y-114386063D02*
X148833333Y-114481301D01*
X148833333Y-114481301D02*
X148785714Y-114528920D01*
X148785714Y-114528920D02*
X148690476Y-114576539D01*
X148690476Y-114576539D02*
X148309524Y-114576539D01*
X149833333Y-115052730D02*
X149261905Y-115052730D01*
X149547619Y-115052730D02*
X149547619Y-114052730D01*
X149547619Y-114052730D02*
X149452381Y-114195587D01*
X149452381Y-114195587D02*
X149357143Y-114290825D01*
X149357143Y-114290825D02*
X149261905Y-114338444D01*
X150785714Y-115052730D02*
X150214286Y-115052730D01*
X150500000Y-115052730D02*
X150500000Y-114052730D01*
X150500000Y-114052730D02*
X150404762Y-114195587D01*
X150404762Y-114195587D02*
X150309524Y-114290825D01*
X150309524Y-114290825D02*
X150214286Y-114338444D01*
X151357143Y-114481301D02*
X151261905Y-114433682D01*
X151261905Y-114433682D02*
X151214286Y-114386063D01*
X151214286Y-114386063D02*
X151166667Y-114290825D01*
X151166667Y-114290825D02*
X151166667Y-114243206D01*
X151166667Y-114243206D02*
X151214286Y-114147968D01*
X151214286Y-114147968D02*
X151261905Y-114100349D01*
X151261905Y-114100349D02*
X151357143Y-114052730D01*
X151357143Y-114052730D02*
X151547619Y-114052730D01*
X151547619Y-114052730D02*
X151642857Y-114100349D01*
X151642857Y-114100349D02*
X151690476Y-114147968D01*
X151690476Y-114147968D02*
X151738095Y-114243206D01*
X151738095Y-114243206D02*
X151738095Y-114290825D01*
X151738095Y-114290825D02*
X151690476Y-114386063D01*
X151690476Y-114386063D02*
X151642857Y-114433682D01*
X151642857Y-114433682D02*
X151547619Y-114481301D01*
X151547619Y-114481301D02*
X151357143Y-114481301D01*
X151357143Y-114481301D02*
X151261905Y-114528920D01*
X151261905Y-114528920D02*
X151214286Y-114576539D01*
X151214286Y-114576539D02*
X151166667Y-114671777D01*
X151166667Y-114671777D02*
X151166667Y-114862253D01*
X151166667Y-114862253D02*
X151214286Y-114957491D01*
X151214286Y-114957491D02*
X151261905Y-115005111D01*
X151261905Y-115005111D02*
X151357143Y-115052730D01*
X151357143Y-115052730D02*
X151547619Y-115052730D01*
X151547619Y-115052730D02*
X151642857Y-115005111D01*
X151642857Y-115005111D02*
X151690476Y-114957491D01*
X151690476Y-114957491D02*
X151738095Y-114862253D01*
X151738095Y-114862253D02*
X151738095Y-114671777D01*
X151738095Y-114671777D02*
X151690476Y-114576539D01*
X151690476Y-114576539D02*
X151642857Y-114528920D01*
X151642857Y-114528920D02*
X151547619Y-114481301D01*
D11*
X133000237Y-103924318D02*
X133000237Y-102654318D01*
X134330714Y-103803365D02*
X134270238Y-103863842D01*
X134270238Y-103863842D02*
X134088809Y-103924318D01*
X134088809Y-103924318D02*
X133967857Y-103924318D01*
X133967857Y-103924318D02*
X133786428Y-103863842D01*
X133786428Y-103863842D02*
X133665476Y-103742889D01*
X133665476Y-103742889D02*
X133604999Y-103621937D01*
X133604999Y-103621937D02*
X133544523Y-103380032D01*
X133544523Y-103380032D02*
X133544523Y-103198603D01*
X133544523Y-103198603D02*
X133604999Y-102956699D01*
X133604999Y-102956699D02*
X133665476Y-102835746D01*
X133665476Y-102835746D02*
X133786428Y-102714794D01*
X133786428Y-102714794D02*
X133967857Y-102654318D01*
X133967857Y-102654318D02*
X134088809Y-102654318D01*
X134088809Y-102654318D02*
X134270238Y-102714794D01*
X134270238Y-102714794D02*
X134330714Y-102775270D01*
X134814523Y-102775270D02*
X134874999Y-102714794D01*
X134874999Y-102714794D02*
X134995952Y-102654318D01*
X134995952Y-102654318D02*
X135298333Y-102654318D01*
X135298333Y-102654318D02*
X135419285Y-102714794D01*
X135419285Y-102714794D02*
X135479761Y-102775270D01*
X135479761Y-102775270D02*
X135540238Y-102896222D01*
X135540238Y-102896222D02*
X135540238Y-103017175D01*
X135540238Y-103017175D02*
X135479761Y-103198603D01*
X135479761Y-103198603D02*
X134754047Y-103924318D01*
X134754047Y-103924318D02*
X135540238Y-103924318D01*
X147161383Y-93846502D02*
X147161383Y-92576502D01*
X148491860Y-93725549D02*
X148431384Y-93786026D01*
X148431384Y-93786026D02*
X148249955Y-93846502D01*
X148249955Y-93846502D02*
X148129003Y-93846502D01*
X148129003Y-93846502D02*
X147947574Y-93786026D01*
X147947574Y-93786026D02*
X147826622Y-93665073D01*
X147826622Y-93665073D02*
X147766145Y-93544121D01*
X147766145Y-93544121D02*
X147705669Y-93302216D01*
X147705669Y-93302216D02*
X147705669Y-93120787D01*
X147705669Y-93120787D02*
X147766145Y-92878883D01*
X147766145Y-92878883D02*
X147826622Y-92757930D01*
X147826622Y-92757930D02*
X147947574Y-92636978D01*
X147947574Y-92636978D02*
X148129003Y-92576502D01*
X148129003Y-92576502D02*
X148249955Y-92576502D01*
X148249955Y-92576502D02*
X148431384Y-92636978D01*
X148431384Y-92636978D02*
X148491860Y-92697454D01*
X149640907Y-92576502D02*
X149036145Y-92576502D01*
X149036145Y-92576502D02*
X148975669Y-93181264D01*
X148975669Y-93181264D02*
X149036145Y-93120787D01*
X149036145Y-93120787D02*
X149157098Y-93060311D01*
X149157098Y-93060311D02*
X149459479Y-93060311D01*
X149459479Y-93060311D02*
X149580431Y-93120787D01*
X149580431Y-93120787D02*
X149640907Y-93181264D01*
X149640907Y-93181264D02*
X149701384Y-93302216D01*
X149701384Y-93302216D02*
X149701384Y-93604597D01*
X149701384Y-93604597D02*
X149640907Y-93725549D01*
X149640907Y-93725549D02*
X149580431Y-93786026D01*
X149580431Y-93786026D02*
X149459479Y-93846502D01*
X149459479Y-93846502D02*
X149157098Y-93846502D01*
X149157098Y-93846502D02*
X149036145Y-93786026D01*
X149036145Y-93786026D02*
X148975669Y-93725549D01*
D10*
X162377140Y-115159580D02*
X162329521Y-115207200D01*
X162329521Y-115207200D02*
X162186664Y-115254819D01*
X162186664Y-115254819D02*
X162091426Y-115254819D01*
X162091426Y-115254819D02*
X161948569Y-115207200D01*
X161948569Y-115207200D02*
X161853331Y-115111961D01*
X161853331Y-115111961D02*
X161805712Y-115016723D01*
X161805712Y-115016723D02*
X161758093Y-114826247D01*
X161758093Y-114826247D02*
X161758093Y-114683390D01*
X161758093Y-114683390D02*
X161805712Y-114492914D01*
X161805712Y-114492914D02*
X161853331Y-114397676D01*
X161853331Y-114397676D02*
X161948569Y-114302438D01*
X161948569Y-114302438D02*
X162091426Y-114254819D01*
X162091426Y-114254819D02*
X162186664Y-114254819D01*
X162186664Y-114254819D02*
X162329521Y-114302438D01*
X162329521Y-114302438D02*
X162377140Y-114350057D01*
X162758093Y-114350057D02*
X162805712Y-114302438D01*
X162805712Y-114302438D02*
X162900950Y-114254819D01*
X162900950Y-114254819D02*
X163139045Y-114254819D01*
X163139045Y-114254819D02*
X163234283Y-114302438D01*
X163234283Y-114302438D02*
X163281902Y-114350057D01*
X163281902Y-114350057D02*
X163329521Y-114445295D01*
X163329521Y-114445295D02*
X163329521Y-114540533D01*
X163329521Y-114540533D02*
X163281902Y-114683390D01*
X163281902Y-114683390D02*
X162710474Y-115254819D01*
X162710474Y-115254819D02*
X163329521Y-115254819D01*
X163710474Y-114350057D02*
X163758093Y-114302438D01*
X163758093Y-114302438D02*
X163853331Y-114254819D01*
X163853331Y-114254819D02*
X164091426Y-114254819D01*
X164091426Y-114254819D02*
X164186664Y-114302438D01*
X164186664Y-114302438D02*
X164234283Y-114350057D01*
X164234283Y-114350057D02*
X164281902Y-114445295D01*
X164281902Y-114445295D02*
X164281902Y-114540533D01*
X164281902Y-114540533D02*
X164234283Y-114683390D01*
X164234283Y-114683390D02*
X163662855Y-115254819D01*
X163662855Y-115254819D02*
X164281902Y-115254819D01*
X165954819Y-134942857D02*
X165478628Y-135276190D01*
X165954819Y-135514285D02*
X164954819Y-135514285D01*
X164954819Y-135514285D02*
X164954819Y-135133333D01*
X164954819Y-135133333D02*
X165002438Y-135038095D01*
X165002438Y-135038095D02*
X165050057Y-134990476D01*
X165050057Y-134990476D02*
X165145295Y-134942857D01*
X165145295Y-134942857D02*
X165288152Y-134942857D01*
X165288152Y-134942857D02*
X165383390Y-134990476D01*
X165383390Y-134990476D02*
X165431009Y-135038095D01*
X165431009Y-135038095D02*
X165478628Y-135133333D01*
X165478628Y-135133333D02*
X165478628Y-135514285D01*
X164954819Y-134038095D02*
X164954819Y-134514285D01*
X164954819Y-134514285D02*
X165431009Y-134561904D01*
X165431009Y-134561904D02*
X165383390Y-134514285D01*
X165383390Y-134514285D02*
X165335771Y-134419047D01*
X165335771Y-134419047D02*
X165335771Y-134180952D01*
X165335771Y-134180952D02*
X165383390Y-134085714D01*
X165383390Y-134085714D02*
X165431009Y-134038095D01*
X165431009Y-134038095D02*
X165526247Y-133990476D01*
X165526247Y-133990476D02*
X165764342Y-133990476D01*
X165764342Y-133990476D02*
X165859580Y-134038095D01*
X165859580Y-134038095D02*
X165907200Y-134085714D01*
X165907200Y-134085714D02*
X165954819Y-134180952D01*
X165954819Y-134180952D02*
X165954819Y-134419047D01*
X165954819Y-134419047D02*
X165907200Y-134514285D01*
X165907200Y-134514285D02*
X165859580Y-134561904D01*
X164954819Y-133657142D02*
X164954819Y-133038095D01*
X164954819Y-133038095D02*
X165335771Y-133371428D01*
X165335771Y-133371428D02*
X165335771Y-133228571D01*
X165335771Y-133228571D02*
X165383390Y-133133333D01*
X165383390Y-133133333D02*
X165431009Y-133085714D01*
X165431009Y-133085714D02*
X165526247Y-133038095D01*
X165526247Y-133038095D02*
X165764342Y-133038095D01*
X165764342Y-133038095D02*
X165859580Y-133085714D01*
X165859580Y-133085714D02*
X165907200Y-133133333D01*
X165907200Y-133133333D02*
X165954819Y-133228571D01*
X165954819Y-133228571D02*
X165954819Y-133514285D01*
X165954819Y-133514285D02*
X165907200Y-133609523D01*
X165907200Y-133609523D02*
X165859580Y-133657142D01*
X117566666Y-66954819D02*
X117566666Y-67669104D01*
X117566666Y-67669104D02*
X117519047Y-67811961D01*
X117519047Y-67811961D02*
X117423809Y-67907200D01*
X117423809Y-67907200D02*
X117280952Y-67954819D01*
X117280952Y-67954819D02*
X117185714Y-67954819D01*
X118471428Y-66954819D02*
X118280952Y-66954819D01*
X118280952Y-66954819D02*
X118185714Y-67002438D01*
X118185714Y-67002438D02*
X118138095Y-67050057D01*
X118138095Y-67050057D02*
X118042857Y-67192914D01*
X118042857Y-67192914D02*
X117995238Y-67383390D01*
X117995238Y-67383390D02*
X117995238Y-67764342D01*
X117995238Y-67764342D02*
X118042857Y-67859580D01*
X118042857Y-67859580D02*
X118090476Y-67907200D01*
X118090476Y-67907200D02*
X118185714Y-67954819D01*
X118185714Y-67954819D02*
X118376190Y-67954819D01*
X118376190Y-67954819D02*
X118471428Y-67907200D01*
X118471428Y-67907200D02*
X118519047Y-67859580D01*
X118519047Y-67859580D02*
X118566666Y-67764342D01*
X118566666Y-67764342D02*
X118566666Y-67526247D01*
X118566666Y-67526247D02*
X118519047Y-67431009D01*
X118519047Y-67431009D02*
X118471428Y-67383390D01*
X118471428Y-67383390D02*
X118376190Y-67335771D01*
X118376190Y-67335771D02*
X118185714Y-67335771D01*
X118185714Y-67335771D02*
X118090476Y-67383390D01*
X118090476Y-67383390D02*
X118042857Y-67431009D01*
X118042857Y-67431009D02*
X117995238Y-67526247D01*
X147707142Y-101094819D02*
X147373809Y-100618628D01*
X147135714Y-101094819D02*
X147135714Y-100094819D01*
X147135714Y-100094819D02*
X147516666Y-100094819D01*
X147516666Y-100094819D02*
X147611904Y-100142438D01*
X147611904Y-100142438D02*
X147659523Y-100190057D01*
X147659523Y-100190057D02*
X147707142Y-100285295D01*
X147707142Y-100285295D02*
X147707142Y-100428152D01*
X147707142Y-100428152D02*
X147659523Y-100523390D01*
X147659523Y-100523390D02*
X147611904Y-100571009D01*
X147611904Y-100571009D02*
X147516666Y-100618628D01*
X147516666Y-100618628D02*
X147135714Y-100618628D01*
X148278571Y-100523390D02*
X148183333Y-100475771D01*
X148183333Y-100475771D02*
X148135714Y-100428152D01*
X148135714Y-100428152D02*
X148088095Y-100332914D01*
X148088095Y-100332914D02*
X148088095Y-100285295D01*
X148088095Y-100285295D02*
X148135714Y-100190057D01*
X148135714Y-100190057D02*
X148183333Y-100142438D01*
X148183333Y-100142438D02*
X148278571Y-100094819D01*
X148278571Y-100094819D02*
X148469047Y-100094819D01*
X148469047Y-100094819D02*
X148564285Y-100142438D01*
X148564285Y-100142438D02*
X148611904Y-100190057D01*
X148611904Y-100190057D02*
X148659523Y-100285295D01*
X148659523Y-100285295D02*
X148659523Y-100332914D01*
X148659523Y-100332914D02*
X148611904Y-100428152D01*
X148611904Y-100428152D02*
X148564285Y-100475771D01*
X148564285Y-100475771D02*
X148469047Y-100523390D01*
X148469047Y-100523390D02*
X148278571Y-100523390D01*
X148278571Y-100523390D02*
X148183333Y-100571009D01*
X148183333Y-100571009D02*
X148135714Y-100618628D01*
X148135714Y-100618628D02*
X148088095Y-100713866D01*
X148088095Y-100713866D02*
X148088095Y-100904342D01*
X148088095Y-100904342D02*
X148135714Y-100999580D01*
X148135714Y-100999580D02*
X148183333Y-101047200D01*
X148183333Y-101047200D02*
X148278571Y-101094819D01*
X148278571Y-101094819D02*
X148469047Y-101094819D01*
X148469047Y-101094819D02*
X148564285Y-101047200D01*
X148564285Y-101047200D02*
X148611904Y-100999580D01*
X148611904Y-100999580D02*
X148659523Y-100904342D01*
X148659523Y-100904342D02*
X148659523Y-100713866D01*
X148659523Y-100713866D02*
X148611904Y-100618628D01*
X148611904Y-100618628D02*
X148564285Y-100571009D01*
X148564285Y-100571009D02*
X148469047Y-100523390D01*
X148992857Y-100094819D02*
X149659523Y-100094819D01*
X149659523Y-100094819D02*
X149230952Y-101094819D01*
X137966666Y-81191009D02*
X137633333Y-81191009D01*
X137633333Y-81714819D02*
X137633333Y-80714819D01*
X137633333Y-80714819D02*
X138109523Y-80714819D01*
X138823809Y-81191009D02*
X138966666Y-81238628D01*
X138966666Y-81238628D02*
X139014285Y-81286247D01*
X139014285Y-81286247D02*
X139061904Y-81381485D01*
X139061904Y-81381485D02*
X139061904Y-81524342D01*
X139061904Y-81524342D02*
X139014285Y-81619580D01*
X139014285Y-81619580D02*
X138966666Y-81667200D01*
X138966666Y-81667200D02*
X138871428Y-81714819D01*
X138871428Y-81714819D02*
X138490476Y-81714819D01*
X138490476Y-81714819D02*
X138490476Y-80714819D01*
X138490476Y-80714819D02*
X138823809Y-80714819D01*
X138823809Y-80714819D02*
X138919047Y-80762438D01*
X138919047Y-80762438D02*
X138966666Y-80810057D01*
X138966666Y-80810057D02*
X139014285Y-80905295D01*
X139014285Y-80905295D02*
X139014285Y-81000533D01*
X139014285Y-81000533D02*
X138966666Y-81095771D01*
X138966666Y-81095771D02*
X138919047Y-81143390D01*
X138919047Y-81143390D02*
X138823809Y-81191009D01*
X138823809Y-81191009D02*
X138490476Y-81191009D01*
X139919047Y-81048152D02*
X139919047Y-81714819D01*
X139680952Y-80667200D02*
X139442857Y-81381485D01*
X139442857Y-81381485D02*
X140061904Y-81381485D01*
X127038095Y-61954819D02*
X127609523Y-61954819D01*
X127323809Y-62954819D02*
X127323809Y-61954819D01*
X127942857Y-62954819D02*
X127942857Y-61954819D01*
X127942857Y-61954819D02*
X128323809Y-61954819D01*
X128323809Y-61954819D02*
X128419047Y-62002438D01*
X128419047Y-62002438D02*
X128466666Y-62050057D01*
X128466666Y-62050057D02*
X128514285Y-62145295D01*
X128514285Y-62145295D02*
X128514285Y-62288152D01*
X128514285Y-62288152D02*
X128466666Y-62383390D01*
X128466666Y-62383390D02*
X128419047Y-62431009D01*
X128419047Y-62431009D02*
X128323809Y-62478628D01*
X128323809Y-62478628D02*
X127942857Y-62478628D01*
X129371428Y-61954819D02*
X129180952Y-61954819D01*
X129180952Y-61954819D02*
X129085714Y-62002438D01*
X129085714Y-62002438D02*
X129038095Y-62050057D01*
X129038095Y-62050057D02*
X128942857Y-62192914D01*
X128942857Y-62192914D02*
X128895238Y-62383390D01*
X128895238Y-62383390D02*
X128895238Y-62764342D01*
X128895238Y-62764342D02*
X128942857Y-62859580D01*
X128942857Y-62859580D02*
X128990476Y-62907200D01*
X128990476Y-62907200D02*
X129085714Y-62954819D01*
X129085714Y-62954819D02*
X129276190Y-62954819D01*
X129276190Y-62954819D02*
X129371428Y-62907200D01*
X129371428Y-62907200D02*
X129419047Y-62859580D01*
X129419047Y-62859580D02*
X129466666Y-62764342D01*
X129466666Y-62764342D02*
X129466666Y-62526247D01*
X129466666Y-62526247D02*
X129419047Y-62431009D01*
X129419047Y-62431009D02*
X129371428Y-62383390D01*
X129371428Y-62383390D02*
X129276190Y-62335771D01*
X129276190Y-62335771D02*
X129085714Y-62335771D01*
X129085714Y-62335771D02*
X128990476Y-62383390D01*
X128990476Y-62383390D02*
X128942857Y-62431009D01*
X128942857Y-62431009D02*
X128895238Y-62526247D01*
X149597142Y-83534819D02*
X149263809Y-83058628D01*
X149025714Y-83534819D02*
X149025714Y-82534819D01*
X149025714Y-82534819D02*
X149406666Y-82534819D01*
X149406666Y-82534819D02*
X149501904Y-82582438D01*
X149501904Y-82582438D02*
X149549523Y-82630057D01*
X149549523Y-82630057D02*
X149597142Y-82725295D01*
X149597142Y-82725295D02*
X149597142Y-82868152D01*
X149597142Y-82868152D02*
X149549523Y-82963390D01*
X149549523Y-82963390D02*
X149501904Y-83011009D01*
X149501904Y-83011009D02*
X149406666Y-83058628D01*
X149406666Y-83058628D02*
X149025714Y-83058628D01*
X150073333Y-83534819D02*
X150263809Y-83534819D01*
X150263809Y-83534819D02*
X150359047Y-83487200D01*
X150359047Y-83487200D02*
X150406666Y-83439580D01*
X150406666Y-83439580D02*
X150501904Y-83296723D01*
X150501904Y-83296723D02*
X150549523Y-83106247D01*
X150549523Y-83106247D02*
X150549523Y-82725295D01*
X150549523Y-82725295D02*
X150501904Y-82630057D01*
X150501904Y-82630057D02*
X150454285Y-82582438D01*
X150454285Y-82582438D02*
X150359047Y-82534819D01*
X150359047Y-82534819D02*
X150168571Y-82534819D01*
X150168571Y-82534819D02*
X150073333Y-82582438D01*
X150073333Y-82582438D02*
X150025714Y-82630057D01*
X150025714Y-82630057D02*
X149978095Y-82725295D01*
X149978095Y-82725295D02*
X149978095Y-82963390D01*
X149978095Y-82963390D02*
X150025714Y-83058628D01*
X150025714Y-83058628D02*
X150073333Y-83106247D01*
X150073333Y-83106247D02*
X150168571Y-83153866D01*
X150168571Y-83153866D02*
X150359047Y-83153866D01*
X150359047Y-83153866D02*
X150454285Y-83106247D01*
X150454285Y-83106247D02*
X150501904Y-83058628D01*
X150501904Y-83058628D02*
X150549523Y-82963390D01*
X151501904Y-83534819D02*
X150930476Y-83534819D01*
X151216190Y-83534819D02*
X151216190Y-82534819D01*
X151216190Y-82534819D02*
X151120952Y-82677676D01*
X151120952Y-82677676D02*
X151025714Y-82772914D01*
X151025714Y-82772914D02*
X150930476Y-82820533D01*
X175254819Y-119642857D02*
X174778628Y-119976190D01*
X175254819Y-120214285D02*
X174254819Y-120214285D01*
X174254819Y-120214285D02*
X174254819Y-119833333D01*
X174254819Y-119833333D02*
X174302438Y-119738095D01*
X174302438Y-119738095D02*
X174350057Y-119690476D01*
X174350057Y-119690476D02*
X174445295Y-119642857D01*
X174445295Y-119642857D02*
X174588152Y-119642857D01*
X174588152Y-119642857D02*
X174683390Y-119690476D01*
X174683390Y-119690476D02*
X174731009Y-119738095D01*
X174731009Y-119738095D02*
X174778628Y-119833333D01*
X174778628Y-119833333D02*
X174778628Y-120214285D01*
X174254819Y-118738095D02*
X174254819Y-119214285D01*
X174254819Y-119214285D02*
X174731009Y-119261904D01*
X174731009Y-119261904D02*
X174683390Y-119214285D01*
X174683390Y-119214285D02*
X174635771Y-119119047D01*
X174635771Y-119119047D02*
X174635771Y-118880952D01*
X174635771Y-118880952D02*
X174683390Y-118785714D01*
X174683390Y-118785714D02*
X174731009Y-118738095D01*
X174731009Y-118738095D02*
X174826247Y-118690476D01*
X174826247Y-118690476D02*
X175064342Y-118690476D01*
X175064342Y-118690476D02*
X175159580Y-118738095D01*
X175159580Y-118738095D02*
X175207200Y-118785714D01*
X175207200Y-118785714D02*
X175254819Y-118880952D01*
X175254819Y-118880952D02*
X175254819Y-119119047D01*
X175254819Y-119119047D02*
X175207200Y-119214285D01*
X175207200Y-119214285D02*
X175159580Y-119261904D01*
X174254819Y-117833333D02*
X174254819Y-118023809D01*
X174254819Y-118023809D02*
X174302438Y-118119047D01*
X174302438Y-118119047D02*
X174350057Y-118166666D01*
X174350057Y-118166666D02*
X174492914Y-118261904D01*
X174492914Y-118261904D02*
X174683390Y-118309523D01*
X174683390Y-118309523D02*
X175064342Y-118309523D01*
X175064342Y-118309523D02*
X175159580Y-118261904D01*
X175159580Y-118261904D02*
X175207200Y-118214285D01*
X175207200Y-118214285D02*
X175254819Y-118119047D01*
X175254819Y-118119047D02*
X175254819Y-117928571D01*
X175254819Y-117928571D02*
X175207200Y-117833333D01*
X175207200Y-117833333D02*
X175159580Y-117785714D01*
X175159580Y-117785714D02*
X175064342Y-117738095D01*
X175064342Y-117738095D02*
X174826247Y-117738095D01*
X174826247Y-117738095D02*
X174731009Y-117785714D01*
X174731009Y-117785714D02*
X174683390Y-117833333D01*
X174683390Y-117833333D02*
X174635771Y-117928571D01*
X174635771Y-117928571D02*
X174635771Y-118119047D01*
X174635771Y-118119047D02*
X174683390Y-118214285D01*
X174683390Y-118214285D02*
X174731009Y-118261904D01*
X174731009Y-118261904D02*
X174826247Y-118309523D01*
X179917438Y-71916666D02*
X181346009Y-71916666D01*
X181346009Y-71916666D02*
X181631723Y-72011905D01*
X181631723Y-72011905D02*
X181822200Y-72202381D01*
X181822200Y-72202381D02*
X181917438Y-72488095D01*
X181917438Y-72488095D02*
X181917438Y-72678571D01*
X180107914Y-71059523D02*
X180012676Y-70964285D01*
X180012676Y-70964285D02*
X179917438Y-70773809D01*
X179917438Y-70773809D02*
X179917438Y-70297618D01*
X179917438Y-70297618D02*
X180012676Y-70107142D01*
X180012676Y-70107142D02*
X180107914Y-70011904D01*
X180107914Y-70011904D02*
X180298390Y-69916666D01*
X180298390Y-69916666D02*
X180488866Y-69916666D01*
X180488866Y-69916666D02*
X180774580Y-70011904D01*
X180774580Y-70011904D02*
X181917438Y-71154761D01*
X181917438Y-71154761D02*
X181917438Y-69916666D01*
X157051930Y-92244531D02*
X156718597Y-91768340D01*
X156480502Y-92244531D02*
X156480502Y-91244531D01*
X156480502Y-91244531D02*
X156861454Y-91244531D01*
X156861454Y-91244531D02*
X156956692Y-91292150D01*
X156956692Y-91292150D02*
X157004311Y-91339769D01*
X157004311Y-91339769D02*
X157051930Y-91435007D01*
X157051930Y-91435007D02*
X157051930Y-91577864D01*
X157051930Y-91577864D02*
X157004311Y-91673102D01*
X157004311Y-91673102D02*
X156956692Y-91720721D01*
X156956692Y-91720721D02*
X156861454Y-91768340D01*
X156861454Y-91768340D02*
X156480502Y-91768340D01*
X157385264Y-91244531D02*
X158051930Y-91244531D01*
X158051930Y-91244531D02*
X157623359Y-92244531D01*
X158861454Y-91577864D02*
X158861454Y-92244531D01*
X158623359Y-91196912D02*
X158385264Y-91911197D01*
X158385264Y-91911197D02*
X159004311Y-91911197D01*
X149697142Y-87954819D02*
X149363809Y-87478628D01*
X149125714Y-87954819D02*
X149125714Y-86954819D01*
X149125714Y-86954819D02*
X149506666Y-86954819D01*
X149506666Y-86954819D02*
X149601904Y-87002438D01*
X149601904Y-87002438D02*
X149649523Y-87050057D01*
X149649523Y-87050057D02*
X149697142Y-87145295D01*
X149697142Y-87145295D02*
X149697142Y-87288152D01*
X149697142Y-87288152D02*
X149649523Y-87383390D01*
X149649523Y-87383390D02*
X149601904Y-87431009D01*
X149601904Y-87431009D02*
X149506666Y-87478628D01*
X149506666Y-87478628D02*
X149125714Y-87478628D01*
X150173333Y-87954819D02*
X150363809Y-87954819D01*
X150363809Y-87954819D02*
X150459047Y-87907200D01*
X150459047Y-87907200D02*
X150506666Y-87859580D01*
X150506666Y-87859580D02*
X150601904Y-87716723D01*
X150601904Y-87716723D02*
X150649523Y-87526247D01*
X150649523Y-87526247D02*
X150649523Y-87145295D01*
X150649523Y-87145295D02*
X150601904Y-87050057D01*
X150601904Y-87050057D02*
X150554285Y-87002438D01*
X150554285Y-87002438D02*
X150459047Y-86954819D01*
X150459047Y-86954819D02*
X150268571Y-86954819D01*
X150268571Y-86954819D02*
X150173333Y-87002438D01*
X150173333Y-87002438D02*
X150125714Y-87050057D01*
X150125714Y-87050057D02*
X150078095Y-87145295D01*
X150078095Y-87145295D02*
X150078095Y-87383390D01*
X150078095Y-87383390D02*
X150125714Y-87478628D01*
X150125714Y-87478628D02*
X150173333Y-87526247D01*
X150173333Y-87526247D02*
X150268571Y-87573866D01*
X150268571Y-87573866D02*
X150459047Y-87573866D01*
X150459047Y-87573866D02*
X150554285Y-87526247D01*
X150554285Y-87526247D02*
X150601904Y-87478628D01*
X150601904Y-87478628D02*
X150649523Y-87383390D01*
X151268571Y-86954819D02*
X151363809Y-86954819D01*
X151363809Y-86954819D02*
X151459047Y-87002438D01*
X151459047Y-87002438D02*
X151506666Y-87050057D01*
X151506666Y-87050057D02*
X151554285Y-87145295D01*
X151554285Y-87145295D02*
X151601904Y-87335771D01*
X151601904Y-87335771D02*
X151601904Y-87573866D01*
X151601904Y-87573866D02*
X151554285Y-87764342D01*
X151554285Y-87764342D02*
X151506666Y-87859580D01*
X151506666Y-87859580D02*
X151459047Y-87907200D01*
X151459047Y-87907200D02*
X151363809Y-87954819D01*
X151363809Y-87954819D02*
X151268571Y-87954819D01*
X151268571Y-87954819D02*
X151173333Y-87907200D01*
X151173333Y-87907200D02*
X151125714Y-87859580D01*
X151125714Y-87859580D02*
X151078095Y-87764342D01*
X151078095Y-87764342D02*
X151030476Y-87573866D01*
X151030476Y-87573866D02*
X151030476Y-87335771D01*
X151030476Y-87335771D02*
X151078095Y-87145295D01*
X151078095Y-87145295D02*
X151125714Y-87050057D01*
X151125714Y-87050057D02*
X151173333Y-87002438D01*
X151173333Y-87002438D02*
X151268571Y-86954819D01*
X169257142Y-84559580D02*
X169209523Y-84607200D01*
X169209523Y-84607200D02*
X169066666Y-84654819D01*
X169066666Y-84654819D02*
X168971428Y-84654819D01*
X168971428Y-84654819D02*
X168828571Y-84607200D01*
X168828571Y-84607200D02*
X168733333Y-84511961D01*
X168733333Y-84511961D02*
X168685714Y-84416723D01*
X168685714Y-84416723D02*
X168638095Y-84226247D01*
X168638095Y-84226247D02*
X168638095Y-84083390D01*
X168638095Y-84083390D02*
X168685714Y-83892914D01*
X168685714Y-83892914D02*
X168733333Y-83797676D01*
X168733333Y-83797676D02*
X168828571Y-83702438D01*
X168828571Y-83702438D02*
X168971428Y-83654819D01*
X168971428Y-83654819D02*
X169066666Y-83654819D01*
X169066666Y-83654819D02*
X169209523Y-83702438D01*
X169209523Y-83702438D02*
X169257142Y-83750057D01*
X170114285Y-83654819D02*
X169923809Y-83654819D01*
X169923809Y-83654819D02*
X169828571Y-83702438D01*
X169828571Y-83702438D02*
X169780952Y-83750057D01*
X169780952Y-83750057D02*
X169685714Y-83892914D01*
X169685714Y-83892914D02*
X169638095Y-84083390D01*
X169638095Y-84083390D02*
X169638095Y-84464342D01*
X169638095Y-84464342D02*
X169685714Y-84559580D01*
X169685714Y-84559580D02*
X169733333Y-84607200D01*
X169733333Y-84607200D02*
X169828571Y-84654819D01*
X169828571Y-84654819D02*
X170019047Y-84654819D01*
X170019047Y-84654819D02*
X170114285Y-84607200D01*
X170114285Y-84607200D02*
X170161904Y-84559580D01*
X170161904Y-84559580D02*
X170209523Y-84464342D01*
X170209523Y-84464342D02*
X170209523Y-84226247D01*
X170209523Y-84226247D02*
X170161904Y-84131009D01*
X170161904Y-84131009D02*
X170114285Y-84083390D01*
X170114285Y-84083390D02*
X170019047Y-84035771D01*
X170019047Y-84035771D02*
X169828571Y-84035771D01*
X169828571Y-84035771D02*
X169733333Y-84083390D01*
X169733333Y-84083390D02*
X169685714Y-84131009D01*
X169685714Y-84131009D02*
X169638095Y-84226247D01*
X171114285Y-83654819D02*
X170638095Y-83654819D01*
X170638095Y-83654819D02*
X170590476Y-84131009D01*
X170590476Y-84131009D02*
X170638095Y-84083390D01*
X170638095Y-84083390D02*
X170733333Y-84035771D01*
X170733333Y-84035771D02*
X170971428Y-84035771D01*
X170971428Y-84035771D02*
X171066666Y-84083390D01*
X171066666Y-84083390D02*
X171114285Y-84131009D01*
X171114285Y-84131009D02*
X171161904Y-84226247D01*
X171161904Y-84226247D02*
X171161904Y-84464342D01*
X171161904Y-84464342D02*
X171114285Y-84559580D01*
X171114285Y-84559580D02*
X171066666Y-84607200D01*
X171066666Y-84607200D02*
X170971428Y-84654819D01*
X170971428Y-84654819D02*
X170733333Y-84654819D01*
X170733333Y-84654819D02*
X170638095Y-84607200D01*
X170638095Y-84607200D02*
X170590476Y-84559580D01*
X121161905Y-61974819D02*
X121733333Y-61974819D01*
X121447619Y-62974819D02*
X121447619Y-61974819D01*
X122066667Y-62974819D02*
X122066667Y-61974819D01*
X122066667Y-61974819D02*
X122447619Y-61974819D01*
X122447619Y-61974819D02*
X122542857Y-62022438D01*
X122542857Y-62022438D02*
X122590476Y-62070057D01*
X122590476Y-62070057D02*
X122638095Y-62165295D01*
X122638095Y-62165295D02*
X122638095Y-62308152D01*
X122638095Y-62308152D02*
X122590476Y-62403390D01*
X122590476Y-62403390D02*
X122542857Y-62451009D01*
X122542857Y-62451009D02*
X122447619Y-62498628D01*
X122447619Y-62498628D02*
X122066667Y-62498628D01*
X123590476Y-62974819D02*
X123019048Y-62974819D01*
X123304762Y-62974819D02*
X123304762Y-61974819D01*
X123304762Y-61974819D02*
X123209524Y-62117676D01*
X123209524Y-62117676D02*
X123114286Y-62212914D01*
X123114286Y-62212914D02*
X123019048Y-62260533D01*
X124209524Y-61974819D02*
X124304762Y-61974819D01*
X124304762Y-61974819D02*
X124400000Y-62022438D01*
X124400000Y-62022438D02*
X124447619Y-62070057D01*
X124447619Y-62070057D02*
X124495238Y-62165295D01*
X124495238Y-62165295D02*
X124542857Y-62355771D01*
X124542857Y-62355771D02*
X124542857Y-62593866D01*
X124542857Y-62593866D02*
X124495238Y-62784342D01*
X124495238Y-62784342D02*
X124447619Y-62879580D01*
X124447619Y-62879580D02*
X124400000Y-62927200D01*
X124400000Y-62927200D02*
X124304762Y-62974819D01*
X124304762Y-62974819D02*
X124209524Y-62974819D01*
X124209524Y-62974819D02*
X124114286Y-62927200D01*
X124114286Y-62927200D02*
X124066667Y-62879580D01*
X124066667Y-62879580D02*
X124019048Y-62784342D01*
X124019048Y-62784342D02*
X123971429Y-62593866D01*
X123971429Y-62593866D02*
X123971429Y-62355771D01*
X123971429Y-62355771D02*
X124019048Y-62165295D01*
X124019048Y-62165295D02*
X124066667Y-62070057D01*
X124066667Y-62070057D02*
X124114286Y-62022438D01*
X124114286Y-62022438D02*
X124209524Y-61974819D01*
X125239580Y-80242857D02*
X125287200Y-80290476D01*
X125287200Y-80290476D02*
X125334819Y-80433333D01*
X125334819Y-80433333D02*
X125334819Y-80528571D01*
X125334819Y-80528571D02*
X125287200Y-80671428D01*
X125287200Y-80671428D02*
X125191961Y-80766666D01*
X125191961Y-80766666D02*
X125096723Y-80814285D01*
X125096723Y-80814285D02*
X124906247Y-80861904D01*
X124906247Y-80861904D02*
X124763390Y-80861904D01*
X124763390Y-80861904D02*
X124572914Y-80814285D01*
X124572914Y-80814285D02*
X124477676Y-80766666D01*
X124477676Y-80766666D02*
X124382438Y-80671428D01*
X124382438Y-80671428D02*
X124334819Y-80528571D01*
X124334819Y-80528571D02*
X124334819Y-80433333D01*
X124334819Y-80433333D02*
X124382438Y-80290476D01*
X124382438Y-80290476D02*
X124430057Y-80242857D01*
X124334819Y-79909523D02*
X124334819Y-79290476D01*
X124334819Y-79290476D02*
X124715771Y-79623809D01*
X124715771Y-79623809D02*
X124715771Y-79480952D01*
X124715771Y-79480952D02*
X124763390Y-79385714D01*
X124763390Y-79385714D02*
X124811009Y-79338095D01*
X124811009Y-79338095D02*
X124906247Y-79290476D01*
X124906247Y-79290476D02*
X125144342Y-79290476D01*
X125144342Y-79290476D02*
X125239580Y-79338095D01*
X125239580Y-79338095D02*
X125287200Y-79385714D01*
X125287200Y-79385714D02*
X125334819Y-79480952D01*
X125334819Y-79480952D02*
X125334819Y-79766666D01*
X125334819Y-79766666D02*
X125287200Y-79861904D01*
X125287200Y-79861904D02*
X125239580Y-79909523D01*
X124334819Y-78957142D02*
X124334819Y-78338095D01*
X124334819Y-78338095D02*
X124715771Y-78671428D01*
X124715771Y-78671428D02*
X124715771Y-78528571D01*
X124715771Y-78528571D02*
X124763390Y-78433333D01*
X124763390Y-78433333D02*
X124811009Y-78385714D01*
X124811009Y-78385714D02*
X124906247Y-78338095D01*
X124906247Y-78338095D02*
X125144342Y-78338095D01*
X125144342Y-78338095D02*
X125239580Y-78385714D01*
X125239580Y-78385714D02*
X125287200Y-78433333D01*
X125287200Y-78433333D02*
X125334819Y-78528571D01*
X125334819Y-78528571D02*
X125334819Y-78814285D01*
X125334819Y-78814285D02*
X125287200Y-78909523D01*
X125287200Y-78909523D02*
X125239580Y-78957142D01*
X179917438Y-87647166D02*
X181346009Y-87647166D01*
X181346009Y-87647166D02*
X181631723Y-87742405D01*
X181631723Y-87742405D02*
X181822200Y-87932881D01*
X181822200Y-87932881D02*
X181917438Y-88218595D01*
X181917438Y-88218595D02*
X181917438Y-88409071D01*
X181917438Y-85647166D02*
X181917438Y-86790023D01*
X181917438Y-86218595D02*
X179917438Y-86218595D01*
X179917438Y-86218595D02*
X180203152Y-86409071D01*
X180203152Y-86409071D02*
X180393628Y-86599547D01*
X180393628Y-86599547D02*
X180488866Y-86790023D01*
X131366666Y-81531009D02*
X131033333Y-81531009D01*
X131033333Y-82054819D02*
X131033333Y-81054819D01*
X131033333Y-81054819D02*
X131509523Y-81054819D01*
X132223809Y-81531009D02*
X132366666Y-81578628D01*
X132366666Y-81578628D02*
X132414285Y-81626247D01*
X132414285Y-81626247D02*
X132461904Y-81721485D01*
X132461904Y-81721485D02*
X132461904Y-81864342D01*
X132461904Y-81864342D02*
X132414285Y-81959580D01*
X132414285Y-81959580D02*
X132366666Y-82007200D01*
X132366666Y-82007200D02*
X132271428Y-82054819D01*
X132271428Y-82054819D02*
X131890476Y-82054819D01*
X131890476Y-82054819D02*
X131890476Y-81054819D01*
X131890476Y-81054819D02*
X132223809Y-81054819D01*
X132223809Y-81054819D02*
X132319047Y-81102438D01*
X132319047Y-81102438D02*
X132366666Y-81150057D01*
X132366666Y-81150057D02*
X132414285Y-81245295D01*
X132414285Y-81245295D02*
X132414285Y-81340533D01*
X132414285Y-81340533D02*
X132366666Y-81435771D01*
X132366666Y-81435771D02*
X132319047Y-81483390D01*
X132319047Y-81483390D02*
X132223809Y-81531009D01*
X132223809Y-81531009D02*
X131890476Y-81531009D01*
X132795238Y-81054819D02*
X133414285Y-81054819D01*
X133414285Y-81054819D02*
X133080952Y-81435771D01*
X133080952Y-81435771D02*
X133223809Y-81435771D01*
X133223809Y-81435771D02*
X133319047Y-81483390D01*
X133319047Y-81483390D02*
X133366666Y-81531009D01*
X133366666Y-81531009D02*
X133414285Y-81626247D01*
X133414285Y-81626247D02*
X133414285Y-81864342D01*
X133414285Y-81864342D02*
X133366666Y-81959580D01*
X133366666Y-81959580D02*
X133319047Y-82007200D01*
X133319047Y-82007200D02*
X133223809Y-82054819D01*
X133223809Y-82054819D02*
X132938095Y-82054819D01*
X132938095Y-82054819D02*
X132842857Y-82007200D01*
X132842857Y-82007200D02*
X132795238Y-81959580D01*
X146580952Y-132354819D02*
X146247619Y-131878628D01*
X146009524Y-132354819D02*
X146009524Y-131354819D01*
X146009524Y-131354819D02*
X146390476Y-131354819D01*
X146390476Y-131354819D02*
X146485714Y-131402438D01*
X146485714Y-131402438D02*
X146533333Y-131450057D01*
X146533333Y-131450057D02*
X146580952Y-131545295D01*
X146580952Y-131545295D02*
X146580952Y-131688152D01*
X146580952Y-131688152D02*
X146533333Y-131783390D01*
X146533333Y-131783390D02*
X146485714Y-131831009D01*
X146485714Y-131831009D02*
X146390476Y-131878628D01*
X146390476Y-131878628D02*
X146009524Y-131878628D01*
X147533333Y-132354819D02*
X146961905Y-132354819D01*
X147247619Y-132354819D02*
X147247619Y-131354819D01*
X147247619Y-131354819D02*
X147152381Y-131497676D01*
X147152381Y-131497676D02*
X147057143Y-131592914D01*
X147057143Y-131592914D02*
X146961905Y-131640533D01*
X148485714Y-132354819D02*
X147914286Y-132354819D01*
X148200000Y-132354819D02*
X148200000Y-131354819D01*
X148200000Y-131354819D02*
X148104762Y-131497676D01*
X148104762Y-131497676D02*
X148009524Y-131592914D01*
X148009524Y-131592914D02*
X147914286Y-131640533D01*
X149342857Y-131688152D02*
X149342857Y-132354819D01*
X149104762Y-131307200D02*
X148866667Y-132021485D01*
X148866667Y-132021485D02*
X149485714Y-132021485D01*
X142797142Y-100954819D02*
X142463809Y-100478628D01*
X142225714Y-100954819D02*
X142225714Y-99954819D01*
X142225714Y-99954819D02*
X142606666Y-99954819D01*
X142606666Y-99954819D02*
X142701904Y-100002438D01*
X142701904Y-100002438D02*
X142749523Y-100050057D01*
X142749523Y-100050057D02*
X142797142Y-100145295D01*
X142797142Y-100145295D02*
X142797142Y-100288152D01*
X142797142Y-100288152D02*
X142749523Y-100383390D01*
X142749523Y-100383390D02*
X142701904Y-100431009D01*
X142701904Y-100431009D02*
X142606666Y-100478628D01*
X142606666Y-100478628D02*
X142225714Y-100478628D01*
X143749523Y-100954819D02*
X143178095Y-100954819D01*
X143463809Y-100954819D02*
X143463809Y-99954819D01*
X143463809Y-99954819D02*
X143368571Y-100097676D01*
X143368571Y-100097676D02*
X143273333Y-100192914D01*
X143273333Y-100192914D02*
X143178095Y-100240533D01*
X144082857Y-99954819D02*
X144701904Y-99954819D01*
X144701904Y-99954819D02*
X144368571Y-100335771D01*
X144368571Y-100335771D02*
X144511428Y-100335771D01*
X144511428Y-100335771D02*
X144606666Y-100383390D01*
X144606666Y-100383390D02*
X144654285Y-100431009D01*
X144654285Y-100431009D02*
X144701904Y-100526247D01*
X144701904Y-100526247D02*
X144701904Y-100764342D01*
X144701904Y-100764342D02*
X144654285Y-100859580D01*
X144654285Y-100859580D02*
X144606666Y-100907200D01*
X144606666Y-100907200D02*
X144511428Y-100954819D01*
X144511428Y-100954819D02*
X144225714Y-100954819D01*
X144225714Y-100954819D02*
X144130476Y-100907200D01*
X144130476Y-100907200D02*
X144082857Y-100859580D01*
X147438095Y-61454819D02*
X148009523Y-61454819D01*
X147723809Y-62454819D02*
X147723809Y-61454819D01*
X148342857Y-62454819D02*
X148342857Y-61454819D01*
X148342857Y-61454819D02*
X148723809Y-61454819D01*
X148723809Y-61454819D02*
X148819047Y-61502438D01*
X148819047Y-61502438D02*
X148866666Y-61550057D01*
X148866666Y-61550057D02*
X148914285Y-61645295D01*
X148914285Y-61645295D02*
X148914285Y-61788152D01*
X148914285Y-61788152D02*
X148866666Y-61883390D01*
X148866666Y-61883390D02*
X148819047Y-61931009D01*
X148819047Y-61931009D02*
X148723809Y-61978628D01*
X148723809Y-61978628D02*
X148342857Y-61978628D01*
X149247619Y-61454819D02*
X149914285Y-61454819D01*
X149914285Y-61454819D02*
X149485714Y-62454819D01*
X165692882Y-118310184D02*
X165692882Y-117500661D01*
X165692882Y-117500661D02*
X165645263Y-117405423D01*
X165645263Y-117405423D02*
X165597644Y-117357804D01*
X165597644Y-117357804D02*
X165502406Y-117310184D01*
X165502406Y-117310184D02*
X165311930Y-117310184D01*
X165311930Y-117310184D02*
X165216692Y-117357804D01*
X165216692Y-117357804D02*
X165169073Y-117405423D01*
X165169073Y-117405423D02*
X165121454Y-117500661D01*
X165121454Y-117500661D02*
X165121454Y-118310184D01*
X164502406Y-117881613D02*
X164597644Y-117929232D01*
X164597644Y-117929232D02*
X164645263Y-117976851D01*
X164645263Y-117976851D02*
X164692882Y-118072089D01*
X164692882Y-118072089D02*
X164692882Y-118119708D01*
X164692882Y-118119708D02*
X164645263Y-118214946D01*
X164645263Y-118214946D02*
X164597644Y-118262565D01*
X164597644Y-118262565D02*
X164502406Y-118310184D01*
X164502406Y-118310184D02*
X164311930Y-118310184D01*
X164311930Y-118310184D02*
X164216692Y-118262565D01*
X164216692Y-118262565D02*
X164169073Y-118214946D01*
X164169073Y-118214946D02*
X164121454Y-118119708D01*
X164121454Y-118119708D02*
X164121454Y-118072089D01*
X164121454Y-118072089D02*
X164169073Y-117976851D01*
X164169073Y-117976851D02*
X164216692Y-117929232D01*
X164216692Y-117929232D02*
X164311930Y-117881613D01*
X164311930Y-117881613D02*
X164502406Y-117881613D01*
X164502406Y-117881613D02*
X164597644Y-117833994D01*
X164597644Y-117833994D02*
X164645263Y-117786375D01*
X164645263Y-117786375D02*
X164692882Y-117691137D01*
X164692882Y-117691137D02*
X164692882Y-117500661D01*
X164692882Y-117500661D02*
X164645263Y-117405423D01*
X164645263Y-117405423D02*
X164597644Y-117357804D01*
X164597644Y-117357804D02*
X164502406Y-117310184D01*
X164502406Y-117310184D02*
X164311930Y-117310184D01*
X164311930Y-117310184D02*
X164216692Y-117357804D01*
X164216692Y-117357804D02*
X164169073Y-117405423D01*
X164169073Y-117405423D02*
X164121454Y-117500661D01*
X164121454Y-117500661D02*
X164121454Y-117691137D01*
X164121454Y-117691137D02*
X164169073Y-117786375D01*
X164169073Y-117786375D02*
X164216692Y-117833994D01*
X164216692Y-117833994D02*
X164311930Y-117881613D01*
X154438095Y-135804819D02*
X155009523Y-135804819D01*
X154723809Y-136804819D02*
X154723809Y-135804819D01*
X155342857Y-136804819D02*
X155342857Y-135804819D01*
X155342857Y-135804819D02*
X155723809Y-135804819D01*
X155723809Y-135804819D02*
X155819047Y-135852438D01*
X155819047Y-135852438D02*
X155866666Y-135900057D01*
X155866666Y-135900057D02*
X155914285Y-135995295D01*
X155914285Y-135995295D02*
X155914285Y-136138152D01*
X155914285Y-136138152D02*
X155866666Y-136233390D01*
X155866666Y-136233390D02*
X155819047Y-136281009D01*
X155819047Y-136281009D02*
X155723809Y-136328628D01*
X155723809Y-136328628D02*
X155342857Y-136328628D01*
X156819047Y-135804819D02*
X156342857Y-135804819D01*
X156342857Y-135804819D02*
X156295238Y-136281009D01*
X156295238Y-136281009D02*
X156342857Y-136233390D01*
X156342857Y-136233390D02*
X156438095Y-136185771D01*
X156438095Y-136185771D02*
X156676190Y-136185771D01*
X156676190Y-136185771D02*
X156771428Y-136233390D01*
X156771428Y-136233390D02*
X156819047Y-136281009D01*
X156819047Y-136281009D02*
X156866666Y-136376247D01*
X156866666Y-136376247D02*
X156866666Y-136614342D01*
X156866666Y-136614342D02*
X156819047Y-136709580D01*
X156819047Y-136709580D02*
X156771428Y-136757200D01*
X156771428Y-136757200D02*
X156676190Y-136804819D01*
X156676190Y-136804819D02*
X156438095Y-136804819D01*
X156438095Y-136804819D02*
X156342857Y-136757200D01*
X156342857Y-136757200D02*
X156295238Y-136709580D01*
X165692881Y-71135182D02*
X165692881Y-70325659D01*
X165692881Y-70325659D02*
X165645262Y-70230421D01*
X165645262Y-70230421D02*
X165597643Y-70182802D01*
X165597643Y-70182802D02*
X165502405Y-70135182D01*
X165502405Y-70135182D02*
X165311929Y-70135182D01*
X165311929Y-70135182D02*
X165216691Y-70182802D01*
X165216691Y-70182802D02*
X165169072Y-70230421D01*
X165169072Y-70230421D02*
X165121453Y-70325659D01*
X165121453Y-70325659D02*
X165121453Y-71135182D01*
X164216691Y-71135182D02*
X164407167Y-71135182D01*
X164407167Y-71135182D02*
X164502405Y-71087563D01*
X164502405Y-71087563D02*
X164550024Y-71039944D01*
X164550024Y-71039944D02*
X164645262Y-70897087D01*
X164645262Y-70897087D02*
X164692881Y-70706611D01*
X164692881Y-70706611D02*
X164692881Y-70325659D01*
X164692881Y-70325659D02*
X164645262Y-70230421D01*
X164645262Y-70230421D02*
X164597643Y-70182802D01*
X164597643Y-70182802D02*
X164502405Y-70135182D01*
X164502405Y-70135182D02*
X164311929Y-70135182D01*
X164311929Y-70135182D02*
X164216691Y-70182802D01*
X164216691Y-70182802D02*
X164169072Y-70230421D01*
X164169072Y-70230421D02*
X164121453Y-70325659D01*
X164121453Y-70325659D02*
X164121453Y-70563754D01*
X164121453Y-70563754D02*
X164169072Y-70658992D01*
X164169072Y-70658992D02*
X164216691Y-70706611D01*
X164216691Y-70706611D02*
X164311929Y-70754230D01*
X164311929Y-70754230D02*
X164502405Y-70754230D01*
X164502405Y-70754230D02*
X164597643Y-70706611D01*
X164597643Y-70706611D02*
X164645262Y-70658992D01*
X164645262Y-70658992D02*
X164692881Y-70563754D01*
X155761905Y-72254819D02*
X156333333Y-72254819D01*
X156047619Y-73254819D02*
X156047619Y-72254819D01*
X156666667Y-73254819D02*
X156666667Y-72254819D01*
X156666667Y-72254819D02*
X157047619Y-72254819D01*
X157047619Y-72254819D02*
X157142857Y-72302438D01*
X157142857Y-72302438D02*
X157190476Y-72350057D01*
X157190476Y-72350057D02*
X157238095Y-72445295D01*
X157238095Y-72445295D02*
X157238095Y-72588152D01*
X157238095Y-72588152D02*
X157190476Y-72683390D01*
X157190476Y-72683390D02*
X157142857Y-72731009D01*
X157142857Y-72731009D02*
X157047619Y-72778628D01*
X157047619Y-72778628D02*
X156666667Y-72778628D01*
X157619048Y-72350057D02*
X157666667Y-72302438D01*
X157666667Y-72302438D02*
X157761905Y-72254819D01*
X157761905Y-72254819D02*
X158000000Y-72254819D01*
X158000000Y-72254819D02*
X158095238Y-72302438D01*
X158095238Y-72302438D02*
X158142857Y-72350057D01*
X158142857Y-72350057D02*
X158190476Y-72445295D01*
X158190476Y-72445295D02*
X158190476Y-72540533D01*
X158190476Y-72540533D02*
X158142857Y-72683390D01*
X158142857Y-72683390D02*
X157571429Y-73254819D01*
X157571429Y-73254819D02*
X158190476Y-73254819D01*
X158809524Y-72254819D02*
X158904762Y-72254819D01*
X158904762Y-72254819D02*
X159000000Y-72302438D01*
X159000000Y-72302438D02*
X159047619Y-72350057D01*
X159047619Y-72350057D02*
X159095238Y-72445295D01*
X159095238Y-72445295D02*
X159142857Y-72635771D01*
X159142857Y-72635771D02*
X159142857Y-72873866D01*
X159142857Y-72873866D02*
X159095238Y-73064342D01*
X159095238Y-73064342D02*
X159047619Y-73159580D01*
X159047619Y-73159580D02*
X159000000Y-73207200D01*
X159000000Y-73207200D02*
X158904762Y-73254819D01*
X158904762Y-73254819D02*
X158809524Y-73254819D01*
X158809524Y-73254819D02*
X158714286Y-73207200D01*
X158714286Y-73207200D02*
X158666667Y-73159580D01*
X158666667Y-73159580D02*
X158619048Y-73064342D01*
X158619048Y-73064342D02*
X158571429Y-72873866D01*
X158571429Y-72873866D02*
X158571429Y-72635771D01*
X158571429Y-72635771D02*
X158619048Y-72445295D01*
X158619048Y-72445295D02*
X158666667Y-72350057D01*
X158666667Y-72350057D02*
X158714286Y-72302438D01*
X158714286Y-72302438D02*
X158809524Y-72254819D01*
X156304762Y-113986104D02*
X156266666Y-114024200D01*
X156266666Y-114024200D02*
X156152381Y-114062295D01*
X156152381Y-114062295D02*
X156076190Y-114062295D01*
X156076190Y-114062295D02*
X155961904Y-114024200D01*
X155961904Y-114024200D02*
X155885714Y-113948009D01*
X155885714Y-113948009D02*
X155847619Y-113871819D01*
X155847619Y-113871819D02*
X155809523Y-113719438D01*
X155809523Y-113719438D02*
X155809523Y-113605152D01*
X155809523Y-113605152D02*
X155847619Y-113452771D01*
X155847619Y-113452771D02*
X155885714Y-113376580D01*
X155885714Y-113376580D02*
X155961904Y-113300390D01*
X155961904Y-113300390D02*
X156076190Y-113262295D01*
X156076190Y-113262295D02*
X156152381Y-113262295D01*
X156152381Y-113262295D02*
X156266666Y-113300390D01*
X156266666Y-113300390D02*
X156304762Y-113338485D01*
X157066666Y-114062295D02*
X156609523Y-114062295D01*
X156838095Y-114062295D02*
X156838095Y-113262295D01*
X156838095Y-113262295D02*
X156761904Y-113376580D01*
X156761904Y-113376580D02*
X156685714Y-113452771D01*
X156685714Y-113452771D02*
X156609523Y-113490866D01*
X157447619Y-114062295D02*
X157600000Y-114062295D01*
X157600000Y-114062295D02*
X157676190Y-114024200D01*
X157676190Y-114024200D02*
X157714286Y-113986104D01*
X157714286Y-113986104D02*
X157790476Y-113871819D01*
X157790476Y-113871819D02*
X157828571Y-113719438D01*
X157828571Y-113719438D02*
X157828571Y-113414676D01*
X157828571Y-113414676D02*
X157790476Y-113338485D01*
X157790476Y-113338485D02*
X157752381Y-113300390D01*
X157752381Y-113300390D02*
X157676190Y-113262295D01*
X157676190Y-113262295D02*
X157523809Y-113262295D01*
X157523809Y-113262295D02*
X157447619Y-113300390D01*
X157447619Y-113300390D02*
X157409524Y-113338485D01*
X157409524Y-113338485D02*
X157371428Y-113414676D01*
X157371428Y-113414676D02*
X157371428Y-113605152D01*
X157371428Y-113605152D02*
X157409524Y-113681342D01*
X157409524Y-113681342D02*
X157447619Y-113719438D01*
X157447619Y-113719438D02*
X157523809Y-113757533D01*
X157523809Y-113757533D02*
X157676190Y-113757533D01*
X157676190Y-113757533D02*
X157752381Y-113719438D01*
X157752381Y-113719438D02*
X157790476Y-113681342D01*
X157790476Y-113681342D02*
X157828571Y-113605152D01*
X158133333Y-113338485D02*
X158171429Y-113300390D01*
X158171429Y-113300390D02*
X158247619Y-113262295D01*
X158247619Y-113262295D02*
X158438095Y-113262295D01*
X158438095Y-113262295D02*
X158514286Y-113300390D01*
X158514286Y-113300390D02*
X158552381Y-113338485D01*
X158552381Y-113338485D02*
X158590476Y-113414676D01*
X158590476Y-113414676D02*
X158590476Y-113490866D01*
X158590476Y-113490866D02*
X158552381Y-113605152D01*
X158552381Y-113605152D02*
X158095238Y-114062295D01*
X158095238Y-114062295D02*
X158590476Y-114062295D01*
X157638095Y-61554819D02*
X158209523Y-61554819D01*
X157923809Y-62554819D02*
X157923809Y-61554819D01*
X158542857Y-62554819D02*
X158542857Y-61554819D01*
X158542857Y-61554819D02*
X158923809Y-61554819D01*
X158923809Y-61554819D02*
X159019047Y-61602438D01*
X159019047Y-61602438D02*
X159066666Y-61650057D01*
X159066666Y-61650057D02*
X159114285Y-61745295D01*
X159114285Y-61745295D02*
X159114285Y-61888152D01*
X159114285Y-61888152D02*
X159066666Y-61983390D01*
X159066666Y-61983390D02*
X159019047Y-62031009D01*
X159019047Y-62031009D02*
X158923809Y-62078628D01*
X158923809Y-62078628D02*
X158542857Y-62078628D01*
X159495238Y-61650057D02*
X159542857Y-61602438D01*
X159542857Y-61602438D02*
X159638095Y-61554819D01*
X159638095Y-61554819D02*
X159876190Y-61554819D01*
X159876190Y-61554819D02*
X159971428Y-61602438D01*
X159971428Y-61602438D02*
X160019047Y-61650057D01*
X160019047Y-61650057D02*
X160066666Y-61745295D01*
X160066666Y-61745295D02*
X160066666Y-61840533D01*
X160066666Y-61840533D02*
X160019047Y-61983390D01*
X160019047Y-61983390D02*
X159447619Y-62554819D01*
X159447619Y-62554819D02*
X160066666Y-62554819D01*
X120482142Y-72959580D02*
X120434523Y-73007200D01*
X120434523Y-73007200D02*
X120291666Y-73054819D01*
X120291666Y-73054819D02*
X120196428Y-73054819D01*
X120196428Y-73054819D02*
X120053571Y-73007200D01*
X120053571Y-73007200D02*
X119958333Y-72911961D01*
X119958333Y-72911961D02*
X119910714Y-72816723D01*
X119910714Y-72816723D02*
X119863095Y-72626247D01*
X119863095Y-72626247D02*
X119863095Y-72483390D01*
X119863095Y-72483390D02*
X119910714Y-72292914D01*
X119910714Y-72292914D02*
X119958333Y-72197676D01*
X119958333Y-72197676D02*
X120053571Y-72102438D01*
X120053571Y-72102438D02*
X120196428Y-72054819D01*
X120196428Y-72054819D02*
X120291666Y-72054819D01*
X120291666Y-72054819D02*
X120434523Y-72102438D01*
X120434523Y-72102438D02*
X120482142Y-72150057D01*
X121339285Y-72388152D02*
X121339285Y-73054819D01*
X121101190Y-72007200D02*
X120863095Y-72721485D01*
X120863095Y-72721485D02*
X121482142Y-72721485D01*
X121910714Y-73054819D02*
X122101190Y-73054819D01*
X122101190Y-73054819D02*
X122196428Y-73007200D01*
X122196428Y-73007200D02*
X122244047Y-72959580D01*
X122244047Y-72959580D02*
X122339285Y-72816723D01*
X122339285Y-72816723D02*
X122386904Y-72626247D01*
X122386904Y-72626247D02*
X122386904Y-72245295D01*
X122386904Y-72245295D02*
X122339285Y-72150057D01*
X122339285Y-72150057D02*
X122291666Y-72102438D01*
X122291666Y-72102438D02*
X122196428Y-72054819D01*
X122196428Y-72054819D02*
X122005952Y-72054819D01*
X122005952Y-72054819D02*
X121910714Y-72102438D01*
X121910714Y-72102438D02*
X121863095Y-72150057D01*
X121863095Y-72150057D02*
X121815476Y-72245295D01*
X121815476Y-72245295D02*
X121815476Y-72483390D01*
X121815476Y-72483390D02*
X121863095Y-72578628D01*
X121863095Y-72578628D02*
X121910714Y-72626247D01*
X121910714Y-72626247D02*
X122005952Y-72673866D01*
X122005952Y-72673866D02*
X122196428Y-72673866D01*
X122196428Y-72673866D02*
X122291666Y-72626247D01*
X122291666Y-72626247D02*
X122339285Y-72578628D01*
X122339285Y-72578628D02*
X122386904Y-72483390D01*
X115938095Y-61954819D02*
X116509523Y-61954819D01*
X116223809Y-62954819D02*
X116223809Y-61954819D01*
X116842857Y-62954819D02*
X116842857Y-61954819D01*
X116842857Y-61954819D02*
X117223809Y-61954819D01*
X117223809Y-61954819D02*
X117319047Y-62002438D01*
X117319047Y-62002438D02*
X117366666Y-62050057D01*
X117366666Y-62050057D02*
X117414285Y-62145295D01*
X117414285Y-62145295D02*
X117414285Y-62288152D01*
X117414285Y-62288152D02*
X117366666Y-62383390D01*
X117366666Y-62383390D02*
X117319047Y-62431009D01*
X117319047Y-62431009D02*
X117223809Y-62478628D01*
X117223809Y-62478628D02*
X116842857Y-62478628D01*
X118271428Y-62288152D02*
X118271428Y-62954819D01*
X118033333Y-61907200D02*
X117795238Y-62621485D01*
X117795238Y-62621485D02*
X118414285Y-62621485D01*
X175338095Y-63354819D02*
X175338095Y-62354819D01*
X175338095Y-62831009D02*
X175909523Y-62831009D01*
X175909523Y-63354819D02*
X175909523Y-62354819D01*
X176338095Y-62450057D02*
X176385714Y-62402438D01*
X176385714Y-62402438D02*
X176480952Y-62354819D01*
X176480952Y-62354819D02*
X176719047Y-62354819D01*
X176719047Y-62354819D02*
X176814285Y-62402438D01*
X176814285Y-62402438D02*
X176861904Y-62450057D01*
X176861904Y-62450057D02*
X176909523Y-62545295D01*
X176909523Y-62545295D02*
X176909523Y-62640533D01*
X176909523Y-62640533D02*
X176861904Y-62783390D01*
X176861904Y-62783390D02*
X176290476Y-63354819D01*
X176290476Y-63354819D02*
X176909523Y-63354819D01*
D12*
X173961906Y-109506120D02*
X173961906Y-110315643D01*
X173961906Y-110315643D02*
X174009525Y-110410881D01*
X174009525Y-110410881D02*
X174057144Y-110458501D01*
X174057144Y-110458501D02*
X174152382Y-110506120D01*
X174152382Y-110506120D02*
X174342858Y-110506120D01*
X174342858Y-110506120D02*
X174438096Y-110458501D01*
X174438096Y-110458501D02*
X174485715Y-110410881D01*
X174485715Y-110410881D02*
X174533334Y-110315643D01*
X174533334Y-110315643D02*
X174533334Y-109506120D01*
X175533334Y-110506120D02*
X174961906Y-110506120D01*
X175247620Y-110506120D02*
X175247620Y-109506120D01*
X175247620Y-109506120D02*
X175152382Y-109648977D01*
X175152382Y-109648977D02*
X175057144Y-109744215D01*
X175057144Y-109744215D02*
X174961906Y-109791834D01*
X176485715Y-110506120D02*
X175914287Y-110506120D01*
X176200001Y-110506120D02*
X176200001Y-109506120D01*
X176200001Y-109506120D02*
X176104763Y-109648977D01*
X176104763Y-109648977D02*
X176009525Y-109744215D01*
X176009525Y-109744215D02*
X175914287Y-109791834D01*
D10*
X154660952Y-112592730D02*
X154327619Y-112116539D01*
X154089524Y-112592730D02*
X154089524Y-111592730D01*
X154089524Y-111592730D02*
X154470476Y-111592730D01*
X154470476Y-111592730D02*
X154565714Y-111640349D01*
X154565714Y-111640349D02*
X154613333Y-111687968D01*
X154613333Y-111687968D02*
X154660952Y-111783206D01*
X154660952Y-111783206D02*
X154660952Y-111926063D01*
X154660952Y-111926063D02*
X154613333Y-112021301D01*
X154613333Y-112021301D02*
X154565714Y-112068920D01*
X154565714Y-112068920D02*
X154470476Y-112116539D01*
X154470476Y-112116539D02*
X154089524Y-112116539D01*
X155613333Y-112592730D02*
X155041905Y-112592730D01*
X155327619Y-112592730D02*
X155327619Y-111592730D01*
X155327619Y-111592730D02*
X155232381Y-111735587D01*
X155232381Y-111735587D02*
X155137143Y-111830825D01*
X155137143Y-111830825D02*
X155041905Y-111878444D01*
X156232381Y-111592730D02*
X156327619Y-111592730D01*
X156327619Y-111592730D02*
X156422857Y-111640349D01*
X156422857Y-111640349D02*
X156470476Y-111687968D01*
X156470476Y-111687968D02*
X156518095Y-111783206D01*
X156518095Y-111783206D02*
X156565714Y-111973682D01*
X156565714Y-111973682D02*
X156565714Y-112211777D01*
X156565714Y-112211777D02*
X156518095Y-112402253D01*
X156518095Y-112402253D02*
X156470476Y-112497491D01*
X156470476Y-112497491D02*
X156422857Y-112545111D01*
X156422857Y-112545111D02*
X156327619Y-112592730D01*
X156327619Y-112592730D02*
X156232381Y-112592730D01*
X156232381Y-112592730D02*
X156137143Y-112545111D01*
X156137143Y-112545111D02*
X156089524Y-112497491D01*
X156089524Y-112497491D02*
X156041905Y-112402253D01*
X156041905Y-112402253D02*
X155994286Y-112211777D01*
X155994286Y-112211777D02*
X155994286Y-111973682D01*
X155994286Y-111973682D02*
X156041905Y-111783206D01*
X156041905Y-111783206D02*
X156089524Y-111687968D01*
X156089524Y-111687968D02*
X156137143Y-111640349D01*
X156137143Y-111640349D02*
X156232381Y-111592730D01*
X157470476Y-111592730D02*
X156994286Y-111592730D01*
X156994286Y-111592730D02*
X156946667Y-112068920D01*
X156946667Y-112068920D02*
X156994286Y-112021301D01*
X156994286Y-112021301D02*
X157089524Y-111973682D01*
X157089524Y-111973682D02*
X157327619Y-111973682D01*
X157327619Y-111973682D02*
X157422857Y-112021301D01*
X157422857Y-112021301D02*
X157470476Y-112068920D01*
X157470476Y-112068920D02*
X157518095Y-112164158D01*
X157518095Y-112164158D02*
X157518095Y-112402253D01*
X157518095Y-112402253D02*
X157470476Y-112497491D01*
X157470476Y-112497491D02*
X157422857Y-112545111D01*
X157422857Y-112545111D02*
X157327619Y-112592730D01*
X157327619Y-112592730D02*
X157089524Y-112592730D01*
X157089524Y-112592730D02*
X156994286Y-112545111D01*
X156994286Y-112545111D02*
X156946667Y-112497491D01*
D12*
X174438096Y-93781120D02*
X174438096Y-94590643D01*
X174438096Y-94590643D02*
X174485715Y-94685881D01*
X174485715Y-94685881D02*
X174533334Y-94733501D01*
X174533334Y-94733501D02*
X174628572Y-94781120D01*
X174628572Y-94781120D02*
X174819048Y-94781120D01*
X174819048Y-94781120D02*
X174914286Y-94733501D01*
X174914286Y-94733501D02*
X174961905Y-94685881D01*
X174961905Y-94685881D02*
X175009524Y-94590643D01*
X175009524Y-94590643D02*
X175009524Y-93781120D01*
X175961905Y-93781120D02*
X175485715Y-93781120D01*
X175485715Y-93781120D02*
X175438096Y-94257310D01*
X175438096Y-94257310D02*
X175485715Y-94209691D01*
X175485715Y-94209691D02*
X175580953Y-94162072D01*
X175580953Y-94162072D02*
X175819048Y-94162072D01*
X175819048Y-94162072D02*
X175914286Y-94209691D01*
X175914286Y-94209691D02*
X175961905Y-94257310D01*
X175961905Y-94257310D02*
X176009524Y-94352548D01*
X176009524Y-94352548D02*
X176009524Y-94590643D01*
X176009524Y-94590643D02*
X175961905Y-94685881D01*
X175961905Y-94685881D02*
X175914286Y-94733501D01*
X175914286Y-94733501D02*
X175819048Y-94781120D01*
X175819048Y-94781120D02*
X175580953Y-94781120D01*
X175580953Y-94781120D02*
X175485715Y-94733501D01*
X175485715Y-94733501D02*
X175438096Y-94685881D01*
D10*
X112638095Y-136604819D02*
X112638095Y-135604819D01*
X112638095Y-136081009D02*
X113209523Y-136081009D01*
X113209523Y-136604819D02*
X113209523Y-135604819D01*
X113590476Y-135604819D02*
X114209523Y-135604819D01*
X114209523Y-135604819D02*
X113876190Y-135985771D01*
X113876190Y-135985771D02*
X114019047Y-135985771D01*
X114019047Y-135985771D02*
X114114285Y-136033390D01*
X114114285Y-136033390D02*
X114161904Y-136081009D01*
X114161904Y-136081009D02*
X114209523Y-136176247D01*
X114209523Y-136176247D02*
X114209523Y-136414342D01*
X114209523Y-136414342D02*
X114161904Y-136509580D01*
X114161904Y-136509580D02*
X114114285Y-136557200D01*
X114114285Y-136557200D02*
X114019047Y-136604819D01*
X114019047Y-136604819D02*
X113733333Y-136604819D01*
X113733333Y-136604819D02*
X113638095Y-136557200D01*
X113638095Y-136557200D02*
X113590476Y-136509580D01*
X152761905Y-88754819D02*
X153333333Y-88754819D01*
X153047619Y-89754819D02*
X153047619Y-88754819D01*
X153666667Y-89754819D02*
X153666667Y-88754819D01*
X153666667Y-88754819D02*
X154047619Y-88754819D01*
X154047619Y-88754819D02*
X154142857Y-88802438D01*
X154142857Y-88802438D02*
X154190476Y-88850057D01*
X154190476Y-88850057D02*
X154238095Y-88945295D01*
X154238095Y-88945295D02*
X154238095Y-89088152D01*
X154238095Y-89088152D02*
X154190476Y-89183390D01*
X154190476Y-89183390D02*
X154142857Y-89231009D01*
X154142857Y-89231009D02*
X154047619Y-89278628D01*
X154047619Y-89278628D02*
X153666667Y-89278628D01*
X155190476Y-89754819D02*
X154619048Y-89754819D01*
X154904762Y-89754819D02*
X154904762Y-88754819D01*
X154904762Y-88754819D02*
X154809524Y-88897676D01*
X154809524Y-88897676D02*
X154714286Y-88992914D01*
X154714286Y-88992914D02*
X154619048Y-89040533D01*
X155666667Y-89754819D02*
X155857143Y-89754819D01*
X155857143Y-89754819D02*
X155952381Y-89707200D01*
X155952381Y-89707200D02*
X156000000Y-89659580D01*
X156000000Y-89659580D02*
X156095238Y-89516723D01*
X156095238Y-89516723D02*
X156142857Y-89326247D01*
X156142857Y-89326247D02*
X156142857Y-88945295D01*
X156142857Y-88945295D02*
X156095238Y-88850057D01*
X156095238Y-88850057D02*
X156047619Y-88802438D01*
X156047619Y-88802438D02*
X155952381Y-88754819D01*
X155952381Y-88754819D02*
X155761905Y-88754819D01*
X155761905Y-88754819D02*
X155666667Y-88802438D01*
X155666667Y-88802438D02*
X155619048Y-88850057D01*
X155619048Y-88850057D02*
X155571429Y-88945295D01*
X155571429Y-88945295D02*
X155571429Y-89183390D01*
X155571429Y-89183390D02*
X155619048Y-89278628D01*
X155619048Y-89278628D02*
X155666667Y-89326247D01*
X155666667Y-89326247D02*
X155761905Y-89373866D01*
X155761905Y-89373866D02*
X155952381Y-89373866D01*
X155952381Y-89373866D02*
X156047619Y-89326247D01*
X156047619Y-89326247D02*
X156095238Y-89278628D01*
X156095238Y-89278628D02*
X156142857Y-89183390D01*
X146338095Y-69254819D02*
X146909523Y-69254819D01*
X146623809Y-70254819D02*
X146623809Y-69254819D01*
X147242857Y-70254819D02*
X147242857Y-69254819D01*
X147242857Y-69254819D02*
X147623809Y-69254819D01*
X147623809Y-69254819D02*
X147719047Y-69302438D01*
X147719047Y-69302438D02*
X147766666Y-69350057D01*
X147766666Y-69350057D02*
X147814285Y-69445295D01*
X147814285Y-69445295D02*
X147814285Y-69588152D01*
X147814285Y-69588152D02*
X147766666Y-69683390D01*
X147766666Y-69683390D02*
X147719047Y-69731009D01*
X147719047Y-69731009D02*
X147623809Y-69778628D01*
X147623809Y-69778628D02*
X147242857Y-69778628D01*
X148385714Y-69683390D02*
X148290476Y-69635771D01*
X148290476Y-69635771D02*
X148242857Y-69588152D01*
X148242857Y-69588152D02*
X148195238Y-69492914D01*
X148195238Y-69492914D02*
X148195238Y-69445295D01*
X148195238Y-69445295D02*
X148242857Y-69350057D01*
X148242857Y-69350057D02*
X148290476Y-69302438D01*
X148290476Y-69302438D02*
X148385714Y-69254819D01*
X148385714Y-69254819D02*
X148576190Y-69254819D01*
X148576190Y-69254819D02*
X148671428Y-69302438D01*
X148671428Y-69302438D02*
X148719047Y-69350057D01*
X148719047Y-69350057D02*
X148766666Y-69445295D01*
X148766666Y-69445295D02*
X148766666Y-69492914D01*
X148766666Y-69492914D02*
X148719047Y-69588152D01*
X148719047Y-69588152D02*
X148671428Y-69635771D01*
X148671428Y-69635771D02*
X148576190Y-69683390D01*
X148576190Y-69683390D02*
X148385714Y-69683390D01*
X148385714Y-69683390D02*
X148290476Y-69731009D01*
X148290476Y-69731009D02*
X148242857Y-69778628D01*
X148242857Y-69778628D02*
X148195238Y-69873866D01*
X148195238Y-69873866D02*
X148195238Y-70064342D01*
X148195238Y-70064342D02*
X148242857Y-70159580D01*
X148242857Y-70159580D02*
X148290476Y-70207200D01*
X148290476Y-70207200D02*
X148385714Y-70254819D01*
X148385714Y-70254819D02*
X148576190Y-70254819D01*
X148576190Y-70254819D02*
X148671428Y-70207200D01*
X148671428Y-70207200D02*
X148719047Y-70159580D01*
X148719047Y-70159580D02*
X148766666Y-70064342D01*
X148766666Y-70064342D02*
X148766666Y-69873866D01*
X148766666Y-69873866D02*
X148719047Y-69778628D01*
X148719047Y-69778628D02*
X148671428Y-69731009D01*
X148671428Y-69731009D02*
X148576190Y-69683390D01*
X159349999Y-74686104D02*
X159316666Y-74724200D01*
X159316666Y-74724200D02*
X159216666Y-74762295D01*
X159216666Y-74762295D02*
X159149999Y-74762295D01*
X159149999Y-74762295D02*
X159049999Y-74724200D01*
X159049999Y-74724200D02*
X158983333Y-74648009D01*
X158983333Y-74648009D02*
X158949999Y-74571819D01*
X158949999Y-74571819D02*
X158916666Y-74419438D01*
X158916666Y-74419438D02*
X158916666Y-74305152D01*
X158916666Y-74305152D02*
X158949999Y-74152771D01*
X158949999Y-74152771D02*
X158983333Y-74076580D01*
X158983333Y-74076580D02*
X159049999Y-74000390D01*
X159049999Y-74000390D02*
X159149999Y-73962295D01*
X159149999Y-73962295D02*
X159216666Y-73962295D01*
X159216666Y-73962295D02*
X159316666Y-74000390D01*
X159316666Y-74000390D02*
X159349999Y-74038485D01*
X160016666Y-74762295D02*
X159616666Y-74762295D01*
X159816666Y-74762295D02*
X159816666Y-73962295D01*
X159816666Y-73962295D02*
X159749999Y-74076580D01*
X159749999Y-74076580D02*
X159683333Y-74152771D01*
X159683333Y-74152771D02*
X159616666Y-74190866D01*
X160283333Y-74038485D02*
X160316666Y-74000390D01*
X160316666Y-74000390D02*
X160383333Y-73962295D01*
X160383333Y-73962295D02*
X160550000Y-73962295D01*
X160550000Y-73962295D02*
X160616666Y-74000390D01*
X160616666Y-74000390D02*
X160650000Y-74038485D01*
X160650000Y-74038485D02*
X160683333Y-74114676D01*
X160683333Y-74114676D02*
X160683333Y-74190866D01*
X160683333Y-74190866D02*
X160650000Y-74305152D01*
X160650000Y-74305152D02*
X160250000Y-74762295D01*
X160250000Y-74762295D02*
X160683333Y-74762295D01*
X152661905Y-104854819D02*
X153233333Y-104854819D01*
X152947619Y-105854819D02*
X152947619Y-104854819D01*
X153566667Y-105854819D02*
X153566667Y-104854819D01*
X153566667Y-104854819D02*
X153947619Y-104854819D01*
X153947619Y-104854819D02*
X154042857Y-104902438D01*
X154042857Y-104902438D02*
X154090476Y-104950057D01*
X154090476Y-104950057D02*
X154138095Y-105045295D01*
X154138095Y-105045295D02*
X154138095Y-105188152D01*
X154138095Y-105188152D02*
X154090476Y-105283390D01*
X154090476Y-105283390D02*
X154042857Y-105331009D01*
X154042857Y-105331009D02*
X153947619Y-105378628D01*
X153947619Y-105378628D02*
X153566667Y-105378628D01*
X154519048Y-104950057D02*
X154566667Y-104902438D01*
X154566667Y-104902438D02*
X154661905Y-104854819D01*
X154661905Y-104854819D02*
X154900000Y-104854819D01*
X154900000Y-104854819D02*
X154995238Y-104902438D01*
X154995238Y-104902438D02*
X155042857Y-104950057D01*
X155042857Y-104950057D02*
X155090476Y-105045295D01*
X155090476Y-105045295D02*
X155090476Y-105140533D01*
X155090476Y-105140533D02*
X155042857Y-105283390D01*
X155042857Y-105283390D02*
X154471429Y-105854819D01*
X154471429Y-105854819D02*
X155090476Y-105854819D01*
X155471429Y-104950057D02*
X155519048Y-104902438D01*
X155519048Y-104902438D02*
X155614286Y-104854819D01*
X155614286Y-104854819D02*
X155852381Y-104854819D01*
X155852381Y-104854819D02*
X155947619Y-104902438D01*
X155947619Y-104902438D02*
X155995238Y-104950057D01*
X155995238Y-104950057D02*
X156042857Y-105045295D01*
X156042857Y-105045295D02*
X156042857Y-105140533D01*
X156042857Y-105140533D02*
X155995238Y-105283390D01*
X155995238Y-105283390D02*
X155423810Y-105854819D01*
X155423810Y-105854819D02*
X156042857Y-105854819D01*
X146971572Y-135624819D02*
X147543000Y-135624819D01*
X147257286Y-136624819D02*
X147257286Y-135624819D01*
X147876334Y-136624819D02*
X147876334Y-135624819D01*
X147876334Y-135624819D02*
X148257286Y-135624819D01*
X148257286Y-135624819D02*
X148352524Y-135672438D01*
X148352524Y-135672438D02*
X148400143Y-135720057D01*
X148400143Y-135720057D02*
X148447762Y-135815295D01*
X148447762Y-135815295D02*
X148447762Y-135958152D01*
X148447762Y-135958152D02*
X148400143Y-136053390D01*
X148400143Y-136053390D02*
X148352524Y-136101009D01*
X148352524Y-136101009D02*
X148257286Y-136148628D01*
X148257286Y-136148628D02*
X147876334Y-136148628D01*
X149400143Y-136624819D02*
X148828715Y-136624819D01*
X149114429Y-136624819D02*
X149114429Y-135624819D01*
X149114429Y-135624819D02*
X149019191Y-135767676D01*
X149019191Y-135767676D02*
X148923953Y-135862914D01*
X148923953Y-135862914D02*
X148828715Y-135910533D01*
X152361905Y-120454819D02*
X152933333Y-120454819D01*
X152647619Y-121454819D02*
X152647619Y-120454819D01*
X153266667Y-121454819D02*
X153266667Y-120454819D01*
X153266667Y-120454819D02*
X153647619Y-120454819D01*
X153647619Y-120454819D02*
X153742857Y-120502438D01*
X153742857Y-120502438D02*
X153790476Y-120550057D01*
X153790476Y-120550057D02*
X153838095Y-120645295D01*
X153838095Y-120645295D02*
X153838095Y-120788152D01*
X153838095Y-120788152D02*
X153790476Y-120883390D01*
X153790476Y-120883390D02*
X153742857Y-120931009D01*
X153742857Y-120931009D02*
X153647619Y-120978628D01*
X153647619Y-120978628D02*
X153266667Y-120978628D01*
X154790476Y-121454819D02*
X154219048Y-121454819D01*
X154504762Y-121454819D02*
X154504762Y-120454819D01*
X154504762Y-120454819D02*
X154409524Y-120597676D01*
X154409524Y-120597676D02*
X154314286Y-120692914D01*
X154314286Y-120692914D02*
X154219048Y-120740533D01*
X155647619Y-120454819D02*
X155457143Y-120454819D01*
X155457143Y-120454819D02*
X155361905Y-120502438D01*
X155361905Y-120502438D02*
X155314286Y-120550057D01*
X155314286Y-120550057D02*
X155219048Y-120692914D01*
X155219048Y-120692914D02*
X155171429Y-120883390D01*
X155171429Y-120883390D02*
X155171429Y-121264342D01*
X155171429Y-121264342D02*
X155219048Y-121359580D01*
X155219048Y-121359580D02*
X155266667Y-121407200D01*
X155266667Y-121407200D02*
X155361905Y-121454819D01*
X155361905Y-121454819D02*
X155552381Y-121454819D01*
X155552381Y-121454819D02*
X155647619Y-121407200D01*
X155647619Y-121407200D02*
X155695238Y-121359580D01*
X155695238Y-121359580D02*
X155742857Y-121264342D01*
X155742857Y-121264342D02*
X155742857Y-121026247D01*
X155742857Y-121026247D02*
X155695238Y-120931009D01*
X155695238Y-120931009D02*
X155647619Y-120883390D01*
X155647619Y-120883390D02*
X155552381Y-120835771D01*
X155552381Y-120835771D02*
X155361905Y-120835771D01*
X155361905Y-120835771D02*
X155266667Y-120883390D01*
X155266667Y-120883390D02*
X155219048Y-120931009D01*
X155219048Y-120931009D02*
X155171429Y-121026247D01*
X157955714Y-77096104D02*
X157917618Y-77134200D01*
X157917618Y-77134200D02*
X157803333Y-77172295D01*
X157803333Y-77172295D02*
X157727142Y-77172295D01*
X157727142Y-77172295D02*
X157612856Y-77134200D01*
X157612856Y-77134200D02*
X157536666Y-77058009D01*
X157536666Y-77058009D02*
X157498571Y-76981819D01*
X157498571Y-76981819D02*
X157460475Y-76829438D01*
X157460475Y-76829438D02*
X157460475Y-76715152D01*
X157460475Y-76715152D02*
X157498571Y-76562771D01*
X157498571Y-76562771D02*
X157536666Y-76486580D01*
X157536666Y-76486580D02*
X157612856Y-76410390D01*
X157612856Y-76410390D02*
X157727142Y-76372295D01*
X157727142Y-76372295D02*
X157803333Y-76372295D01*
X157803333Y-76372295D02*
X157917618Y-76410390D01*
X157917618Y-76410390D02*
X157955714Y-76448485D01*
X158717618Y-77172295D02*
X158260475Y-77172295D01*
X158489047Y-77172295D02*
X158489047Y-76372295D01*
X158489047Y-76372295D02*
X158412856Y-76486580D01*
X158412856Y-76486580D02*
X158336666Y-76562771D01*
X158336666Y-76562771D02*
X158260475Y-76600866D01*
X159403333Y-76372295D02*
X159250952Y-76372295D01*
X159250952Y-76372295D02*
X159174761Y-76410390D01*
X159174761Y-76410390D02*
X159136666Y-76448485D01*
X159136666Y-76448485D02*
X159060476Y-76562771D01*
X159060476Y-76562771D02*
X159022380Y-76715152D01*
X159022380Y-76715152D02*
X159022380Y-77019914D01*
X159022380Y-77019914D02*
X159060476Y-77096104D01*
X159060476Y-77096104D02*
X159098571Y-77134200D01*
X159098571Y-77134200D02*
X159174761Y-77172295D01*
X159174761Y-77172295D02*
X159327142Y-77172295D01*
X159327142Y-77172295D02*
X159403333Y-77134200D01*
X159403333Y-77134200D02*
X159441428Y-77096104D01*
X159441428Y-77096104D02*
X159479523Y-77019914D01*
X159479523Y-77019914D02*
X159479523Y-76829438D01*
X159479523Y-76829438D02*
X159441428Y-76753247D01*
X159441428Y-76753247D02*
X159403333Y-76715152D01*
X159403333Y-76715152D02*
X159327142Y-76677057D01*
X159327142Y-76677057D02*
X159174761Y-76677057D01*
X159174761Y-76677057D02*
X159098571Y-76715152D01*
X159098571Y-76715152D02*
X159060476Y-76753247D01*
X159060476Y-76753247D02*
X159022380Y-76829438D01*
D11*
X147161383Y-125364413D02*
X147161383Y-124094413D01*
X148491860Y-125243460D02*
X148431384Y-125303937D01*
X148431384Y-125303937D02*
X148249955Y-125364413D01*
X148249955Y-125364413D02*
X148129003Y-125364413D01*
X148129003Y-125364413D02*
X147947574Y-125303937D01*
X147947574Y-125303937D02*
X147826622Y-125182984D01*
X147826622Y-125182984D02*
X147766145Y-125062032D01*
X147766145Y-125062032D02*
X147705669Y-124820127D01*
X147705669Y-124820127D02*
X147705669Y-124638698D01*
X147705669Y-124638698D02*
X147766145Y-124396794D01*
X147766145Y-124396794D02*
X147826622Y-124275841D01*
X147826622Y-124275841D02*
X147947574Y-124154889D01*
X147947574Y-124154889D02*
X148129003Y-124094413D01*
X148129003Y-124094413D02*
X148249955Y-124094413D01*
X148249955Y-124094413D02*
X148431384Y-124154889D01*
X148431384Y-124154889D02*
X148491860Y-124215365D01*
X149580431Y-124094413D02*
X149338526Y-124094413D01*
X149338526Y-124094413D02*
X149217574Y-124154889D01*
X149217574Y-124154889D02*
X149157098Y-124215365D01*
X149157098Y-124215365D02*
X149036145Y-124396794D01*
X149036145Y-124396794D02*
X148975669Y-124638698D01*
X148975669Y-124638698D02*
X148975669Y-125122508D01*
X148975669Y-125122508D02*
X149036145Y-125243460D01*
X149036145Y-125243460D02*
X149096622Y-125303937D01*
X149096622Y-125303937D02*
X149217574Y-125364413D01*
X149217574Y-125364413D02*
X149459479Y-125364413D01*
X149459479Y-125364413D02*
X149580431Y-125303937D01*
X149580431Y-125303937D02*
X149640907Y-125243460D01*
X149640907Y-125243460D02*
X149701384Y-125122508D01*
X149701384Y-125122508D02*
X149701384Y-124820127D01*
X149701384Y-124820127D02*
X149640907Y-124699175D01*
X149640907Y-124699175D02*
X149580431Y-124638698D01*
X149580431Y-124638698D02*
X149459479Y-124578222D01*
X149459479Y-124578222D02*
X149217574Y-124578222D01*
X149217574Y-124578222D02*
X149096622Y-124638698D01*
X149096622Y-124638698D02*
X149036145Y-124699175D01*
X149036145Y-124699175D02*
X148975669Y-124820127D01*
X142869556Y-65024761D02*
X143474318Y-65024761D01*
X142204318Y-65448094D02*
X142869556Y-65024761D01*
X142869556Y-65024761D02*
X142204318Y-64601427D01*
X142325270Y-64238571D02*
X142264794Y-64178095D01*
X142264794Y-64178095D02*
X142204318Y-64057142D01*
X142204318Y-64057142D02*
X142204318Y-63754761D01*
X142204318Y-63754761D02*
X142264794Y-63633809D01*
X142264794Y-63633809D02*
X142325270Y-63573333D01*
X142325270Y-63573333D02*
X142446222Y-63512856D01*
X142446222Y-63512856D02*
X142567175Y-63512856D01*
X142567175Y-63512856D02*
X142748603Y-63573333D01*
X142748603Y-63573333D02*
X143474318Y-64299047D01*
X143474318Y-64299047D02*
X143474318Y-63512856D01*
D10*
X135997142Y-95829819D02*
X135663809Y-95353628D01*
X135425714Y-95829819D02*
X135425714Y-94829819D01*
X135425714Y-94829819D02*
X135806666Y-94829819D01*
X135806666Y-94829819D02*
X135901904Y-94877438D01*
X135901904Y-94877438D02*
X135949523Y-94925057D01*
X135949523Y-94925057D02*
X135997142Y-95020295D01*
X135997142Y-95020295D02*
X135997142Y-95163152D01*
X135997142Y-95163152D02*
X135949523Y-95258390D01*
X135949523Y-95258390D02*
X135901904Y-95306009D01*
X135901904Y-95306009D02*
X135806666Y-95353628D01*
X135806666Y-95353628D02*
X135425714Y-95353628D01*
X136949523Y-95829819D02*
X136378095Y-95829819D01*
X136663809Y-95829819D02*
X136663809Y-94829819D01*
X136663809Y-94829819D02*
X136568571Y-94972676D01*
X136568571Y-94972676D02*
X136473333Y-95067914D01*
X136473333Y-95067914D02*
X136378095Y-95115533D01*
X137901904Y-95829819D02*
X137330476Y-95829819D01*
X137616190Y-95829819D02*
X137616190Y-94829819D01*
X137616190Y-94829819D02*
X137520952Y-94972676D01*
X137520952Y-94972676D02*
X137425714Y-95067914D01*
X137425714Y-95067914D02*
X137330476Y-95115533D01*
X166169072Y-102585183D02*
X166169072Y-101775660D01*
X166169072Y-101775660D02*
X166121453Y-101680422D01*
X166121453Y-101680422D02*
X166073834Y-101632803D01*
X166073834Y-101632803D02*
X165978596Y-101585183D01*
X165978596Y-101585183D02*
X165788120Y-101585183D01*
X165788120Y-101585183D02*
X165692882Y-101632803D01*
X165692882Y-101632803D02*
X165645263Y-101680422D01*
X165645263Y-101680422D02*
X165597644Y-101775660D01*
X165597644Y-101775660D02*
X165597644Y-102585183D01*
X164597644Y-101585183D02*
X165169072Y-101585183D01*
X164883358Y-101585183D02*
X164883358Y-102585183D01*
X164883358Y-102585183D02*
X164978596Y-102442326D01*
X164978596Y-102442326D02*
X165073834Y-102347088D01*
X165073834Y-102347088D02*
X165169072Y-102299469D01*
X163978596Y-102585183D02*
X163883358Y-102585183D01*
X163883358Y-102585183D02*
X163788120Y-102537564D01*
X163788120Y-102537564D02*
X163740501Y-102489945D01*
X163740501Y-102489945D02*
X163692882Y-102394707D01*
X163692882Y-102394707D02*
X163645263Y-102204231D01*
X163645263Y-102204231D02*
X163645263Y-101966136D01*
X163645263Y-101966136D02*
X163692882Y-101775660D01*
X163692882Y-101775660D02*
X163740501Y-101680422D01*
X163740501Y-101680422D02*
X163788120Y-101632803D01*
X163788120Y-101632803D02*
X163883358Y-101585183D01*
X163883358Y-101585183D02*
X163978596Y-101585183D01*
X163978596Y-101585183D02*
X164073834Y-101632803D01*
X164073834Y-101632803D02*
X164121453Y-101680422D01*
X164121453Y-101680422D02*
X164169072Y-101775660D01*
X164169072Y-101775660D02*
X164216691Y-101966136D01*
X164216691Y-101966136D02*
X164216691Y-102204231D01*
X164216691Y-102204231D02*
X164169072Y-102394707D01*
X164169072Y-102394707D02*
X164121453Y-102489945D01*
X164121453Y-102489945D02*
X164073834Y-102537564D01*
X164073834Y-102537564D02*
X163978596Y-102585183D01*
D11*
X140279047Y-75195270D02*
X140158095Y-75134794D01*
X140158095Y-75134794D02*
X140037142Y-75013842D01*
X140037142Y-75013842D02*
X139855714Y-74832413D01*
X139855714Y-74832413D02*
X139734761Y-74771937D01*
X139734761Y-74771937D02*
X139613809Y-74771937D01*
X139674285Y-75074318D02*
X139553333Y-75013842D01*
X139553333Y-75013842D02*
X139432380Y-74892889D01*
X139432380Y-74892889D02*
X139371904Y-74650984D01*
X139371904Y-74650984D02*
X139371904Y-74227651D01*
X139371904Y-74227651D02*
X139432380Y-73985746D01*
X139432380Y-73985746D02*
X139553333Y-73864794D01*
X139553333Y-73864794D02*
X139674285Y-73804318D01*
X139674285Y-73804318D02*
X139916190Y-73804318D01*
X139916190Y-73804318D02*
X140037142Y-73864794D01*
X140037142Y-73864794D02*
X140158095Y-73985746D01*
X140158095Y-73985746D02*
X140218571Y-74227651D01*
X140218571Y-74227651D02*
X140218571Y-74650984D01*
X140218571Y-74650984D02*
X140158095Y-74892889D01*
X140158095Y-74892889D02*
X140037142Y-75013842D01*
X140037142Y-75013842D02*
X139916190Y-75074318D01*
X139916190Y-75074318D02*
X139674285Y-75074318D01*
X140702380Y-73925270D02*
X140762856Y-73864794D01*
X140762856Y-73864794D02*
X140883809Y-73804318D01*
X140883809Y-73804318D02*
X141186190Y-73804318D01*
X141186190Y-73804318D02*
X141307142Y-73864794D01*
X141307142Y-73864794D02*
X141367618Y-73925270D01*
X141367618Y-73925270D02*
X141428095Y-74046222D01*
X141428095Y-74046222D02*
X141428095Y-74167175D01*
X141428095Y-74167175D02*
X141367618Y-74348603D01*
X141367618Y-74348603D02*
X140641904Y-75074318D01*
X140641904Y-75074318D02*
X141428095Y-75074318D01*
D10*
X160631933Y-129908017D02*
X160298600Y-129431826D01*
X160060505Y-129908017D02*
X160060505Y-128908017D01*
X160060505Y-128908017D02*
X160441457Y-128908017D01*
X160441457Y-128908017D02*
X160536695Y-128955636D01*
X160536695Y-128955636D02*
X160584314Y-129003255D01*
X160584314Y-129003255D02*
X160631933Y-129098493D01*
X160631933Y-129098493D02*
X160631933Y-129241350D01*
X160631933Y-129241350D02*
X160584314Y-129336588D01*
X160584314Y-129336588D02*
X160536695Y-129384207D01*
X160536695Y-129384207D02*
X160441457Y-129431826D01*
X160441457Y-129431826D02*
X160060505Y-129431826D01*
X161108124Y-129908017D02*
X161298600Y-129908017D01*
X161298600Y-129908017D02*
X161393838Y-129860398D01*
X161393838Y-129860398D02*
X161441457Y-129812778D01*
X161441457Y-129812778D02*
X161536695Y-129669921D01*
X161536695Y-129669921D02*
X161584314Y-129479445D01*
X161584314Y-129479445D02*
X161584314Y-129098493D01*
X161584314Y-129098493D02*
X161536695Y-129003255D01*
X161536695Y-129003255D02*
X161489076Y-128955636D01*
X161489076Y-128955636D02*
X161393838Y-128908017D01*
X161393838Y-128908017D02*
X161203362Y-128908017D01*
X161203362Y-128908017D02*
X161108124Y-128955636D01*
X161108124Y-128955636D02*
X161060505Y-129003255D01*
X161060505Y-129003255D02*
X161012886Y-129098493D01*
X161012886Y-129098493D02*
X161012886Y-129336588D01*
X161012886Y-129336588D02*
X161060505Y-129431826D01*
X161060505Y-129431826D02*
X161108124Y-129479445D01*
X161108124Y-129479445D02*
X161203362Y-129527064D01*
X161203362Y-129527064D02*
X161393838Y-129527064D01*
X161393838Y-129527064D02*
X161489076Y-129479445D01*
X161489076Y-129479445D02*
X161536695Y-129431826D01*
X161536695Y-129431826D02*
X161584314Y-129336588D01*
X162060505Y-129908017D02*
X162250981Y-129908017D01*
X162250981Y-129908017D02*
X162346219Y-129860398D01*
X162346219Y-129860398D02*
X162393838Y-129812778D01*
X162393838Y-129812778D02*
X162489076Y-129669921D01*
X162489076Y-129669921D02*
X162536695Y-129479445D01*
X162536695Y-129479445D02*
X162536695Y-129098493D01*
X162536695Y-129098493D02*
X162489076Y-129003255D01*
X162489076Y-129003255D02*
X162441457Y-128955636D01*
X162441457Y-128955636D02*
X162346219Y-128908017D01*
X162346219Y-128908017D02*
X162155743Y-128908017D01*
X162155743Y-128908017D02*
X162060505Y-128955636D01*
X162060505Y-128955636D02*
X162012886Y-129003255D01*
X162012886Y-129003255D02*
X161965267Y-129098493D01*
X161965267Y-129098493D02*
X161965267Y-129336588D01*
X161965267Y-129336588D02*
X162012886Y-129431826D01*
X162012886Y-129431826D02*
X162060505Y-129479445D01*
X162060505Y-129479445D02*
X162155743Y-129527064D01*
X162155743Y-129527064D02*
X162346219Y-129527064D01*
X162346219Y-129527064D02*
X162441457Y-129479445D01*
X162441457Y-129479445D02*
X162489076Y-129431826D01*
X162489076Y-129431826D02*
X162536695Y-129336588D01*
D11*
X112196904Y-83254319D02*
X113043571Y-83254319D01*
X113043571Y-83254319D02*
X112196904Y-84524319D01*
X112196904Y-84524319D02*
X113043571Y-84524319D01*
X114192619Y-84524319D02*
X113466904Y-84524319D01*
X113829761Y-84524319D02*
X113829761Y-83254319D01*
X113829761Y-83254319D02*
X113708809Y-83435747D01*
X113708809Y-83435747D02*
X113587857Y-83556700D01*
X113587857Y-83556700D02*
X113466904Y-83617176D01*
D10*
X168361905Y-129254819D02*
X168933333Y-129254819D01*
X168647619Y-130254819D02*
X168647619Y-129254819D01*
X169266667Y-130254819D02*
X169266667Y-129254819D01*
X169266667Y-129254819D02*
X169647619Y-129254819D01*
X169647619Y-129254819D02*
X169742857Y-129302438D01*
X169742857Y-129302438D02*
X169790476Y-129350057D01*
X169790476Y-129350057D02*
X169838095Y-129445295D01*
X169838095Y-129445295D02*
X169838095Y-129588152D01*
X169838095Y-129588152D02*
X169790476Y-129683390D01*
X169790476Y-129683390D02*
X169742857Y-129731009D01*
X169742857Y-129731009D02*
X169647619Y-129778628D01*
X169647619Y-129778628D02*
X169266667Y-129778628D01*
X170790476Y-130254819D02*
X170219048Y-130254819D01*
X170504762Y-130254819D02*
X170504762Y-129254819D01*
X170504762Y-129254819D02*
X170409524Y-129397676D01*
X170409524Y-129397676D02*
X170314286Y-129492914D01*
X170314286Y-129492914D02*
X170219048Y-129540533D01*
X171695238Y-129254819D02*
X171219048Y-129254819D01*
X171219048Y-129254819D02*
X171171429Y-129731009D01*
X171171429Y-129731009D02*
X171219048Y-129683390D01*
X171219048Y-129683390D02*
X171314286Y-129635771D01*
X171314286Y-129635771D02*
X171552381Y-129635771D01*
X171552381Y-129635771D02*
X171647619Y-129683390D01*
X171647619Y-129683390D02*
X171695238Y-129731009D01*
X171695238Y-129731009D02*
X171742857Y-129826247D01*
X171742857Y-129826247D02*
X171742857Y-130064342D01*
X171742857Y-130064342D02*
X171695238Y-130159580D01*
X171695238Y-130159580D02*
X171647619Y-130207200D01*
X171647619Y-130207200D02*
X171552381Y-130254819D01*
X171552381Y-130254819D02*
X171314286Y-130254819D01*
X171314286Y-130254819D02*
X171219048Y-130207200D01*
X171219048Y-130207200D02*
X171171429Y-130159580D01*
X179992926Y-119108167D02*
X181421497Y-119108167D01*
X181421497Y-119108167D02*
X181707211Y-119203406D01*
X181707211Y-119203406D02*
X181897688Y-119393882D01*
X181897688Y-119393882D02*
X181992926Y-119679596D01*
X181992926Y-119679596D02*
X181992926Y-119870072D01*
X179992926Y-118346262D02*
X179992926Y-117108167D01*
X179992926Y-117108167D02*
X180754830Y-117774834D01*
X180754830Y-117774834D02*
X180754830Y-117489119D01*
X180754830Y-117489119D02*
X180850068Y-117298643D01*
X180850068Y-117298643D02*
X180945307Y-117203405D01*
X180945307Y-117203405D02*
X181135783Y-117108167D01*
X181135783Y-117108167D02*
X181611973Y-117108167D01*
X181611973Y-117108167D02*
X181802449Y-117203405D01*
X181802449Y-117203405D02*
X181897688Y-117298643D01*
X181897688Y-117298643D02*
X181992926Y-117489119D01*
X181992926Y-117489119D02*
X181992926Y-118060548D01*
X181992926Y-118060548D02*
X181897688Y-118251024D01*
X181897688Y-118251024D02*
X181802449Y-118346262D01*
D12*
X174438095Y-78056119D02*
X174438095Y-78865642D01*
X174438095Y-78865642D02*
X174485714Y-78960880D01*
X174485714Y-78960880D02*
X174533333Y-79008500D01*
X174533333Y-79008500D02*
X174628571Y-79056119D01*
X174628571Y-79056119D02*
X174819047Y-79056119D01*
X174819047Y-79056119D02*
X174914285Y-79008500D01*
X174914285Y-79008500D02*
X174961904Y-78960880D01*
X174961904Y-78960880D02*
X175009523Y-78865642D01*
X175009523Y-78865642D02*
X175009523Y-78056119D01*
X175390476Y-78056119D02*
X176057142Y-78056119D01*
X176057142Y-78056119D02*
X175628571Y-79056119D01*
D10*
X175254819Y-104122858D02*
X174778628Y-104456191D01*
X175254819Y-104694286D02*
X174254819Y-104694286D01*
X174254819Y-104694286D02*
X174254819Y-104313334D01*
X174254819Y-104313334D02*
X174302438Y-104218096D01*
X174302438Y-104218096D02*
X174350057Y-104170477D01*
X174350057Y-104170477D02*
X174445295Y-104122858D01*
X174445295Y-104122858D02*
X174588152Y-104122858D01*
X174588152Y-104122858D02*
X174683390Y-104170477D01*
X174683390Y-104170477D02*
X174731009Y-104218096D01*
X174731009Y-104218096D02*
X174778628Y-104313334D01*
X174778628Y-104313334D02*
X174778628Y-104694286D01*
X174254819Y-103265715D02*
X174254819Y-103456191D01*
X174254819Y-103456191D02*
X174302438Y-103551429D01*
X174302438Y-103551429D02*
X174350057Y-103599048D01*
X174350057Y-103599048D02*
X174492914Y-103694286D01*
X174492914Y-103694286D02*
X174683390Y-103741905D01*
X174683390Y-103741905D02*
X175064342Y-103741905D01*
X175064342Y-103741905D02*
X175159580Y-103694286D01*
X175159580Y-103694286D02*
X175207200Y-103646667D01*
X175207200Y-103646667D02*
X175254819Y-103551429D01*
X175254819Y-103551429D02*
X175254819Y-103360953D01*
X175254819Y-103360953D02*
X175207200Y-103265715D01*
X175207200Y-103265715D02*
X175159580Y-103218096D01*
X175159580Y-103218096D02*
X175064342Y-103170477D01*
X175064342Y-103170477D02*
X174826247Y-103170477D01*
X174826247Y-103170477D02*
X174731009Y-103218096D01*
X174731009Y-103218096D02*
X174683390Y-103265715D01*
X174683390Y-103265715D02*
X174635771Y-103360953D01*
X174635771Y-103360953D02*
X174635771Y-103551429D01*
X174635771Y-103551429D02*
X174683390Y-103646667D01*
X174683390Y-103646667D02*
X174731009Y-103694286D01*
X174731009Y-103694286D02*
X174826247Y-103741905D01*
X174254819Y-102265715D02*
X174254819Y-102741905D01*
X174254819Y-102741905D02*
X174731009Y-102789524D01*
X174731009Y-102789524D02*
X174683390Y-102741905D01*
X174683390Y-102741905D02*
X174635771Y-102646667D01*
X174635771Y-102646667D02*
X174635771Y-102408572D01*
X174635771Y-102408572D02*
X174683390Y-102313334D01*
X174683390Y-102313334D02*
X174731009Y-102265715D01*
X174731009Y-102265715D02*
X174826247Y-102218096D01*
X174826247Y-102218096D02*
X175064342Y-102218096D01*
X175064342Y-102218096D02*
X175159580Y-102265715D01*
X175159580Y-102265715D02*
X175207200Y-102313334D01*
X175207200Y-102313334D02*
X175254819Y-102408572D01*
X175254819Y-102408572D02*
X175254819Y-102646667D01*
X175254819Y-102646667D02*
X175207200Y-102741905D01*
X175207200Y-102741905D02*
X175159580Y-102789524D01*
X156980952Y-128659580D02*
X156933333Y-128707200D01*
X156933333Y-128707200D02*
X156790476Y-128754819D01*
X156790476Y-128754819D02*
X156695238Y-128754819D01*
X156695238Y-128754819D02*
X156552381Y-128707200D01*
X156552381Y-128707200D02*
X156457143Y-128611961D01*
X156457143Y-128611961D02*
X156409524Y-128516723D01*
X156409524Y-128516723D02*
X156361905Y-128326247D01*
X156361905Y-128326247D02*
X156361905Y-128183390D01*
X156361905Y-128183390D02*
X156409524Y-127992914D01*
X156409524Y-127992914D02*
X156457143Y-127897676D01*
X156457143Y-127897676D02*
X156552381Y-127802438D01*
X156552381Y-127802438D02*
X156695238Y-127754819D01*
X156695238Y-127754819D02*
X156790476Y-127754819D01*
X156790476Y-127754819D02*
X156933333Y-127802438D01*
X156933333Y-127802438D02*
X156980952Y-127850057D01*
X157933333Y-128754819D02*
X157361905Y-128754819D01*
X157647619Y-128754819D02*
X157647619Y-127754819D01*
X157647619Y-127754819D02*
X157552381Y-127897676D01*
X157552381Y-127897676D02*
X157457143Y-127992914D01*
X157457143Y-127992914D02*
X157361905Y-128040533D01*
X158409524Y-128754819D02*
X158600000Y-128754819D01*
X158600000Y-128754819D02*
X158695238Y-128707200D01*
X158695238Y-128707200D02*
X158742857Y-128659580D01*
X158742857Y-128659580D02*
X158838095Y-128516723D01*
X158838095Y-128516723D02*
X158885714Y-128326247D01*
X158885714Y-128326247D02*
X158885714Y-127945295D01*
X158885714Y-127945295D02*
X158838095Y-127850057D01*
X158838095Y-127850057D02*
X158790476Y-127802438D01*
X158790476Y-127802438D02*
X158695238Y-127754819D01*
X158695238Y-127754819D02*
X158504762Y-127754819D01*
X158504762Y-127754819D02*
X158409524Y-127802438D01*
X158409524Y-127802438D02*
X158361905Y-127850057D01*
X158361905Y-127850057D02*
X158314286Y-127945295D01*
X158314286Y-127945295D02*
X158314286Y-128183390D01*
X158314286Y-128183390D02*
X158361905Y-128278628D01*
X158361905Y-128278628D02*
X158409524Y-128326247D01*
X158409524Y-128326247D02*
X158504762Y-128373866D01*
X158504762Y-128373866D02*
X158695238Y-128373866D01*
X158695238Y-128373866D02*
X158790476Y-128326247D01*
X158790476Y-128326247D02*
X158838095Y-128278628D01*
X158838095Y-128278628D02*
X158885714Y-128183390D01*
X159504762Y-127754819D02*
X159600000Y-127754819D01*
X159600000Y-127754819D02*
X159695238Y-127802438D01*
X159695238Y-127802438D02*
X159742857Y-127850057D01*
X159742857Y-127850057D02*
X159790476Y-127945295D01*
X159790476Y-127945295D02*
X159838095Y-128135771D01*
X159838095Y-128135771D02*
X159838095Y-128373866D01*
X159838095Y-128373866D02*
X159790476Y-128564342D01*
X159790476Y-128564342D02*
X159742857Y-128659580D01*
X159742857Y-128659580D02*
X159695238Y-128707200D01*
X159695238Y-128707200D02*
X159600000Y-128754819D01*
X159600000Y-128754819D02*
X159504762Y-128754819D01*
X159504762Y-128754819D02*
X159409524Y-128707200D01*
X159409524Y-128707200D02*
X159361905Y-128659580D01*
X159361905Y-128659580D02*
X159314286Y-128564342D01*
X159314286Y-128564342D02*
X159266667Y-128373866D01*
X159266667Y-128373866D02*
X159266667Y-128135771D01*
X159266667Y-128135771D02*
X159314286Y-127945295D01*
X159314286Y-127945295D02*
X159361905Y-127850057D01*
X159361905Y-127850057D02*
X159409524Y-127802438D01*
X159409524Y-127802438D02*
X159504762Y-127754819D01*
X146280952Y-127842730D02*
X145947619Y-127366539D01*
X145709524Y-127842730D02*
X145709524Y-126842730D01*
X145709524Y-126842730D02*
X146090476Y-126842730D01*
X146090476Y-126842730D02*
X146185714Y-126890349D01*
X146185714Y-126890349D02*
X146233333Y-126937968D01*
X146233333Y-126937968D02*
X146280952Y-127033206D01*
X146280952Y-127033206D02*
X146280952Y-127176063D01*
X146280952Y-127176063D02*
X146233333Y-127271301D01*
X146233333Y-127271301D02*
X146185714Y-127318920D01*
X146185714Y-127318920D02*
X146090476Y-127366539D01*
X146090476Y-127366539D02*
X145709524Y-127366539D01*
X147233333Y-127842730D02*
X146661905Y-127842730D01*
X146947619Y-127842730D02*
X146947619Y-126842730D01*
X146947619Y-126842730D02*
X146852381Y-126985587D01*
X146852381Y-126985587D02*
X146757143Y-127080825D01*
X146757143Y-127080825D02*
X146661905Y-127128444D01*
X147852381Y-126842730D02*
X147947619Y-126842730D01*
X147947619Y-126842730D02*
X148042857Y-126890349D01*
X148042857Y-126890349D02*
X148090476Y-126937968D01*
X148090476Y-126937968D02*
X148138095Y-127033206D01*
X148138095Y-127033206D02*
X148185714Y-127223682D01*
X148185714Y-127223682D02*
X148185714Y-127461777D01*
X148185714Y-127461777D02*
X148138095Y-127652253D01*
X148138095Y-127652253D02*
X148090476Y-127747491D01*
X148090476Y-127747491D02*
X148042857Y-127795111D01*
X148042857Y-127795111D02*
X147947619Y-127842730D01*
X147947619Y-127842730D02*
X147852381Y-127842730D01*
X147852381Y-127842730D02*
X147757143Y-127795111D01*
X147757143Y-127795111D02*
X147709524Y-127747491D01*
X147709524Y-127747491D02*
X147661905Y-127652253D01*
X147661905Y-127652253D02*
X147614286Y-127461777D01*
X147614286Y-127461777D02*
X147614286Y-127223682D01*
X147614286Y-127223682D02*
X147661905Y-127033206D01*
X147661905Y-127033206D02*
X147709524Y-126937968D01*
X147709524Y-126937968D02*
X147757143Y-126890349D01*
X147757143Y-126890349D02*
X147852381Y-126842730D01*
X148661905Y-127842730D02*
X148852381Y-127842730D01*
X148852381Y-127842730D02*
X148947619Y-127795111D01*
X148947619Y-127795111D02*
X148995238Y-127747491D01*
X148995238Y-127747491D02*
X149090476Y-127604634D01*
X149090476Y-127604634D02*
X149138095Y-127414158D01*
X149138095Y-127414158D02*
X149138095Y-127033206D01*
X149138095Y-127033206D02*
X149090476Y-126937968D01*
X149090476Y-126937968D02*
X149042857Y-126890349D01*
X149042857Y-126890349D02*
X148947619Y-126842730D01*
X148947619Y-126842730D02*
X148757143Y-126842730D01*
X148757143Y-126842730D02*
X148661905Y-126890349D01*
X148661905Y-126890349D02*
X148614286Y-126937968D01*
X148614286Y-126937968D02*
X148566667Y-127033206D01*
X148566667Y-127033206D02*
X148566667Y-127271301D01*
X148566667Y-127271301D02*
X148614286Y-127366539D01*
X148614286Y-127366539D02*
X148661905Y-127414158D01*
X148661905Y-127414158D02*
X148757143Y-127461777D01*
X148757143Y-127461777D02*
X148947619Y-127461777D01*
X148947619Y-127461777D02*
X149042857Y-127414158D01*
X149042857Y-127414158D02*
X149090476Y-127366539D01*
X149090476Y-127366539D02*
X149138095Y-127271301D01*
X134361905Y-65854819D02*
X134361905Y-64854819D01*
X134361905Y-64854819D02*
X134600000Y-64854819D01*
X134600000Y-64854819D02*
X134742857Y-64902438D01*
X134742857Y-64902438D02*
X134838095Y-64997676D01*
X134838095Y-64997676D02*
X134885714Y-65092914D01*
X134885714Y-65092914D02*
X134933333Y-65283390D01*
X134933333Y-65283390D02*
X134933333Y-65426247D01*
X134933333Y-65426247D02*
X134885714Y-65616723D01*
X134885714Y-65616723D02*
X134838095Y-65711961D01*
X134838095Y-65711961D02*
X134742857Y-65807200D01*
X134742857Y-65807200D02*
X134600000Y-65854819D01*
X134600000Y-65854819D02*
X134361905Y-65854819D01*
X135885714Y-65854819D02*
X135314286Y-65854819D01*
X135600000Y-65854819D02*
X135600000Y-64854819D01*
X135600000Y-64854819D02*
X135504762Y-64997676D01*
X135504762Y-64997676D02*
X135409524Y-65092914D01*
X135409524Y-65092914D02*
X135314286Y-65140533D01*
X135933333Y-73219580D02*
X135885714Y-73267200D01*
X135885714Y-73267200D02*
X135742857Y-73314819D01*
X135742857Y-73314819D02*
X135647619Y-73314819D01*
X135647619Y-73314819D02*
X135504762Y-73267200D01*
X135504762Y-73267200D02*
X135409524Y-73171961D01*
X135409524Y-73171961D02*
X135361905Y-73076723D01*
X135361905Y-73076723D02*
X135314286Y-72886247D01*
X135314286Y-72886247D02*
X135314286Y-72743390D01*
X135314286Y-72743390D02*
X135361905Y-72552914D01*
X135361905Y-72552914D02*
X135409524Y-72457676D01*
X135409524Y-72457676D02*
X135504762Y-72362438D01*
X135504762Y-72362438D02*
X135647619Y-72314819D01*
X135647619Y-72314819D02*
X135742857Y-72314819D01*
X135742857Y-72314819D02*
X135885714Y-72362438D01*
X135885714Y-72362438D02*
X135933333Y-72410057D01*
X136885714Y-73314819D02*
X136314286Y-73314819D01*
X136600000Y-73314819D02*
X136600000Y-72314819D01*
X136600000Y-72314819D02*
X136504762Y-72457676D01*
X136504762Y-72457676D02*
X136409524Y-72552914D01*
X136409524Y-72552914D02*
X136314286Y-72600533D01*
X112638095Y-63204819D02*
X112638095Y-62204819D01*
X112638095Y-62681009D02*
X113209523Y-62681009D01*
X113209523Y-63204819D02*
X113209523Y-62204819D01*
X114209523Y-63204819D02*
X113638095Y-63204819D01*
X113923809Y-63204819D02*
X113923809Y-62204819D01*
X113923809Y-62204819D02*
X113828571Y-62347676D01*
X113828571Y-62347676D02*
X113733333Y-62442914D01*
X113733333Y-62442914D02*
X113638095Y-62490533D01*
X131584819Y-93341666D02*
X131108628Y-93674999D01*
X131584819Y-93913094D02*
X130584819Y-93913094D01*
X130584819Y-93913094D02*
X130584819Y-93532142D01*
X130584819Y-93532142D02*
X130632438Y-93436904D01*
X130632438Y-93436904D02*
X130680057Y-93389285D01*
X130680057Y-93389285D02*
X130775295Y-93341666D01*
X130775295Y-93341666D02*
X130918152Y-93341666D01*
X130918152Y-93341666D02*
X131013390Y-93389285D01*
X131013390Y-93389285D02*
X131061009Y-93436904D01*
X131061009Y-93436904D02*
X131108628Y-93532142D01*
X131108628Y-93532142D02*
X131108628Y-93913094D01*
X130584819Y-93008332D02*
X130584819Y-92341666D01*
X130584819Y-92341666D02*
X131584819Y-92770237D01*
D11*
X130504318Y-112423332D02*
X131411461Y-112423332D01*
X131411461Y-112423332D02*
X131592889Y-112483809D01*
X131592889Y-112483809D02*
X131713842Y-112604761D01*
X131713842Y-112604761D02*
X131774318Y-112786190D01*
X131774318Y-112786190D02*
X131774318Y-112907142D01*
X130504318Y-111213809D02*
X130504318Y-111818571D01*
X130504318Y-111818571D02*
X131109080Y-111879047D01*
X131109080Y-111879047D02*
X131048603Y-111818571D01*
X131048603Y-111818571D02*
X130988127Y-111697618D01*
X130988127Y-111697618D02*
X130988127Y-111395237D01*
X130988127Y-111395237D02*
X131048603Y-111274285D01*
X131048603Y-111274285D02*
X131109080Y-111213809D01*
X131109080Y-111213809D02*
X131230032Y-111153332D01*
X131230032Y-111153332D02*
X131532413Y-111153332D01*
X131532413Y-111153332D02*
X131653365Y-111213809D01*
X131653365Y-111213809D02*
X131713842Y-111274285D01*
X131713842Y-111274285D02*
X131774318Y-111395237D01*
X131774318Y-111395237D02*
X131774318Y-111697618D01*
X131774318Y-111697618D02*
X131713842Y-111818571D01*
X131713842Y-111818571D02*
X131653365Y-111879047D01*
D10*
X156938453Y-134759580D02*
X156890834Y-134807200D01*
X156890834Y-134807200D02*
X156747977Y-134854819D01*
X156747977Y-134854819D02*
X156652739Y-134854819D01*
X156652739Y-134854819D02*
X156509882Y-134807200D01*
X156509882Y-134807200D02*
X156414644Y-134711961D01*
X156414644Y-134711961D02*
X156367025Y-134616723D01*
X156367025Y-134616723D02*
X156319406Y-134426247D01*
X156319406Y-134426247D02*
X156319406Y-134283390D01*
X156319406Y-134283390D02*
X156367025Y-134092914D01*
X156367025Y-134092914D02*
X156414644Y-133997676D01*
X156414644Y-133997676D02*
X156509882Y-133902438D01*
X156509882Y-133902438D02*
X156652739Y-133854819D01*
X156652739Y-133854819D02*
X156747977Y-133854819D01*
X156747977Y-133854819D02*
X156890834Y-133902438D01*
X156890834Y-133902438D02*
X156938453Y-133950057D01*
X157890834Y-134854819D02*
X157319406Y-134854819D01*
X157605120Y-134854819D02*
X157605120Y-133854819D01*
X157605120Y-133854819D02*
X157509882Y-133997676D01*
X157509882Y-133997676D02*
X157414644Y-134092914D01*
X157414644Y-134092914D02*
X157319406Y-134140533D01*
X158462263Y-134283390D02*
X158367025Y-134235771D01*
X158367025Y-134235771D02*
X158319406Y-134188152D01*
X158319406Y-134188152D02*
X158271787Y-134092914D01*
X158271787Y-134092914D02*
X158271787Y-134045295D01*
X158271787Y-134045295D02*
X158319406Y-133950057D01*
X158319406Y-133950057D02*
X158367025Y-133902438D01*
X158367025Y-133902438D02*
X158462263Y-133854819D01*
X158462263Y-133854819D02*
X158652739Y-133854819D01*
X158652739Y-133854819D02*
X158747977Y-133902438D01*
X158747977Y-133902438D02*
X158795596Y-133950057D01*
X158795596Y-133950057D02*
X158843215Y-134045295D01*
X158843215Y-134045295D02*
X158843215Y-134092914D01*
X158843215Y-134092914D02*
X158795596Y-134188152D01*
X158795596Y-134188152D02*
X158747977Y-134235771D01*
X158747977Y-134235771D02*
X158652739Y-134283390D01*
X158652739Y-134283390D02*
X158462263Y-134283390D01*
X158462263Y-134283390D02*
X158367025Y-134331009D01*
X158367025Y-134331009D02*
X158319406Y-134378628D01*
X158319406Y-134378628D02*
X158271787Y-134473866D01*
X158271787Y-134473866D02*
X158271787Y-134664342D01*
X158271787Y-134664342D02*
X158319406Y-134759580D01*
X158319406Y-134759580D02*
X158367025Y-134807200D01*
X158367025Y-134807200D02*
X158462263Y-134854819D01*
X158462263Y-134854819D02*
X158652739Y-134854819D01*
X158652739Y-134854819D02*
X158747977Y-134807200D01*
X158747977Y-134807200D02*
X158795596Y-134759580D01*
X158795596Y-134759580D02*
X158843215Y-134664342D01*
X158843215Y-134664342D02*
X158843215Y-134473866D01*
X158843215Y-134473866D02*
X158795596Y-134378628D01*
X158795596Y-134378628D02*
X158747977Y-134331009D01*
X158747977Y-134331009D02*
X158652739Y-134283390D01*
X159700358Y-133854819D02*
X159509882Y-133854819D01*
X159509882Y-133854819D02*
X159414644Y-133902438D01*
X159414644Y-133902438D02*
X159367025Y-133950057D01*
X159367025Y-133950057D02*
X159271787Y-134092914D01*
X159271787Y-134092914D02*
X159224168Y-134283390D01*
X159224168Y-134283390D02*
X159224168Y-134664342D01*
X159224168Y-134664342D02*
X159271787Y-134759580D01*
X159271787Y-134759580D02*
X159319406Y-134807200D01*
X159319406Y-134807200D02*
X159414644Y-134854819D01*
X159414644Y-134854819D02*
X159605120Y-134854819D01*
X159605120Y-134854819D02*
X159700358Y-134807200D01*
X159700358Y-134807200D02*
X159747977Y-134759580D01*
X159747977Y-134759580D02*
X159795596Y-134664342D01*
X159795596Y-134664342D02*
X159795596Y-134426247D01*
X159795596Y-134426247D02*
X159747977Y-134331009D01*
X159747977Y-134331009D02*
X159700358Y-134283390D01*
X159700358Y-134283390D02*
X159605120Y-134235771D01*
X159605120Y-134235771D02*
X159414644Y-134235771D01*
X159414644Y-134235771D02*
X159319406Y-134283390D01*
X159319406Y-134283390D02*
X159271787Y-134331009D01*
X159271787Y-134331009D02*
X159224168Y-134426247D01*
X123361009Y-97673333D02*
X123361009Y-98006666D01*
X123884819Y-98006666D02*
X122884819Y-98006666D01*
X122884819Y-98006666D02*
X122884819Y-97530476D01*
X123361009Y-96816190D02*
X123408628Y-96673333D01*
X123408628Y-96673333D02*
X123456247Y-96625714D01*
X123456247Y-96625714D02*
X123551485Y-96578095D01*
X123551485Y-96578095D02*
X123694342Y-96578095D01*
X123694342Y-96578095D02*
X123789580Y-96625714D01*
X123789580Y-96625714D02*
X123837200Y-96673333D01*
X123837200Y-96673333D02*
X123884819Y-96768571D01*
X123884819Y-96768571D02*
X123884819Y-97149523D01*
X123884819Y-97149523D02*
X122884819Y-97149523D01*
X122884819Y-97149523D02*
X122884819Y-96816190D01*
X122884819Y-96816190D02*
X122932438Y-96720952D01*
X122932438Y-96720952D02*
X122980057Y-96673333D01*
X122980057Y-96673333D02*
X123075295Y-96625714D01*
X123075295Y-96625714D02*
X123170533Y-96625714D01*
X123170533Y-96625714D02*
X123265771Y-96673333D01*
X123265771Y-96673333D02*
X123313390Y-96720952D01*
X123313390Y-96720952D02*
X123361009Y-96816190D01*
X123361009Y-96816190D02*
X123361009Y-97149523D01*
X123884819Y-95625714D02*
X123884819Y-96197142D01*
X123884819Y-95911428D02*
X122884819Y-95911428D01*
X122884819Y-95911428D02*
X123027676Y-96006666D01*
X123027676Y-96006666D02*
X123122914Y-96101904D01*
X123122914Y-96101904D02*
X123170533Y-96197142D01*
X129219048Y-94098628D02*
X129219048Y-94574819D01*
X128952381Y-93574819D02*
X129219048Y-94098628D01*
X129219048Y-94098628D02*
X129485714Y-93574819D01*
X130171428Y-94574819D02*
X129714285Y-94574819D01*
X129942857Y-94574819D02*
X129942857Y-93574819D01*
X129942857Y-93574819D02*
X129866666Y-93717676D01*
X129866666Y-93717676D02*
X129790476Y-93812914D01*
X129790476Y-93812914D02*
X129714285Y-93860533D01*
X146680952Y-130612730D02*
X146347619Y-130136539D01*
X146109524Y-130612730D02*
X146109524Y-129612730D01*
X146109524Y-129612730D02*
X146490476Y-129612730D01*
X146490476Y-129612730D02*
X146585714Y-129660349D01*
X146585714Y-129660349D02*
X146633333Y-129707968D01*
X146633333Y-129707968D02*
X146680952Y-129803206D01*
X146680952Y-129803206D02*
X146680952Y-129946063D01*
X146680952Y-129946063D02*
X146633333Y-130041301D01*
X146633333Y-130041301D02*
X146585714Y-130088920D01*
X146585714Y-130088920D02*
X146490476Y-130136539D01*
X146490476Y-130136539D02*
X146109524Y-130136539D01*
X147633333Y-130612730D02*
X147061905Y-130612730D01*
X147347619Y-130612730D02*
X147347619Y-129612730D01*
X147347619Y-129612730D02*
X147252381Y-129755587D01*
X147252381Y-129755587D02*
X147157143Y-129850825D01*
X147157143Y-129850825D02*
X147061905Y-129898444D01*
X148014286Y-129707968D02*
X148061905Y-129660349D01*
X148061905Y-129660349D02*
X148157143Y-129612730D01*
X148157143Y-129612730D02*
X148395238Y-129612730D01*
X148395238Y-129612730D02*
X148490476Y-129660349D01*
X148490476Y-129660349D02*
X148538095Y-129707968D01*
X148538095Y-129707968D02*
X148585714Y-129803206D01*
X148585714Y-129803206D02*
X148585714Y-129898444D01*
X148585714Y-129898444D02*
X148538095Y-130041301D01*
X148538095Y-130041301D02*
X147966667Y-130612730D01*
X147966667Y-130612730D02*
X148585714Y-130612730D01*
X149538095Y-130612730D02*
X148966667Y-130612730D01*
X149252381Y-130612730D02*
X149252381Y-129612730D01*
X149252381Y-129612730D02*
X149157143Y-129755587D01*
X149157143Y-129755587D02*
X149061905Y-129850825D01*
X149061905Y-129850825D02*
X148966667Y-129898444D01*
X179992926Y-103377667D02*
X181421497Y-103377667D01*
X181421497Y-103377667D02*
X181707211Y-103472906D01*
X181707211Y-103472906D02*
X181897688Y-103663382D01*
X181897688Y-103663382D02*
X181992926Y-103949096D01*
X181992926Y-103949096D02*
X181992926Y-104139572D01*
X180659592Y-101568143D02*
X181992926Y-101568143D01*
X179897688Y-102044334D02*
X181326259Y-102520524D01*
X181326259Y-102520524D02*
X181326259Y-101282429D01*
X148178249Y-75182730D02*
X147844916Y-74706539D01*
X147606821Y-75182730D02*
X147606821Y-74182730D01*
X147606821Y-74182730D02*
X147987773Y-74182730D01*
X147987773Y-74182730D02*
X148083011Y-74230349D01*
X148083011Y-74230349D02*
X148130630Y-74277968D01*
X148130630Y-74277968D02*
X148178249Y-74373206D01*
X148178249Y-74373206D02*
X148178249Y-74516063D01*
X148178249Y-74516063D02*
X148130630Y-74611301D01*
X148130630Y-74611301D02*
X148083011Y-74658920D01*
X148083011Y-74658920D02*
X147987773Y-74706539D01*
X147987773Y-74706539D02*
X147606821Y-74706539D01*
X148749678Y-74611301D02*
X148654440Y-74563682D01*
X148654440Y-74563682D02*
X148606821Y-74516063D01*
X148606821Y-74516063D02*
X148559202Y-74420825D01*
X148559202Y-74420825D02*
X148559202Y-74373206D01*
X148559202Y-74373206D02*
X148606821Y-74277968D01*
X148606821Y-74277968D02*
X148654440Y-74230349D01*
X148654440Y-74230349D02*
X148749678Y-74182730D01*
X148749678Y-74182730D02*
X148940154Y-74182730D01*
X148940154Y-74182730D02*
X149035392Y-74230349D01*
X149035392Y-74230349D02*
X149083011Y-74277968D01*
X149083011Y-74277968D02*
X149130630Y-74373206D01*
X149130630Y-74373206D02*
X149130630Y-74420825D01*
X149130630Y-74420825D02*
X149083011Y-74516063D01*
X149083011Y-74516063D02*
X149035392Y-74563682D01*
X149035392Y-74563682D02*
X148940154Y-74611301D01*
X148940154Y-74611301D02*
X148749678Y-74611301D01*
X148749678Y-74611301D02*
X148654440Y-74658920D01*
X148654440Y-74658920D02*
X148606821Y-74706539D01*
X148606821Y-74706539D02*
X148559202Y-74801777D01*
X148559202Y-74801777D02*
X148559202Y-74992253D01*
X148559202Y-74992253D02*
X148606821Y-75087491D01*
X148606821Y-75087491D02*
X148654440Y-75135111D01*
X148654440Y-75135111D02*
X148749678Y-75182730D01*
X148749678Y-75182730D02*
X148940154Y-75182730D01*
X148940154Y-75182730D02*
X149035392Y-75135111D01*
X149035392Y-75135111D02*
X149083011Y-75087491D01*
X149083011Y-75087491D02*
X149130630Y-74992253D01*
X149130630Y-74992253D02*
X149130630Y-74801777D01*
X149130630Y-74801777D02*
X149083011Y-74706539D01*
X149083011Y-74706539D02*
X149035392Y-74658920D01*
X149035392Y-74658920D02*
X148940154Y-74611301D01*
X150035392Y-74182730D02*
X149559202Y-74182730D01*
X149559202Y-74182730D02*
X149511583Y-74658920D01*
X149511583Y-74658920D02*
X149559202Y-74611301D01*
X149559202Y-74611301D02*
X149654440Y-74563682D01*
X149654440Y-74563682D02*
X149892535Y-74563682D01*
X149892535Y-74563682D02*
X149987773Y-74611301D01*
X149987773Y-74611301D02*
X150035392Y-74658920D01*
X150035392Y-74658920D02*
X150083011Y-74754158D01*
X150083011Y-74754158D02*
X150083011Y-74992253D01*
X150083011Y-74992253D02*
X150035392Y-75087491D01*
X150035392Y-75087491D02*
X149987773Y-75135111D01*
X149987773Y-75135111D02*
X149892535Y-75182730D01*
X149892535Y-75182730D02*
X149654440Y-75182730D01*
X149654440Y-75182730D02*
X149559202Y-75135111D01*
X149559202Y-75135111D02*
X149511583Y-75087491D01*
X174471906Y-82364819D02*
X175043334Y-82364819D01*
X174757620Y-83364819D02*
X174757620Y-82364819D01*
X175376668Y-83364819D02*
X175376668Y-82364819D01*
X175376668Y-82364819D02*
X175757620Y-82364819D01*
X175757620Y-82364819D02*
X175852858Y-82412438D01*
X175852858Y-82412438D02*
X175900477Y-82460057D01*
X175900477Y-82460057D02*
X175948096Y-82555295D01*
X175948096Y-82555295D02*
X175948096Y-82698152D01*
X175948096Y-82698152D02*
X175900477Y-82793390D01*
X175900477Y-82793390D02*
X175852858Y-82841009D01*
X175852858Y-82841009D02*
X175757620Y-82888628D01*
X175757620Y-82888628D02*
X175376668Y-82888628D01*
X176900477Y-83364819D02*
X176329049Y-83364819D01*
X176614763Y-83364819D02*
X176614763Y-82364819D01*
X176614763Y-82364819D02*
X176519525Y-82507676D01*
X176519525Y-82507676D02*
X176424287Y-82602914D01*
X176424287Y-82602914D02*
X176329049Y-82650533D01*
X177233811Y-82364819D02*
X177852858Y-82364819D01*
X177852858Y-82364819D02*
X177519525Y-82745771D01*
X177519525Y-82745771D02*
X177662382Y-82745771D01*
X177662382Y-82745771D02*
X177757620Y-82793390D01*
X177757620Y-82793390D02*
X177805239Y-82841009D01*
X177805239Y-82841009D02*
X177852858Y-82936247D01*
X177852858Y-82936247D02*
X177852858Y-83174342D01*
X177852858Y-83174342D02*
X177805239Y-83269580D01*
X177805239Y-83269580D02*
X177757620Y-83317200D01*
X177757620Y-83317200D02*
X177662382Y-83364819D01*
X177662382Y-83364819D02*
X177376668Y-83364819D01*
X177376668Y-83364819D02*
X177281430Y-83317200D01*
X177281430Y-83317200D02*
X177233811Y-83269580D01*
X134154819Y-94466666D02*
X133678628Y-94799999D01*
X134154819Y-95038094D02*
X133154819Y-95038094D01*
X133154819Y-95038094D02*
X133154819Y-94657142D01*
X133154819Y-94657142D02*
X133202438Y-94561904D01*
X133202438Y-94561904D02*
X133250057Y-94514285D01*
X133250057Y-94514285D02*
X133345295Y-94466666D01*
X133345295Y-94466666D02*
X133488152Y-94466666D01*
X133488152Y-94466666D02*
X133583390Y-94514285D01*
X133583390Y-94514285D02*
X133631009Y-94561904D01*
X133631009Y-94561904D02*
X133678628Y-94657142D01*
X133678628Y-94657142D02*
X133678628Y-95038094D01*
X134154819Y-93990475D02*
X134154819Y-93799999D01*
X134154819Y-93799999D02*
X134107200Y-93704761D01*
X134107200Y-93704761D02*
X134059580Y-93657142D01*
X134059580Y-93657142D02*
X133916723Y-93561904D01*
X133916723Y-93561904D02*
X133726247Y-93514285D01*
X133726247Y-93514285D02*
X133345295Y-93514285D01*
X133345295Y-93514285D02*
X133250057Y-93561904D01*
X133250057Y-93561904D02*
X133202438Y-93609523D01*
X133202438Y-93609523D02*
X133154819Y-93704761D01*
X133154819Y-93704761D02*
X133154819Y-93895237D01*
X133154819Y-93895237D02*
X133202438Y-93990475D01*
X133202438Y-93990475D02*
X133250057Y-94038094D01*
X133250057Y-94038094D02*
X133345295Y-94085713D01*
X133345295Y-94085713D02*
X133583390Y-94085713D01*
X133583390Y-94085713D02*
X133678628Y-94038094D01*
X133678628Y-94038094D02*
X133726247Y-93990475D01*
X133726247Y-93990475D02*
X133773866Y-93895237D01*
X133773866Y-93895237D02*
X133773866Y-93704761D01*
X133773866Y-93704761D02*
X133726247Y-93609523D01*
X133726247Y-93609523D02*
X133678628Y-93561904D01*
X133678628Y-93561904D02*
X133583390Y-93514285D01*
X163387142Y-98959580D02*
X163339523Y-99007200D01*
X163339523Y-99007200D02*
X163196666Y-99054819D01*
X163196666Y-99054819D02*
X163101428Y-99054819D01*
X163101428Y-99054819D02*
X162958571Y-99007200D01*
X162958571Y-99007200D02*
X162863333Y-98911961D01*
X162863333Y-98911961D02*
X162815714Y-98816723D01*
X162815714Y-98816723D02*
X162768095Y-98626247D01*
X162768095Y-98626247D02*
X162768095Y-98483390D01*
X162768095Y-98483390D02*
X162815714Y-98292914D01*
X162815714Y-98292914D02*
X162863333Y-98197676D01*
X162863333Y-98197676D02*
X162958571Y-98102438D01*
X162958571Y-98102438D02*
X163101428Y-98054819D01*
X163101428Y-98054819D02*
X163196666Y-98054819D01*
X163196666Y-98054819D02*
X163339523Y-98102438D01*
X163339523Y-98102438D02*
X163387142Y-98150057D01*
X164339523Y-99054819D02*
X163768095Y-99054819D01*
X164053809Y-99054819D02*
X164053809Y-98054819D01*
X164053809Y-98054819D02*
X163958571Y-98197676D01*
X163958571Y-98197676D02*
X163863333Y-98292914D01*
X163863333Y-98292914D02*
X163768095Y-98340533D01*
X164815714Y-99054819D02*
X165006190Y-99054819D01*
X165006190Y-99054819D02*
X165101428Y-99007200D01*
X165101428Y-99007200D02*
X165149047Y-98959580D01*
X165149047Y-98959580D02*
X165244285Y-98816723D01*
X165244285Y-98816723D02*
X165291904Y-98626247D01*
X165291904Y-98626247D02*
X165291904Y-98245295D01*
X165291904Y-98245295D02*
X165244285Y-98150057D01*
X165244285Y-98150057D02*
X165196666Y-98102438D01*
X165196666Y-98102438D02*
X165101428Y-98054819D01*
X165101428Y-98054819D02*
X164910952Y-98054819D01*
X164910952Y-98054819D02*
X164815714Y-98102438D01*
X164815714Y-98102438D02*
X164768095Y-98150057D01*
X164768095Y-98150057D02*
X164720476Y-98245295D01*
X164720476Y-98245295D02*
X164720476Y-98483390D01*
X164720476Y-98483390D02*
X164768095Y-98578628D01*
X164768095Y-98578628D02*
X164815714Y-98626247D01*
X164815714Y-98626247D02*
X164910952Y-98673866D01*
X164910952Y-98673866D02*
X165101428Y-98673866D01*
X165101428Y-98673866D02*
X165196666Y-98626247D01*
X165196666Y-98626247D02*
X165244285Y-98578628D01*
X165244285Y-98578628D02*
X165291904Y-98483390D01*
X129133095Y-124859819D02*
X129133095Y-125669342D01*
X129133095Y-125669342D02*
X129180714Y-125764580D01*
X129180714Y-125764580D02*
X129228333Y-125812200D01*
X129228333Y-125812200D02*
X129323571Y-125859819D01*
X129323571Y-125859819D02*
X129514047Y-125859819D01*
X129514047Y-125859819D02*
X129609285Y-125812200D01*
X129609285Y-125812200D02*
X129656904Y-125764580D01*
X129656904Y-125764580D02*
X129704523Y-125669342D01*
X129704523Y-125669342D02*
X129704523Y-124859819D01*
X130133095Y-124955057D02*
X130180714Y-124907438D01*
X130180714Y-124907438D02*
X130275952Y-124859819D01*
X130275952Y-124859819D02*
X130514047Y-124859819D01*
X130514047Y-124859819D02*
X130609285Y-124907438D01*
X130609285Y-124907438D02*
X130656904Y-124955057D01*
X130656904Y-124955057D02*
X130704523Y-125050295D01*
X130704523Y-125050295D02*
X130704523Y-125145533D01*
X130704523Y-125145533D02*
X130656904Y-125288390D01*
X130656904Y-125288390D02*
X130085476Y-125859819D01*
X130085476Y-125859819D02*
X130704523Y-125859819D01*
D11*
X125760237Y-72324318D02*
X125760237Y-71054318D01*
X127090714Y-72203365D02*
X127030238Y-72263842D01*
X127030238Y-72263842D02*
X126848809Y-72324318D01*
X126848809Y-72324318D02*
X126727857Y-72324318D01*
X126727857Y-72324318D02*
X126546428Y-72263842D01*
X126546428Y-72263842D02*
X126425476Y-72142889D01*
X126425476Y-72142889D02*
X126364999Y-72021937D01*
X126364999Y-72021937D02*
X126304523Y-71780032D01*
X126304523Y-71780032D02*
X126304523Y-71598603D01*
X126304523Y-71598603D02*
X126364999Y-71356699D01*
X126364999Y-71356699D02*
X126425476Y-71235746D01*
X126425476Y-71235746D02*
X126546428Y-71114794D01*
X126546428Y-71114794D02*
X126727857Y-71054318D01*
X126727857Y-71054318D02*
X126848809Y-71054318D01*
X126848809Y-71054318D02*
X127030238Y-71114794D01*
X127030238Y-71114794D02*
X127090714Y-71175270D01*
X128300238Y-72324318D02*
X127574523Y-72324318D01*
X127937380Y-72324318D02*
X127937380Y-71054318D01*
X127937380Y-71054318D02*
X127816428Y-71235746D01*
X127816428Y-71235746D02*
X127695476Y-71356699D01*
X127695476Y-71356699D02*
X127574523Y-71417175D01*
D10*
X135588990Y-107784577D02*
X135588990Y-107451244D01*
X135065180Y-107451244D02*
X136065180Y-107451244D01*
X136065180Y-107451244D02*
X136065180Y-107927434D01*
X135588990Y-108641720D02*
X135541371Y-108784577D01*
X135541371Y-108784577D02*
X135493752Y-108832196D01*
X135493752Y-108832196D02*
X135398514Y-108879815D01*
X135398514Y-108879815D02*
X135255657Y-108879815D01*
X135255657Y-108879815D02*
X135160419Y-108832196D01*
X135160419Y-108832196D02*
X135112800Y-108784577D01*
X135112800Y-108784577D02*
X135065180Y-108689339D01*
X135065180Y-108689339D02*
X135065180Y-108308387D01*
X135065180Y-108308387D02*
X136065180Y-108308387D01*
X136065180Y-108308387D02*
X136065180Y-108641720D01*
X136065180Y-108641720D02*
X136017561Y-108736958D01*
X136017561Y-108736958D02*
X135969942Y-108784577D01*
X135969942Y-108784577D02*
X135874704Y-108832196D01*
X135874704Y-108832196D02*
X135779466Y-108832196D01*
X135779466Y-108832196D02*
X135684228Y-108784577D01*
X135684228Y-108784577D02*
X135636609Y-108736958D01*
X135636609Y-108736958D02*
X135588990Y-108641720D01*
X135588990Y-108641720D02*
X135588990Y-108308387D01*
X136065180Y-109784577D02*
X136065180Y-109308387D01*
X136065180Y-109308387D02*
X135588990Y-109260768D01*
X135588990Y-109260768D02*
X135636609Y-109308387D01*
X135636609Y-109308387D02*
X135684228Y-109403625D01*
X135684228Y-109403625D02*
X135684228Y-109641720D01*
X135684228Y-109641720D02*
X135636609Y-109736958D01*
X135636609Y-109736958D02*
X135588990Y-109784577D01*
X135588990Y-109784577D02*
X135493752Y-109832196D01*
X135493752Y-109832196D02*
X135255657Y-109832196D01*
X135255657Y-109832196D02*
X135160419Y-109784577D01*
X135160419Y-109784577D02*
X135112800Y-109736958D01*
X135112800Y-109736958D02*
X135065180Y-109641720D01*
X135065180Y-109641720D02*
X135065180Y-109403625D01*
X135065180Y-109403625D02*
X135112800Y-109308387D01*
X135112800Y-109308387D02*
X135160419Y-109260768D01*
X150043331Y-90144819D02*
X149709998Y-89668628D01*
X149471903Y-90144819D02*
X149471903Y-89144819D01*
X149471903Y-89144819D02*
X149852855Y-89144819D01*
X149852855Y-89144819D02*
X149948093Y-89192438D01*
X149948093Y-89192438D02*
X149995712Y-89240057D01*
X149995712Y-89240057D02*
X150043331Y-89335295D01*
X150043331Y-89335295D02*
X150043331Y-89478152D01*
X150043331Y-89478152D02*
X149995712Y-89573390D01*
X149995712Y-89573390D02*
X149948093Y-89621009D01*
X149948093Y-89621009D02*
X149852855Y-89668628D01*
X149852855Y-89668628D02*
X149471903Y-89668628D01*
X150614760Y-89573390D02*
X150519522Y-89525771D01*
X150519522Y-89525771D02*
X150471903Y-89478152D01*
X150471903Y-89478152D02*
X150424284Y-89382914D01*
X150424284Y-89382914D02*
X150424284Y-89335295D01*
X150424284Y-89335295D02*
X150471903Y-89240057D01*
X150471903Y-89240057D02*
X150519522Y-89192438D01*
X150519522Y-89192438D02*
X150614760Y-89144819D01*
X150614760Y-89144819D02*
X150805236Y-89144819D01*
X150805236Y-89144819D02*
X150900474Y-89192438D01*
X150900474Y-89192438D02*
X150948093Y-89240057D01*
X150948093Y-89240057D02*
X150995712Y-89335295D01*
X150995712Y-89335295D02*
X150995712Y-89382914D01*
X150995712Y-89382914D02*
X150948093Y-89478152D01*
X150948093Y-89478152D02*
X150900474Y-89525771D01*
X150900474Y-89525771D02*
X150805236Y-89573390D01*
X150805236Y-89573390D02*
X150614760Y-89573390D01*
X150614760Y-89573390D02*
X150519522Y-89621009D01*
X150519522Y-89621009D02*
X150471903Y-89668628D01*
X150471903Y-89668628D02*
X150424284Y-89763866D01*
X150424284Y-89763866D02*
X150424284Y-89954342D01*
X150424284Y-89954342D02*
X150471903Y-90049580D01*
X150471903Y-90049580D02*
X150519522Y-90097200D01*
X150519522Y-90097200D02*
X150614760Y-90144819D01*
X150614760Y-90144819D02*
X150805236Y-90144819D01*
X150805236Y-90144819D02*
X150900474Y-90097200D01*
X150900474Y-90097200D02*
X150948093Y-90049580D01*
X150948093Y-90049580D02*
X150995712Y-89954342D01*
X150995712Y-89954342D02*
X150995712Y-89763866D01*
X150995712Y-89763866D02*
X150948093Y-89668628D01*
X150948093Y-89668628D02*
X150900474Y-89621009D01*
X150900474Y-89621009D02*
X150805236Y-89573390D01*
X151948093Y-90144819D02*
X151376665Y-90144819D01*
X151662379Y-90144819D02*
X151662379Y-89144819D01*
X151662379Y-89144819D02*
X151567141Y-89287676D01*
X151567141Y-89287676D02*
X151471903Y-89382914D01*
X151471903Y-89382914D02*
X151376665Y-89430533D01*
X159903333Y-119879580D02*
X159855714Y-119927200D01*
X159855714Y-119927200D02*
X159712857Y-119974819D01*
X159712857Y-119974819D02*
X159617619Y-119974819D01*
X159617619Y-119974819D02*
X159474762Y-119927200D01*
X159474762Y-119927200D02*
X159379524Y-119831961D01*
X159379524Y-119831961D02*
X159331905Y-119736723D01*
X159331905Y-119736723D02*
X159284286Y-119546247D01*
X159284286Y-119546247D02*
X159284286Y-119403390D01*
X159284286Y-119403390D02*
X159331905Y-119212914D01*
X159331905Y-119212914D02*
X159379524Y-119117676D01*
X159379524Y-119117676D02*
X159474762Y-119022438D01*
X159474762Y-119022438D02*
X159617619Y-118974819D01*
X159617619Y-118974819D02*
X159712857Y-118974819D01*
X159712857Y-118974819D02*
X159855714Y-119022438D01*
X159855714Y-119022438D02*
X159903333Y-119070057D01*
X160808095Y-118974819D02*
X160331905Y-118974819D01*
X160331905Y-118974819D02*
X160284286Y-119451009D01*
X160284286Y-119451009D02*
X160331905Y-119403390D01*
X160331905Y-119403390D02*
X160427143Y-119355771D01*
X160427143Y-119355771D02*
X160665238Y-119355771D01*
X160665238Y-119355771D02*
X160760476Y-119403390D01*
X160760476Y-119403390D02*
X160808095Y-119451009D01*
X160808095Y-119451009D02*
X160855714Y-119546247D01*
X160855714Y-119546247D02*
X160855714Y-119784342D01*
X160855714Y-119784342D02*
X160808095Y-119879580D01*
X160808095Y-119879580D02*
X160760476Y-119927200D01*
X160760476Y-119927200D02*
X160665238Y-119974819D01*
X160665238Y-119974819D02*
X160427143Y-119974819D01*
X160427143Y-119974819D02*
X160331905Y-119927200D01*
X160331905Y-119927200D02*
X160284286Y-119879580D01*
X174471907Y-113814820D02*
X175043335Y-113814820D01*
X174757621Y-114814820D02*
X174757621Y-113814820D01*
X175376669Y-114814820D02*
X175376669Y-113814820D01*
X175376669Y-113814820D02*
X175757621Y-113814820D01*
X175757621Y-113814820D02*
X175852859Y-113862439D01*
X175852859Y-113862439D02*
X175900478Y-113910058D01*
X175900478Y-113910058D02*
X175948097Y-114005296D01*
X175948097Y-114005296D02*
X175948097Y-114148153D01*
X175948097Y-114148153D02*
X175900478Y-114243391D01*
X175900478Y-114243391D02*
X175852859Y-114291010D01*
X175852859Y-114291010D02*
X175757621Y-114338629D01*
X175757621Y-114338629D02*
X175376669Y-114338629D01*
X176900478Y-114814820D02*
X176329050Y-114814820D01*
X176614764Y-114814820D02*
X176614764Y-113814820D01*
X176614764Y-113814820D02*
X176519526Y-113957677D01*
X176519526Y-113957677D02*
X176424288Y-114052915D01*
X176424288Y-114052915D02*
X176329050Y-114100534D01*
X177233812Y-113814820D02*
X177900478Y-113814820D01*
X177900478Y-113814820D02*
X177471907Y-114814820D01*
X174471906Y-98089820D02*
X175043334Y-98089820D01*
X174757620Y-99089820D02*
X174757620Y-98089820D01*
X175376668Y-99089820D02*
X175376668Y-98089820D01*
X175376668Y-98089820D02*
X175757620Y-98089820D01*
X175757620Y-98089820D02*
X175852858Y-98137439D01*
X175852858Y-98137439D02*
X175900477Y-98185058D01*
X175900477Y-98185058D02*
X175948096Y-98280296D01*
X175948096Y-98280296D02*
X175948096Y-98423153D01*
X175948096Y-98423153D02*
X175900477Y-98518391D01*
X175900477Y-98518391D02*
X175852858Y-98566010D01*
X175852858Y-98566010D02*
X175757620Y-98613629D01*
X175757620Y-98613629D02*
X175376668Y-98613629D01*
X176900477Y-99089820D02*
X176329049Y-99089820D01*
X176614763Y-99089820D02*
X176614763Y-98089820D01*
X176614763Y-98089820D02*
X176519525Y-98232677D01*
X176519525Y-98232677D02*
X176424287Y-98327915D01*
X176424287Y-98327915D02*
X176329049Y-98375534D01*
X177852858Y-99089820D02*
X177281430Y-99089820D01*
X177567144Y-99089820D02*
X177567144Y-98089820D01*
X177567144Y-98089820D02*
X177471906Y-98232677D01*
X177471906Y-98232677D02*
X177376668Y-98327915D01*
X177376668Y-98327915D02*
X177281430Y-98375534D01*
X174844819Y-72672857D02*
X174368628Y-73006190D01*
X174844819Y-73244285D02*
X173844819Y-73244285D01*
X173844819Y-73244285D02*
X173844819Y-72863333D01*
X173844819Y-72863333D02*
X173892438Y-72768095D01*
X173892438Y-72768095D02*
X173940057Y-72720476D01*
X173940057Y-72720476D02*
X174035295Y-72672857D01*
X174035295Y-72672857D02*
X174178152Y-72672857D01*
X174178152Y-72672857D02*
X174273390Y-72720476D01*
X174273390Y-72720476D02*
X174321009Y-72768095D01*
X174321009Y-72768095D02*
X174368628Y-72863333D01*
X174368628Y-72863333D02*
X174368628Y-73244285D01*
X174178152Y-71815714D02*
X174844819Y-71815714D01*
X173797200Y-72053809D02*
X174511485Y-72291904D01*
X174511485Y-72291904D02*
X174511485Y-71672857D01*
X173844819Y-71387142D02*
X173844819Y-70720476D01*
X173844819Y-70720476D02*
X174844819Y-71149047D01*
X143680952Y-112854819D02*
X143347619Y-112378628D01*
X143109524Y-112854819D02*
X143109524Y-111854819D01*
X143109524Y-111854819D02*
X143490476Y-111854819D01*
X143490476Y-111854819D02*
X143585714Y-111902438D01*
X143585714Y-111902438D02*
X143633333Y-111950057D01*
X143633333Y-111950057D02*
X143680952Y-112045295D01*
X143680952Y-112045295D02*
X143680952Y-112188152D01*
X143680952Y-112188152D02*
X143633333Y-112283390D01*
X143633333Y-112283390D02*
X143585714Y-112331009D01*
X143585714Y-112331009D02*
X143490476Y-112378628D01*
X143490476Y-112378628D02*
X143109524Y-112378628D01*
X144633333Y-112854819D02*
X144061905Y-112854819D01*
X144347619Y-112854819D02*
X144347619Y-111854819D01*
X144347619Y-111854819D02*
X144252381Y-111997676D01*
X144252381Y-111997676D02*
X144157143Y-112092914D01*
X144157143Y-112092914D02*
X144061905Y-112140533D01*
X145014286Y-111950057D02*
X145061905Y-111902438D01*
X145061905Y-111902438D02*
X145157143Y-111854819D01*
X145157143Y-111854819D02*
X145395238Y-111854819D01*
X145395238Y-111854819D02*
X145490476Y-111902438D01*
X145490476Y-111902438D02*
X145538095Y-111950057D01*
X145538095Y-111950057D02*
X145585714Y-112045295D01*
X145585714Y-112045295D02*
X145585714Y-112140533D01*
X145585714Y-112140533D02*
X145538095Y-112283390D01*
X145538095Y-112283390D02*
X144966667Y-112854819D01*
X144966667Y-112854819D02*
X145585714Y-112854819D01*
X146204762Y-111854819D02*
X146300000Y-111854819D01*
X146300000Y-111854819D02*
X146395238Y-111902438D01*
X146395238Y-111902438D02*
X146442857Y-111950057D01*
X146442857Y-111950057D02*
X146490476Y-112045295D01*
X146490476Y-112045295D02*
X146538095Y-112235771D01*
X146538095Y-112235771D02*
X146538095Y-112473866D01*
X146538095Y-112473866D02*
X146490476Y-112664342D01*
X146490476Y-112664342D02*
X146442857Y-112759580D01*
X146442857Y-112759580D02*
X146395238Y-112807200D01*
X146395238Y-112807200D02*
X146300000Y-112854819D01*
X146300000Y-112854819D02*
X146204762Y-112854819D01*
X146204762Y-112854819D02*
X146109524Y-112807200D01*
X146109524Y-112807200D02*
X146061905Y-112759580D01*
X146061905Y-112759580D02*
X146014286Y-112664342D01*
X146014286Y-112664342D02*
X145966667Y-112473866D01*
X145966667Y-112473866D02*
X145966667Y-112235771D01*
X145966667Y-112235771D02*
X146014286Y-112045295D01*
X146014286Y-112045295D02*
X146061905Y-111950057D01*
X146061905Y-111950057D02*
X146109524Y-111902438D01*
X146109524Y-111902438D02*
X146204762Y-111854819D01*
X160234820Y-113042857D02*
X159758629Y-113376190D01*
X160234820Y-113614285D02*
X159234820Y-113614285D01*
X159234820Y-113614285D02*
X159234820Y-113233333D01*
X159234820Y-113233333D02*
X159282439Y-113138095D01*
X159282439Y-113138095D02*
X159330058Y-113090476D01*
X159330058Y-113090476D02*
X159425296Y-113042857D01*
X159425296Y-113042857D02*
X159568153Y-113042857D01*
X159568153Y-113042857D02*
X159663391Y-113090476D01*
X159663391Y-113090476D02*
X159711010Y-113138095D01*
X159711010Y-113138095D02*
X159758629Y-113233333D01*
X159758629Y-113233333D02*
X159758629Y-113614285D01*
X159234820Y-112185714D02*
X159234820Y-112376190D01*
X159234820Y-112376190D02*
X159282439Y-112471428D01*
X159282439Y-112471428D02*
X159330058Y-112519047D01*
X159330058Y-112519047D02*
X159472915Y-112614285D01*
X159472915Y-112614285D02*
X159663391Y-112661904D01*
X159663391Y-112661904D02*
X160044343Y-112661904D01*
X160044343Y-112661904D02*
X160139581Y-112614285D01*
X160139581Y-112614285D02*
X160187201Y-112566666D01*
X160187201Y-112566666D02*
X160234820Y-112471428D01*
X160234820Y-112471428D02*
X160234820Y-112280952D01*
X160234820Y-112280952D02*
X160187201Y-112185714D01*
X160187201Y-112185714D02*
X160139581Y-112138095D01*
X160139581Y-112138095D02*
X160044343Y-112090476D01*
X160044343Y-112090476D02*
X159806248Y-112090476D01*
X159806248Y-112090476D02*
X159711010Y-112138095D01*
X159711010Y-112138095D02*
X159663391Y-112185714D01*
X159663391Y-112185714D02*
X159615772Y-112280952D01*
X159615772Y-112280952D02*
X159615772Y-112471428D01*
X159615772Y-112471428D02*
X159663391Y-112566666D01*
X159663391Y-112566666D02*
X159711010Y-112614285D01*
X159711010Y-112614285D02*
X159806248Y-112661904D01*
X159234820Y-111757142D02*
X159234820Y-111138095D01*
X159234820Y-111138095D02*
X159615772Y-111471428D01*
X159615772Y-111471428D02*
X159615772Y-111328571D01*
X159615772Y-111328571D02*
X159663391Y-111233333D01*
X159663391Y-111233333D02*
X159711010Y-111185714D01*
X159711010Y-111185714D02*
X159806248Y-111138095D01*
X159806248Y-111138095D02*
X160044343Y-111138095D01*
X160044343Y-111138095D02*
X160139581Y-111185714D01*
X160139581Y-111185714D02*
X160187201Y-111233333D01*
X160187201Y-111233333D02*
X160234820Y-111328571D01*
X160234820Y-111328571D02*
X160234820Y-111614285D01*
X160234820Y-111614285D02*
X160187201Y-111709523D01*
X160187201Y-111709523D02*
X160139581Y-111757142D01*
X147280952Y-106700641D02*
X146947619Y-106224450D01*
X146709524Y-106700641D02*
X146709524Y-105700641D01*
X146709524Y-105700641D02*
X147090476Y-105700641D01*
X147090476Y-105700641D02*
X147185714Y-105748260D01*
X147185714Y-105748260D02*
X147233333Y-105795879D01*
X147233333Y-105795879D02*
X147280952Y-105891117D01*
X147280952Y-105891117D02*
X147280952Y-106033974D01*
X147280952Y-106033974D02*
X147233333Y-106129212D01*
X147233333Y-106129212D02*
X147185714Y-106176831D01*
X147185714Y-106176831D02*
X147090476Y-106224450D01*
X147090476Y-106224450D02*
X146709524Y-106224450D01*
X148233333Y-106700641D02*
X147661905Y-106700641D01*
X147947619Y-106700641D02*
X147947619Y-105700641D01*
X147947619Y-105700641D02*
X147852381Y-105843498D01*
X147852381Y-105843498D02*
X147757143Y-105938736D01*
X147757143Y-105938736D02*
X147661905Y-105986355D01*
X149185714Y-106700641D02*
X148614286Y-106700641D01*
X148900000Y-106700641D02*
X148900000Y-105700641D01*
X148900000Y-105700641D02*
X148804762Y-105843498D01*
X148804762Y-105843498D02*
X148709524Y-105938736D01*
X148709524Y-105938736D02*
X148614286Y-105986355D01*
X149566667Y-105795879D02*
X149614286Y-105748260D01*
X149614286Y-105748260D02*
X149709524Y-105700641D01*
X149709524Y-105700641D02*
X149947619Y-105700641D01*
X149947619Y-105700641D02*
X150042857Y-105748260D01*
X150042857Y-105748260D02*
X150090476Y-105795879D01*
X150090476Y-105795879D02*
X150138095Y-105891117D01*
X150138095Y-105891117D02*
X150138095Y-105986355D01*
X150138095Y-105986355D02*
X150090476Y-106129212D01*
X150090476Y-106129212D02*
X149519048Y-106700641D01*
X149519048Y-106700641D02*
X150138095Y-106700641D01*
X138443992Y-107784579D02*
X138443992Y-107451246D01*
X137920182Y-107451246D02*
X138920182Y-107451246D01*
X138920182Y-107451246D02*
X138920182Y-107927436D01*
X138443992Y-108641722D02*
X138396373Y-108784579D01*
X138396373Y-108784579D02*
X138348754Y-108832198D01*
X138348754Y-108832198D02*
X138253516Y-108879817D01*
X138253516Y-108879817D02*
X138110659Y-108879817D01*
X138110659Y-108879817D02*
X138015421Y-108832198D01*
X138015421Y-108832198D02*
X137967802Y-108784579D01*
X137967802Y-108784579D02*
X137920182Y-108689341D01*
X137920182Y-108689341D02*
X137920182Y-108308389D01*
X137920182Y-108308389D02*
X138920182Y-108308389D01*
X138920182Y-108308389D02*
X138920182Y-108641722D01*
X138920182Y-108641722D02*
X138872563Y-108736960D01*
X138872563Y-108736960D02*
X138824944Y-108784579D01*
X138824944Y-108784579D02*
X138729706Y-108832198D01*
X138729706Y-108832198D02*
X138634468Y-108832198D01*
X138634468Y-108832198D02*
X138539230Y-108784579D01*
X138539230Y-108784579D02*
X138491611Y-108736960D01*
X138491611Y-108736960D02*
X138443992Y-108641722D01*
X138443992Y-108641722D02*
X138443992Y-108308389D01*
X138920182Y-109736960D02*
X138920182Y-109546484D01*
X138920182Y-109546484D02*
X138872563Y-109451246D01*
X138872563Y-109451246D02*
X138824944Y-109403627D01*
X138824944Y-109403627D02*
X138682087Y-109308389D01*
X138682087Y-109308389D02*
X138491611Y-109260770D01*
X138491611Y-109260770D02*
X138110659Y-109260770D01*
X138110659Y-109260770D02*
X138015421Y-109308389D01*
X138015421Y-109308389D02*
X137967802Y-109356008D01*
X137967802Y-109356008D02*
X137920182Y-109451246D01*
X137920182Y-109451246D02*
X137920182Y-109641722D01*
X137920182Y-109641722D02*
X137967802Y-109736960D01*
X137967802Y-109736960D02*
X138015421Y-109784579D01*
X138015421Y-109784579D02*
X138110659Y-109832198D01*
X138110659Y-109832198D02*
X138348754Y-109832198D01*
X138348754Y-109832198D02*
X138443992Y-109784579D01*
X138443992Y-109784579D02*
X138491611Y-109736960D01*
X138491611Y-109736960D02*
X138539230Y-109641722D01*
X138539230Y-109641722D02*
X138539230Y-109451246D01*
X138539230Y-109451246D02*
X138491611Y-109356008D01*
X138491611Y-109356008D02*
X138443992Y-109308389D01*
X138443992Y-109308389D02*
X138348754Y-109260770D01*
X156780952Y-103259580D02*
X156733333Y-103307200D01*
X156733333Y-103307200D02*
X156590476Y-103354819D01*
X156590476Y-103354819D02*
X156495238Y-103354819D01*
X156495238Y-103354819D02*
X156352381Y-103307200D01*
X156352381Y-103307200D02*
X156257143Y-103211961D01*
X156257143Y-103211961D02*
X156209524Y-103116723D01*
X156209524Y-103116723D02*
X156161905Y-102926247D01*
X156161905Y-102926247D02*
X156161905Y-102783390D01*
X156161905Y-102783390D02*
X156209524Y-102592914D01*
X156209524Y-102592914D02*
X156257143Y-102497676D01*
X156257143Y-102497676D02*
X156352381Y-102402438D01*
X156352381Y-102402438D02*
X156495238Y-102354819D01*
X156495238Y-102354819D02*
X156590476Y-102354819D01*
X156590476Y-102354819D02*
X156733333Y-102402438D01*
X156733333Y-102402438D02*
X156780952Y-102450057D01*
X157733333Y-103354819D02*
X157161905Y-103354819D01*
X157447619Y-103354819D02*
X157447619Y-102354819D01*
X157447619Y-102354819D02*
X157352381Y-102497676D01*
X157352381Y-102497676D02*
X157257143Y-102592914D01*
X157257143Y-102592914D02*
X157161905Y-102640533D01*
X158638095Y-102354819D02*
X158161905Y-102354819D01*
X158161905Y-102354819D02*
X158114286Y-102831009D01*
X158114286Y-102831009D02*
X158161905Y-102783390D01*
X158161905Y-102783390D02*
X158257143Y-102735771D01*
X158257143Y-102735771D02*
X158495238Y-102735771D01*
X158495238Y-102735771D02*
X158590476Y-102783390D01*
X158590476Y-102783390D02*
X158638095Y-102831009D01*
X158638095Y-102831009D02*
X158685714Y-102926247D01*
X158685714Y-102926247D02*
X158685714Y-103164342D01*
X158685714Y-103164342D02*
X158638095Y-103259580D01*
X158638095Y-103259580D02*
X158590476Y-103307200D01*
X158590476Y-103307200D02*
X158495238Y-103354819D01*
X158495238Y-103354819D02*
X158257143Y-103354819D01*
X158257143Y-103354819D02*
X158161905Y-103307200D01*
X158161905Y-103307200D02*
X158114286Y-103259580D01*
X159638095Y-103354819D02*
X159066667Y-103354819D01*
X159352381Y-103354819D02*
X159352381Y-102354819D01*
X159352381Y-102354819D02*
X159257143Y-102497676D01*
X159257143Y-102497676D02*
X159161905Y-102592914D01*
X159161905Y-102592914D02*
X159066667Y-102640533D01*
X142797142Y-104354819D02*
X142463809Y-103878628D01*
X142225714Y-104354819D02*
X142225714Y-103354819D01*
X142225714Y-103354819D02*
X142606666Y-103354819D01*
X142606666Y-103354819D02*
X142701904Y-103402438D01*
X142701904Y-103402438D02*
X142749523Y-103450057D01*
X142749523Y-103450057D02*
X142797142Y-103545295D01*
X142797142Y-103545295D02*
X142797142Y-103688152D01*
X142797142Y-103688152D02*
X142749523Y-103783390D01*
X142749523Y-103783390D02*
X142701904Y-103831009D01*
X142701904Y-103831009D02*
X142606666Y-103878628D01*
X142606666Y-103878628D02*
X142225714Y-103878628D01*
X143749523Y-104354819D02*
X143178095Y-104354819D01*
X143463809Y-104354819D02*
X143463809Y-103354819D01*
X143463809Y-103354819D02*
X143368571Y-103497676D01*
X143368571Y-103497676D02*
X143273333Y-103592914D01*
X143273333Y-103592914D02*
X143178095Y-103640533D01*
X144654285Y-103354819D02*
X144178095Y-103354819D01*
X144178095Y-103354819D02*
X144130476Y-103831009D01*
X144130476Y-103831009D02*
X144178095Y-103783390D01*
X144178095Y-103783390D02*
X144273333Y-103735771D01*
X144273333Y-103735771D02*
X144511428Y-103735771D01*
X144511428Y-103735771D02*
X144606666Y-103783390D01*
X144606666Y-103783390D02*
X144654285Y-103831009D01*
X144654285Y-103831009D02*
X144701904Y-103926247D01*
X144701904Y-103926247D02*
X144701904Y-104164342D01*
X144701904Y-104164342D02*
X144654285Y-104259580D01*
X144654285Y-104259580D02*
X144606666Y-104307200D01*
X144606666Y-104307200D02*
X144511428Y-104354819D01*
X144511428Y-104354819D02*
X144273333Y-104354819D01*
X144273333Y-104354819D02*
X144178095Y-104307200D01*
X144178095Y-104307200D02*
X144130476Y-104259580D01*
X133361905Y-67654819D02*
X133933333Y-67654819D01*
X133647619Y-68654819D02*
X133647619Y-67654819D01*
X134266667Y-68654819D02*
X134266667Y-67654819D01*
X134266667Y-67654819D02*
X134647619Y-67654819D01*
X134647619Y-67654819D02*
X134742857Y-67702438D01*
X134742857Y-67702438D02*
X134790476Y-67750057D01*
X134790476Y-67750057D02*
X134838095Y-67845295D01*
X134838095Y-67845295D02*
X134838095Y-67988152D01*
X134838095Y-67988152D02*
X134790476Y-68083390D01*
X134790476Y-68083390D02*
X134742857Y-68131009D01*
X134742857Y-68131009D02*
X134647619Y-68178628D01*
X134647619Y-68178628D02*
X134266667Y-68178628D01*
X135790476Y-68654819D02*
X135219048Y-68654819D01*
X135504762Y-68654819D02*
X135504762Y-67654819D01*
X135504762Y-67654819D02*
X135409524Y-67797676D01*
X135409524Y-67797676D02*
X135314286Y-67892914D01*
X135314286Y-67892914D02*
X135219048Y-67940533D01*
X136171429Y-67750057D02*
X136219048Y-67702438D01*
X136219048Y-67702438D02*
X136314286Y-67654819D01*
X136314286Y-67654819D02*
X136552381Y-67654819D01*
X136552381Y-67654819D02*
X136647619Y-67702438D01*
X136647619Y-67702438D02*
X136695238Y-67750057D01*
X136695238Y-67750057D02*
X136742857Y-67845295D01*
X136742857Y-67845295D02*
X136742857Y-67940533D01*
X136742857Y-67940533D02*
X136695238Y-68083390D01*
X136695238Y-68083390D02*
X136123810Y-68654819D01*
X136123810Y-68654819D02*
X136742857Y-68654819D01*
X138688095Y-135774819D02*
X139259523Y-135774819D01*
X138973809Y-136774819D02*
X138973809Y-135774819D01*
X139592857Y-136774819D02*
X139592857Y-135774819D01*
X139592857Y-135774819D02*
X139973809Y-135774819D01*
X139973809Y-135774819D02*
X140069047Y-135822438D01*
X140069047Y-135822438D02*
X140116666Y-135870057D01*
X140116666Y-135870057D02*
X140164285Y-135965295D01*
X140164285Y-135965295D02*
X140164285Y-136108152D01*
X140164285Y-136108152D02*
X140116666Y-136203390D01*
X140116666Y-136203390D02*
X140069047Y-136251009D01*
X140069047Y-136251009D02*
X139973809Y-136298628D01*
X139973809Y-136298628D02*
X139592857Y-136298628D01*
X140497619Y-135774819D02*
X141116666Y-135774819D01*
X141116666Y-135774819D02*
X140783333Y-136155771D01*
X140783333Y-136155771D02*
X140926190Y-136155771D01*
X140926190Y-136155771D02*
X141021428Y-136203390D01*
X141021428Y-136203390D02*
X141069047Y-136251009D01*
X141069047Y-136251009D02*
X141116666Y-136346247D01*
X141116666Y-136346247D02*
X141116666Y-136584342D01*
X141116666Y-136584342D02*
X141069047Y-136679580D01*
X141069047Y-136679580D02*
X141021428Y-136727200D01*
X141021428Y-136727200D02*
X140926190Y-136774819D01*
X140926190Y-136774819D02*
X140640476Y-136774819D01*
X140640476Y-136774819D02*
X140545238Y-136727200D01*
X140545238Y-136727200D02*
X140497619Y-136679580D01*
X123033333Y-100654819D02*
X122700000Y-100178628D01*
X122461905Y-100654819D02*
X122461905Y-99654819D01*
X122461905Y-99654819D02*
X122842857Y-99654819D01*
X122842857Y-99654819D02*
X122938095Y-99702438D01*
X122938095Y-99702438D02*
X122985714Y-99750057D01*
X122985714Y-99750057D02*
X123033333Y-99845295D01*
X123033333Y-99845295D02*
X123033333Y-99988152D01*
X123033333Y-99988152D02*
X122985714Y-100083390D01*
X122985714Y-100083390D02*
X122938095Y-100131009D01*
X122938095Y-100131009D02*
X122842857Y-100178628D01*
X122842857Y-100178628D02*
X122461905Y-100178628D01*
X123890476Y-99654819D02*
X123700000Y-99654819D01*
X123700000Y-99654819D02*
X123604762Y-99702438D01*
X123604762Y-99702438D02*
X123557143Y-99750057D01*
X123557143Y-99750057D02*
X123461905Y-99892914D01*
X123461905Y-99892914D02*
X123414286Y-100083390D01*
X123414286Y-100083390D02*
X123414286Y-100464342D01*
X123414286Y-100464342D02*
X123461905Y-100559580D01*
X123461905Y-100559580D02*
X123509524Y-100607200D01*
X123509524Y-100607200D02*
X123604762Y-100654819D01*
X123604762Y-100654819D02*
X123795238Y-100654819D01*
X123795238Y-100654819D02*
X123890476Y-100607200D01*
X123890476Y-100607200D02*
X123938095Y-100559580D01*
X123938095Y-100559580D02*
X123985714Y-100464342D01*
X123985714Y-100464342D02*
X123985714Y-100226247D01*
X123985714Y-100226247D02*
X123938095Y-100131009D01*
X123938095Y-100131009D02*
X123890476Y-100083390D01*
X123890476Y-100083390D02*
X123795238Y-100035771D01*
X123795238Y-100035771D02*
X123604762Y-100035771D01*
X123604762Y-100035771D02*
X123509524Y-100083390D01*
X123509524Y-100083390D02*
X123461905Y-100131009D01*
X123461905Y-100131009D02*
X123414286Y-100226247D01*
X169257142Y-68759580D02*
X169209523Y-68807200D01*
X169209523Y-68807200D02*
X169066666Y-68854819D01*
X169066666Y-68854819D02*
X168971428Y-68854819D01*
X168971428Y-68854819D02*
X168828571Y-68807200D01*
X168828571Y-68807200D02*
X168733333Y-68711961D01*
X168733333Y-68711961D02*
X168685714Y-68616723D01*
X168685714Y-68616723D02*
X168638095Y-68426247D01*
X168638095Y-68426247D02*
X168638095Y-68283390D01*
X168638095Y-68283390D02*
X168685714Y-68092914D01*
X168685714Y-68092914D02*
X168733333Y-67997676D01*
X168733333Y-67997676D02*
X168828571Y-67902438D01*
X168828571Y-67902438D02*
X168971428Y-67854819D01*
X168971428Y-67854819D02*
X169066666Y-67854819D01*
X169066666Y-67854819D02*
X169209523Y-67902438D01*
X169209523Y-67902438D02*
X169257142Y-67950057D01*
X169828571Y-68283390D02*
X169733333Y-68235771D01*
X169733333Y-68235771D02*
X169685714Y-68188152D01*
X169685714Y-68188152D02*
X169638095Y-68092914D01*
X169638095Y-68092914D02*
X169638095Y-68045295D01*
X169638095Y-68045295D02*
X169685714Y-67950057D01*
X169685714Y-67950057D02*
X169733333Y-67902438D01*
X169733333Y-67902438D02*
X169828571Y-67854819D01*
X169828571Y-67854819D02*
X170019047Y-67854819D01*
X170019047Y-67854819D02*
X170114285Y-67902438D01*
X170114285Y-67902438D02*
X170161904Y-67950057D01*
X170161904Y-67950057D02*
X170209523Y-68045295D01*
X170209523Y-68045295D02*
X170209523Y-68092914D01*
X170209523Y-68092914D02*
X170161904Y-68188152D01*
X170161904Y-68188152D02*
X170114285Y-68235771D01*
X170114285Y-68235771D02*
X170019047Y-68283390D01*
X170019047Y-68283390D02*
X169828571Y-68283390D01*
X169828571Y-68283390D02*
X169733333Y-68331009D01*
X169733333Y-68331009D02*
X169685714Y-68378628D01*
X169685714Y-68378628D02*
X169638095Y-68473866D01*
X169638095Y-68473866D02*
X169638095Y-68664342D01*
X169638095Y-68664342D02*
X169685714Y-68759580D01*
X169685714Y-68759580D02*
X169733333Y-68807200D01*
X169733333Y-68807200D02*
X169828571Y-68854819D01*
X169828571Y-68854819D02*
X170019047Y-68854819D01*
X170019047Y-68854819D02*
X170114285Y-68807200D01*
X170114285Y-68807200D02*
X170161904Y-68759580D01*
X170161904Y-68759580D02*
X170209523Y-68664342D01*
X170209523Y-68664342D02*
X170209523Y-68473866D01*
X170209523Y-68473866D02*
X170161904Y-68378628D01*
X170161904Y-68378628D02*
X170114285Y-68331009D01*
X170114285Y-68331009D02*
X170019047Y-68283390D01*
X170780952Y-68283390D02*
X170685714Y-68235771D01*
X170685714Y-68235771D02*
X170638095Y-68188152D01*
X170638095Y-68188152D02*
X170590476Y-68092914D01*
X170590476Y-68092914D02*
X170590476Y-68045295D01*
X170590476Y-68045295D02*
X170638095Y-67950057D01*
X170638095Y-67950057D02*
X170685714Y-67902438D01*
X170685714Y-67902438D02*
X170780952Y-67854819D01*
X170780952Y-67854819D02*
X170971428Y-67854819D01*
X170971428Y-67854819D02*
X171066666Y-67902438D01*
X171066666Y-67902438D02*
X171114285Y-67950057D01*
X171114285Y-67950057D02*
X171161904Y-68045295D01*
X171161904Y-68045295D02*
X171161904Y-68092914D01*
X171161904Y-68092914D02*
X171114285Y-68188152D01*
X171114285Y-68188152D02*
X171066666Y-68235771D01*
X171066666Y-68235771D02*
X170971428Y-68283390D01*
X170971428Y-68283390D02*
X170780952Y-68283390D01*
X170780952Y-68283390D02*
X170685714Y-68331009D01*
X170685714Y-68331009D02*
X170638095Y-68378628D01*
X170638095Y-68378628D02*
X170590476Y-68473866D01*
X170590476Y-68473866D02*
X170590476Y-68664342D01*
X170590476Y-68664342D02*
X170638095Y-68759580D01*
X170638095Y-68759580D02*
X170685714Y-68807200D01*
X170685714Y-68807200D02*
X170780952Y-68854819D01*
X170780952Y-68854819D02*
X170971428Y-68854819D01*
X170971428Y-68854819D02*
X171066666Y-68807200D01*
X171066666Y-68807200D02*
X171114285Y-68759580D01*
X171114285Y-68759580D02*
X171161904Y-68664342D01*
X171161904Y-68664342D02*
X171161904Y-68473866D01*
X171161904Y-68473866D02*
X171114285Y-68378628D01*
X171114285Y-68378628D02*
X171066666Y-68331009D01*
X171066666Y-68331009D02*
X170971428Y-68283390D01*
X175057142Y-97374819D02*
X174723809Y-96898628D01*
X174485714Y-97374819D02*
X174485714Y-96374819D01*
X174485714Y-96374819D02*
X174866666Y-96374819D01*
X174866666Y-96374819D02*
X174961904Y-96422438D01*
X174961904Y-96422438D02*
X175009523Y-96470057D01*
X175009523Y-96470057D02*
X175057142Y-96565295D01*
X175057142Y-96565295D02*
X175057142Y-96708152D01*
X175057142Y-96708152D02*
X175009523Y-96803390D01*
X175009523Y-96803390D02*
X174961904Y-96851009D01*
X174961904Y-96851009D02*
X174866666Y-96898628D01*
X174866666Y-96898628D02*
X174485714Y-96898628D01*
X175390476Y-96374819D02*
X176009523Y-96374819D01*
X176009523Y-96374819D02*
X175676190Y-96755771D01*
X175676190Y-96755771D02*
X175819047Y-96755771D01*
X175819047Y-96755771D02*
X175914285Y-96803390D01*
X175914285Y-96803390D02*
X175961904Y-96851009D01*
X175961904Y-96851009D02*
X176009523Y-96946247D01*
X176009523Y-96946247D02*
X176009523Y-97184342D01*
X176009523Y-97184342D02*
X175961904Y-97279580D01*
X175961904Y-97279580D02*
X175914285Y-97327200D01*
X175914285Y-97327200D02*
X175819047Y-97374819D01*
X175819047Y-97374819D02*
X175533333Y-97374819D01*
X175533333Y-97374819D02*
X175438095Y-97327200D01*
X175438095Y-97327200D02*
X175390476Y-97279580D01*
X176342857Y-96374819D02*
X177009523Y-96374819D01*
X177009523Y-96374819D02*
X176580952Y-97374819D01*
X156704762Y-81826104D02*
X156666666Y-81864200D01*
X156666666Y-81864200D02*
X156552381Y-81902295D01*
X156552381Y-81902295D02*
X156476190Y-81902295D01*
X156476190Y-81902295D02*
X156361904Y-81864200D01*
X156361904Y-81864200D02*
X156285714Y-81788009D01*
X156285714Y-81788009D02*
X156247619Y-81711819D01*
X156247619Y-81711819D02*
X156209523Y-81559438D01*
X156209523Y-81559438D02*
X156209523Y-81445152D01*
X156209523Y-81445152D02*
X156247619Y-81292771D01*
X156247619Y-81292771D02*
X156285714Y-81216580D01*
X156285714Y-81216580D02*
X156361904Y-81140390D01*
X156361904Y-81140390D02*
X156476190Y-81102295D01*
X156476190Y-81102295D02*
X156552381Y-81102295D01*
X156552381Y-81102295D02*
X156666666Y-81140390D01*
X156666666Y-81140390D02*
X156704762Y-81178485D01*
X157466666Y-81902295D02*
X157009523Y-81902295D01*
X157238095Y-81902295D02*
X157238095Y-81102295D01*
X157238095Y-81102295D02*
X157161904Y-81216580D01*
X157161904Y-81216580D02*
X157085714Y-81292771D01*
X157085714Y-81292771D02*
X157009523Y-81330866D01*
X158190476Y-81102295D02*
X157809524Y-81102295D01*
X157809524Y-81102295D02*
X157771428Y-81483247D01*
X157771428Y-81483247D02*
X157809524Y-81445152D01*
X157809524Y-81445152D02*
X157885714Y-81407057D01*
X157885714Y-81407057D02*
X158076190Y-81407057D01*
X158076190Y-81407057D02*
X158152381Y-81445152D01*
X158152381Y-81445152D02*
X158190476Y-81483247D01*
X158190476Y-81483247D02*
X158228571Y-81559438D01*
X158228571Y-81559438D02*
X158228571Y-81749914D01*
X158228571Y-81749914D02*
X158190476Y-81826104D01*
X158190476Y-81826104D02*
X158152381Y-81864200D01*
X158152381Y-81864200D02*
X158076190Y-81902295D01*
X158076190Y-81902295D02*
X157885714Y-81902295D01*
X157885714Y-81902295D02*
X157809524Y-81864200D01*
X157809524Y-81864200D02*
X157771428Y-81826104D01*
X158495238Y-81102295D02*
X159028572Y-81102295D01*
X159028572Y-81102295D02*
X158685714Y-81902295D01*
X175488095Y-136354819D02*
X175488095Y-135354819D01*
X175488095Y-135831009D02*
X176059523Y-135831009D01*
X176059523Y-136354819D02*
X176059523Y-135354819D01*
X176964285Y-135688152D02*
X176964285Y-136354819D01*
X176726190Y-135307200D02*
X176488095Y-136021485D01*
X176488095Y-136021485D02*
X177107142Y-136021485D01*
X170254819Y-135761904D02*
X170254819Y-135190476D01*
X171254819Y-135476190D02*
X170254819Y-135476190D01*
X171254819Y-134857142D02*
X170254819Y-134857142D01*
X170254819Y-134857142D02*
X170254819Y-134476190D01*
X170254819Y-134476190D02*
X170302438Y-134380952D01*
X170302438Y-134380952D02*
X170350057Y-134333333D01*
X170350057Y-134333333D02*
X170445295Y-134285714D01*
X170445295Y-134285714D02*
X170588152Y-134285714D01*
X170588152Y-134285714D02*
X170683390Y-134333333D01*
X170683390Y-134333333D02*
X170731009Y-134380952D01*
X170731009Y-134380952D02*
X170778628Y-134476190D01*
X170778628Y-134476190D02*
X170778628Y-134857142D01*
X171254819Y-133809523D02*
X171254819Y-133619047D01*
X171254819Y-133619047D02*
X171207200Y-133523809D01*
X171207200Y-133523809D02*
X171159580Y-133476190D01*
X171159580Y-133476190D02*
X171016723Y-133380952D01*
X171016723Y-133380952D02*
X170826247Y-133333333D01*
X170826247Y-133333333D02*
X170445295Y-133333333D01*
X170445295Y-133333333D02*
X170350057Y-133380952D01*
X170350057Y-133380952D02*
X170302438Y-133428571D01*
X170302438Y-133428571D02*
X170254819Y-133523809D01*
X170254819Y-133523809D02*
X170254819Y-133714285D01*
X170254819Y-133714285D02*
X170302438Y-133809523D01*
X170302438Y-133809523D02*
X170350057Y-133857142D01*
X170350057Y-133857142D02*
X170445295Y-133904761D01*
X170445295Y-133904761D02*
X170683390Y-133904761D01*
X170683390Y-133904761D02*
X170778628Y-133857142D01*
X170778628Y-133857142D02*
X170826247Y-133809523D01*
X170826247Y-133809523D02*
X170873866Y-133714285D01*
X170873866Y-133714285D02*
X170873866Y-133523809D01*
X170873866Y-133523809D02*
X170826247Y-133428571D01*
X170826247Y-133428571D02*
X170778628Y-133380952D01*
X170778628Y-133380952D02*
X170683390Y-133333333D01*
D12*
X174438096Y-125231121D02*
X174438096Y-126040644D01*
X174438096Y-126040644D02*
X174485715Y-126135882D01*
X174485715Y-126135882D02*
X174533334Y-126183502D01*
X174533334Y-126183502D02*
X174628572Y-126231121D01*
X174628572Y-126231121D02*
X174819048Y-126231121D01*
X174819048Y-126231121D02*
X174914286Y-126183502D01*
X174914286Y-126183502D02*
X174961905Y-126135882D01*
X174961905Y-126135882D02*
X175009524Y-126040644D01*
X175009524Y-126040644D02*
X175009524Y-125231121D01*
X175533334Y-126231121D02*
X175723810Y-126231121D01*
X175723810Y-126231121D02*
X175819048Y-126183502D01*
X175819048Y-126183502D02*
X175866667Y-126135882D01*
X175866667Y-126135882D02*
X175961905Y-125993025D01*
X175961905Y-125993025D02*
X176009524Y-125802549D01*
X176009524Y-125802549D02*
X176009524Y-125421597D01*
X176009524Y-125421597D02*
X175961905Y-125326359D01*
X175961905Y-125326359D02*
X175914286Y-125278740D01*
X175914286Y-125278740D02*
X175819048Y-125231121D01*
X175819048Y-125231121D02*
X175628572Y-125231121D01*
X175628572Y-125231121D02*
X175533334Y-125278740D01*
X175533334Y-125278740D02*
X175485715Y-125326359D01*
X175485715Y-125326359D02*
X175438096Y-125421597D01*
X175438096Y-125421597D02*
X175438096Y-125659692D01*
X175438096Y-125659692D02*
X175485715Y-125754930D01*
X175485715Y-125754930D02*
X175533334Y-125802549D01*
X175533334Y-125802549D02*
X175628572Y-125850168D01*
X175628572Y-125850168D02*
X175819048Y-125850168D01*
X175819048Y-125850168D02*
X175914286Y-125802549D01*
X175914286Y-125802549D02*
X175961905Y-125754930D01*
X175961905Y-125754930D02*
X176009524Y-125659692D01*
D10*
X160033333Y-88059580D02*
X159985714Y-88107200D01*
X159985714Y-88107200D02*
X159842857Y-88154819D01*
X159842857Y-88154819D02*
X159747619Y-88154819D01*
X159747619Y-88154819D02*
X159604762Y-88107200D01*
X159604762Y-88107200D02*
X159509524Y-88011961D01*
X159509524Y-88011961D02*
X159461905Y-87916723D01*
X159461905Y-87916723D02*
X159414286Y-87726247D01*
X159414286Y-87726247D02*
X159414286Y-87583390D01*
X159414286Y-87583390D02*
X159461905Y-87392914D01*
X159461905Y-87392914D02*
X159509524Y-87297676D01*
X159509524Y-87297676D02*
X159604762Y-87202438D01*
X159604762Y-87202438D02*
X159747619Y-87154819D01*
X159747619Y-87154819D02*
X159842857Y-87154819D01*
X159842857Y-87154819D02*
X159985714Y-87202438D01*
X159985714Y-87202438D02*
X160033333Y-87250057D01*
X160890476Y-87154819D02*
X160700000Y-87154819D01*
X160700000Y-87154819D02*
X160604762Y-87202438D01*
X160604762Y-87202438D02*
X160557143Y-87250057D01*
X160557143Y-87250057D02*
X160461905Y-87392914D01*
X160461905Y-87392914D02*
X160414286Y-87583390D01*
X160414286Y-87583390D02*
X160414286Y-87964342D01*
X160414286Y-87964342D02*
X160461905Y-88059580D01*
X160461905Y-88059580D02*
X160509524Y-88107200D01*
X160509524Y-88107200D02*
X160604762Y-88154819D01*
X160604762Y-88154819D02*
X160795238Y-88154819D01*
X160795238Y-88154819D02*
X160890476Y-88107200D01*
X160890476Y-88107200D02*
X160938095Y-88059580D01*
X160938095Y-88059580D02*
X160985714Y-87964342D01*
X160985714Y-87964342D02*
X160985714Y-87726247D01*
X160985714Y-87726247D02*
X160938095Y-87631009D01*
X160938095Y-87631009D02*
X160890476Y-87583390D01*
X160890476Y-87583390D02*
X160795238Y-87535771D01*
X160795238Y-87535771D02*
X160604762Y-87535771D01*
X160604762Y-87535771D02*
X160509524Y-87583390D01*
X160509524Y-87583390D02*
X160461905Y-87631009D01*
X160461905Y-87631009D02*
X160414286Y-87726247D01*
X120482142Y-74559580D02*
X120434523Y-74607200D01*
X120434523Y-74607200D02*
X120291666Y-74654819D01*
X120291666Y-74654819D02*
X120196428Y-74654819D01*
X120196428Y-74654819D02*
X120053571Y-74607200D01*
X120053571Y-74607200D02*
X119958333Y-74511961D01*
X119958333Y-74511961D02*
X119910714Y-74416723D01*
X119910714Y-74416723D02*
X119863095Y-74226247D01*
X119863095Y-74226247D02*
X119863095Y-74083390D01*
X119863095Y-74083390D02*
X119910714Y-73892914D01*
X119910714Y-73892914D02*
X119958333Y-73797676D01*
X119958333Y-73797676D02*
X120053571Y-73702438D01*
X120053571Y-73702438D02*
X120196428Y-73654819D01*
X120196428Y-73654819D02*
X120291666Y-73654819D01*
X120291666Y-73654819D02*
X120434523Y-73702438D01*
X120434523Y-73702438D02*
X120482142Y-73750057D01*
X121339285Y-73988152D02*
X121339285Y-74654819D01*
X121101190Y-73607200D02*
X120863095Y-74321485D01*
X120863095Y-74321485D02*
X121482142Y-74321485D01*
X121767857Y-73654819D02*
X122386904Y-73654819D01*
X122386904Y-73654819D02*
X122053571Y-74035771D01*
X122053571Y-74035771D02*
X122196428Y-74035771D01*
X122196428Y-74035771D02*
X122291666Y-74083390D01*
X122291666Y-74083390D02*
X122339285Y-74131009D01*
X122339285Y-74131009D02*
X122386904Y-74226247D01*
X122386904Y-74226247D02*
X122386904Y-74464342D01*
X122386904Y-74464342D02*
X122339285Y-74559580D01*
X122339285Y-74559580D02*
X122291666Y-74607200D01*
X122291666Y-74607200D02*
X122196428Y-74654819D01*
X122196428Y-74654819D02*
X121910714Y-74654819D01*
X121910714Y-74654819D02*
X121815476Y-74607200D01*
X121815476Y-74607200D02*
X121767857Y-74559580D01*
X165692882Y-86860183D02*
X165692882Y-86050660D01*
X165692882Y-86050660D02*
X165645263Y-85955422D01*
X165645263Y-85955422D02*
X165597644Y-85907803D01*
X165597644Y-85907803D02*
X165502406Y-85860183D01*
X165502406Y-85860183D02*
X165311930Y-85860183D01*
X165311930Y-85860183D02*
X165216692Y-85907803D01*
X165216692Y-85907803D02*
X165169073Y-85955422D01*
X165169073Y-85955422D02*
X165121454Y-86050660D01*
X165121454Y-86050660D02*
X165121454Y-86860183D01*
X164216692Y-86526850D02*
X164216692Y-85860183D01*
X164454787Y-86907803D02*
X164692882Y-86193517D01*
X164692882Y-86193517D02*
X164073835Y-86193517D01*
X125053333Y-70854819D02*
X124720000Y-70378628D01*
X124481905Y-70854819D02*
X124481905Y-69854819D01*
X124481905Y-69854819D02*
X124862857Y-69854819D01*
X124862857Y-69854819D02*
X124958095Y-69902438D01*
X124958095Y-69902438D02*
X125005714Y-69950057D01*
X125005714Y-69950057D02*
X125053333Y-70045295D01*
X125053333Y-70045295D02*
X125053333Y-70188152D01*
X125053333Y-70188152D02*
X125005714Y-70283390D01*
X125005714Y-70283390D02*
X124958095Y-70331009D01*
X124958095Y-70331009D02*
X124862857Y-70378628D01*
X124862857Y-70378628D02*
X124481905Y-70378628D01*
X125958095Y-69854819D02*
X125481905Y-69854819D01*
X125481905Y-69854819D02*
X125434286Y-70331009D01*
X125434286Y-70331009D02*
X125481905Y-70283390D01*
X125481905Y-70283390D02*
X125577143Y-70235771D01*
X125577143Y-70235771D02*
X125815238Y-70235771D01*
X125815238Y-70235771D02*
X125910476Y-70283390D01*
X125910476Y-70283390D02*
X125958095Y-70331009D01*
X125958095Y-70331009D02*
X126005714Y-70426247D01*
X126005714Y-70426247D02*
X126005714Y-70664342D01*
X126005714Y-70664342D02*
X125958095Y-70759580D01*
X125958095Y-70759580D02*
X125910476Y-70807200D01*
X125910476Y-70807200D02*
X125815238Y-70854819D01*
X125815238Y-70854819D02*
X125577143Y-70854819D01*
X125577143Y-70854819D02*
X125481905Y-70807200D01*
X125481905Y-70807200D02*
X125434286Y-70759580D01*
X134157142Y-62954819D02*
X133823809Y-62478628D01*
X133585714Y-62954819D02*
X133585714Y-61954819D01*
X133585714Y-61954819D02*
X133966666Y-61954819D01*
X133966666Y-61954819D02*
X134061904Y-62002438D01*
X134061904Y-62002438D02*
X134109523Y-62050057D01*
X134109523Y-62050057D02*
X134157142Y-62145295D01*
X134157142Y-62145295D02*
X134157142Y-62288152D01*
X134157142Y-62288152D02*
X134109523Y-62383390D01*
X134109523Y-62383390D02*
X134061904Y-62431009D01*
X134061904Y-62431009D02*
X133966666Y-62478628D01*
X133966666Y-62478628D02*
X133585714Y-62478628D01*
X134538095Y-62050057D02*
X134585714Y-62002438D01*
X134585714Y-62002438D02*
X134680952Y-61954819D01*
X134680952Y-61954819D02*
X134919047Y-61954819D01*
X134919047Y-61954819D02*
X135014285Y-62002438D01*
X135014285Y-62002438D02*
X135061904Y-62050057D01*
X135061904Y-62050057D02*
X135109523Y-62145295D01*
X135109523Y-62145295D02*
X135109523Y-62240533D01*
X135109523Y-62240533D02*
X135061904Y-62383390D01*
X135061904Y-62383390D02*
X134490476Y-62954819D01*
X134490476Y-62954819D02*
X135109523Y-62954819D01*
X135680952Y-62383390D02*
X135585714Y-62335771D01*
X135585714Y-62335771D02*
X135538095Y-62288152D01*
X135538095Y-62288152D02*
X135490476Y-62192914D01*
X135490476Y-62192914D02*
X135490476Y-62145295D01*
X135490476Y-62145295D02*
X135538095Y-62050057D01*
X135538095Y-62050057D02*
X135585714Y-62002438D01*
X135585714Y-62002438D02*
X135680952Y-61954819D01*
X135680952Y-61954819D02*
X135871428Y-61954819D01*
X135871428Y-61954819D02*
X135966666Y-62002438D01*
X135966666Y-62002438D02*
X136014285Y-62050057D01*
X136014285Y-62050057D02*
X136061904Y-62145295D01*
X136061904Y-62145295D02*
X136061904Y-62192914D01*
X136061904Y-62192914D02*
X136014285Y-62288152D01*
X136014285Y-62288152D02*
X135966666Y-62335771D01*
X135966666Y-62335771D02*
X135871428Y-62383390D01*
X135871428Y-62383390D02*
X135680952Y-62383390D01*
X135680952Y-62383390D02*
X135585714Y-62431009D01*
X135585714Y-62431009D02*
X135538095Y-62478628D01*
X135538095Y-62478628D02*
X135490476Y-62573866D01*
X135490476Y-62573866D02*
X135490476Y-62764342D01*
X135490476Y-62764342D02*
X135538095Y-62859580D01*
X135538095Y-62859580D02*
X135585714Y-62907200D01*
X135585714Y-62907200D02*
X135680952Y-62954819D01*
X135680952Y-62954819D02*
X135871428Y-62954819D01*
X135871428Y-62954819D02*
X135966666Y-62907200D01*
X135966666Y-62907200D02*
X136014285Y-62859580D01*
X136014285Y-62859580D02*
X136061904Y-62764342D01*
X136061904Y-62764342D02*
X136061904Y-62573866D01*
X136061904Y-62573866D02*
X136014285Y-62478628D01*
X136014285Y-62478628D02*
X135966666Y-62431009D01*
X135966666Y-62431009D02*
X135871428Y-62383390D01*
D13*
X110384876Y-78533332D02*
X113242019Y-78533332D01*
X113242019Y-78533332D02*
X113813447Y-78723809D01*
X113813447Y-78723809D02*
X114194400Y-79104761D01*
X114194400Y-79104761D02*
X114384876Y-79676190D01*
X114384876Y-79676190D02*
X114384876Y-80057142D01*
X110384876Y-77009523D02*
X110384876Y-74342856D01*
X110384876Y-74342856D02*
X114384876Y-76057142D01*
D10*
X142797142Y-102754819D02*
X142463809Y-102278628D01*
X142225714Y-102754819D02*
X142225714Y-101754819D01*
X142225714Y-101754819D02*
X142606666Y-101754819D01*
X142606666Y-101754819D02*
X142701904Y-101802438D01*
X142701904Y-101802438D02*
X142749523Y-101850057D01*
X142749523Y-101850057D02*
X142797142Y-101945295D01*
X142797142Y-101945295D02*
X142797142Y-102088152D01*
X142797142Y-102088152D02*
X142749523Y-102183390D01*
X142749523Y-102183390D02*
X142701904Y-102231009D01*
X142701904Y-102231009D02*
X142606666Y-102278628D01*
X142606666Y-102278628D02*
X142225714Y-102278628D01*
X143749523Y-102754819D02*
X143178095Y-102754819D01*
X143463809Y-102754819D02*
X143463809Y-101754819D01*
X143463809Y-101754819D02*
X143368571Y-101897676D01*
X143368571Y-101897676D02*
X143273333Y-101992914D01*
X143273333Y-101992914D02*
X143178095Y-102040533D01*
X144606666Y-102088152D02*
X144606666Y-102754819D01*
X144368571Y-101707200D02*
X144130476Y-102421485D01*
X144130476Y-102421485D02*
X144749523Y-102421485D01*
X175354819Y-88142857D02*
X174878628Y-88476190D01*
X175354819Y-88714285D02*
X174354819Y-88714285D01*
X174354819Y-88714285D02*
X174354819Y-88333333D01*
X174354819Y-88333333D02*
X174402438Y-88238095D01*
X174402438Y-88238095D02*
X174450057Y-88190476D01*
X174450057Y-88190476D02*
X174545295Y-88142857D01*
X174545295Y-88142857D02*
X174688152Y-88142857D01*
X174688152Y-88142857D02*
X174783390Y-88190476D01*
X174783390Y-88190476D02*
X174831009Y-88238095D01*
X174831009Y-88238095D02*
X174878628Y-88333333D01*
X174878628Y-88333333D02*
X174878628Y-88714285D01*
X174354819Y-87809523D02*
X174354819Y-87190476D01*
X174354819Y-87190476D02*
X174735771Y-87523809D01*
X174735771Y-87523809D02*
X174735771Y-87380952D01*
X174735771Y-87380952D02*
X174783390Y-87285714D01*
X174783390Y-87285714D02*
X174831009Y-87238095D01*
X174831009Y-87238095D02*
X174926247Y-87190476D01*
X174926247Y-87190476D02*
X175164342Y-87190476D01*
X175164342Y-87190476D02*
X175259580Y-87238095D01*
X175259580Y-87238095D02*
X175307200Y-87285714D01*
X175307200Y-87285714D02*
X175354819Y-87380952D01*
X175354819Y-87380952D02*
X175354819Y-87666666D01*
X175354819Y-87666666D02*
X175307200Y-87761904D01*
X175307200Y-87761904D02*
X175259580Y-87809523D01*
X174783390Y-86619047D02*
X174735771Y-86714285D01*
X174735771Y-86714285D02*
X174688152Y-86761904D01*
X174688152Y-86761904D02*
X174592914Y-86809523D01*
X174592914Y-86809523D02*
X174545295Y-86809523D01*
X174545295Y-86809523D02*
X174450057Y-86761904D01*
X174450057Y-86761904D02*
X174402438Y-86714285D01*
X174402438Y-86714285D02*
X174354819Y-86619047D01*
X174354819Y-86619047D02*
X174354819Y-86428571D01*
X174354819Y-86428571D02*
X174402438Y-86333333D01*
X174402438Y-86333333D02*
X174450057Y-86285714D01*
X174450057Y-86285714D02*
X174545295Y-86238095D01*
X174545295Y-86238095D02*
X174592914Y-86238095D01*
X174592914Y-86238095D02*
X174688152Y-86285714D01*
X174688152Y-86285714D02*
X174735771Y-86333333D01*
X174735771Y-86333333D02*
X174783390Y-86428571D01*
X174783390Y-86428571D02*
X174783390Y-86619047D01*
X174783390Y-86619047D02*
X174831009Y-86714285D01*
X174831009Y-86714285D02*
X174878628Y-86761904D01*
X174878628Y-86761904D02*
X174973866Y-86809523D01*
X174973866Y-86809523D02*
X175164342Y-86809523D01*
X175164342Y-86809523D02*
X175259580Y-86761904D01*
X175259580Y-86761904D02*
X175307200Y-86714285D01*
X175307200Y-86714285D02*
X175354819Y-86619047D01*
X175354819Y-86619047D02*
X175354819Y-86428571D01*
X175354819Y-86428571D02*
X175307200Y-86333333D01*
X175307200Y-86333333D02*
X175259580Y-86285714D01*
X175259580Y-86285714D02*
X175164342Y-86238095D01*
X175164342Y-86238095D02*
X174973866Y-86238095D01*
X174973866Y-86238095D02*
X174878628Y-86285714D01*
X174878628Y-86285714D02*
X174831009Y-86333333D01*
X174831009Y-86333333D02*
X174783390Y-86428571D01*
X153532783Y-104048633D02*
X153199450Y-103572442D01*
X152961355Y-104048633D02*
X152961355Y-103048633D01*
X152961355Y-103048633D02*
X153342307Y-103048633D01*
X153342307Y-103048633D02*
X153437545Y-103096252D01*
X153437545Y-103096252D02*
X153485164Y-103143871D01*
X153485164Y-103143871D02*
X153532783Y-103239109D01*
X153532783Y-103239109D02*
X153532783Y-103381966D01*
X153532783Y-103381966D02*
X153485164Y-103477204D01*
X153485164Y-103477204D02*
X153437545Y-103524823D01*
X153437545Y-103524823D02*
X153342307Y-103572442D01*
X153342307Y-103572442D02*
X152961355Y-103572442D01*
X153866117Y-103048633D02*
X154532783Y-103048633D01*
X154532783Y-103048633D02*
X154104212Y-104048633D01*
X154961355Y-104048633D02*
X155151831Y-104048633D01*
X155151831Y-104048633D02*
X155247069Y-104001014D01*
X155247069Y-104001014D02*
X155294688Y-103953394D01*
X155294688Y-103953394D02*
X155389926Y-103810537D01*
X155389926Y-103810537D02*
X155437545Y-103620061D01*
X155437545Y-103620061D02*
X155437545Y-103239109D01*
X155437545Y-103239109D02*
X155389926Y-103143871D01*
X155389926Y-103143871D02*
X155342307Y-103096252D01*
X155342307Y-103096252D02*
X155247069Y-103048633D01*
X155247069Y-103048633D02*
X155056593Y-103048633D01*
X155056593Y-103048633D02*
X154961355Y-103096252D01*
X154961355Y-103096252D02*
X154913736Y-103143871D01*
X154913736Y-103143871D02*
X154866117Y-103239109D01*
X154866117Y-103239109D02*
X154866117Y-103477204D01*
X154866117Y-103477204D02*
X154913736Y-103572442D01*
X154913736Y-103572442D02*
X154961355Y-103620061D01*
X154961355Y-103620061D02*
X155056593Y-103667680D01*
X155056593Y-103667680D02*
X155247069Y-103667680D01*
X155247069Y-103667680D02*
X155342307Y-103620061D01*
X155342307Y-103620061D02*
X155389926Y-103572442D01*
X155389926Y-103572442D02*
X155437545Y-103477204D01*
X162245714Y-83626104D02*
X162207618Y-83664200D01*
X162207618Y-83664200D02*
X162093333Y-83702295D01*
X162093333Y-83702295D02*
X162017142Y-83702295D01*
X162017142Y-83702295D02*
X161902856Y-83664200D01*
X161902856Y-83664200D02*
X161826666Y-83588009D01*
X161826666Y-83588009D02*
X161788571Y-83511819D01*
X161788571Y-83511819D02*
X161750475Y-83359438D01*
X161750475Y-83359438D02*
X161750475Y-83245152D01*
X161750475Y-83245152D02*
X161788571Y-83092771D01*
X161788571Y-83092771D02*
X161826666Y-83016580D01*
X161826666Y-83016580D02*
X161902856Y-82940390D01*
X161902856Y-82940390D02*
X162017142Y-82902295D01*
X162017142Y-82902295D02*
X162093333Y-82902295D01*
X162093333Y-82902295D02*
X162207618Y-82940390D01*
X162207618Y-82940390D02*
X162245714Y-82978485D01*
X162550475Y-82978485D02*
X162588571Y-82940390D01*
X162588571Y-82940390D02*
X162664761Y-82902295D01*
X162664761Y-82902295D02*
X162855237Y-82902295D01*
X162855237Y-82902295D02*
X162931428Y-82940390D01*
X162931428Y-82940390D02*
X162969523Y-82978485D01*
X162969523Y-82978485D02*
X163007618Y-83054676D01*
X163007618Y-83054676D02*
X163007618Y-83130866D01*
X163007618Y-83130866D02*
X162969523Y-83245152D01*
X162969523Y-83245152D02*
X162512380Y-83702295D01*
X162512380Y-83702295D02*
X163007618Y-83702295D01*
X163502857Y-82902295D02*
X163579047Y-82902295D01*
X163579047Y-82902295D02*
X163655238Y-82940390D01*
X163655238Y-82940390D02*
X163693333Y-82978485D01*
X163693333Y-82978485D02*
X163731428Y-83054676D01*
X163731428Y-83054676D02*
X163769523Y-83207057D01*
X163769523Y-83207057D02*
X163769523Y-83397533D01*
X163769523Y-83397533D02*
X163731428Y-83549914D01*
X163731428Y-83549914D02*
X163693333Y-83626104D01*
X163693333Y-83626104D02*
X163655238Y-83664200D01*
X163655238Y-83664200D02*
X163579047Y-83702295D01*
X163579047Y-83702295D02*
X163502857Y-83702295D01*
X163502857Y-83702295D02*
X163426666Y-83664200D01*
X163426666Y-83664200D02*
X163388571Y-83626104D01*
X163388571Y-83626104D02*
X163350476Y-83549914D01*
X163350476Y-83549914D02*
X163312380Y-83397533D01*
X163312380Y-83397533D02*
X163312380Y-83207057D01*
X163312380Y-83207057D02*
X163350476Y-83054676D01*
X163350476Y-83054676D02*
X163388571Y-82978485D01*
X163388571Y-82978485D02*
X163426666Y-82940390D01*
X163426666Y-82940390D02*
X163502857Y-82902295D01*
X127627786Y-64905900D02*
X127294453Y-64429709D01*
X127056358Y-64905900D02*
X127056358Y-63905900D01*
X127056358Y-63905900D02*
X127437310Y-63905900D01*
X127437310Y-63905900D02*
X127532548Y-63953519D01*
X127532548Y-63953519D02*
X127580167Y-64001138D01*
X127580167Y-64001138D02*
X127627786Y-64096376D01*
X127627786Y-64096376D02*
X127627786Y-64239233D01*
X127627786Y-64239233D02*
X127580167Y-64334471D01*
X127580167Y-64334471D02*
X127532548Y-64382090D01*
X127532548Y-64382090D02*
X127437310Y-64429709D01*
X127437310Y-64429709D02*
X127056358Y-64429709D01*
X128103977Y-64905900D02*
X128294453Y-64905900D01*
X128294453Y-64905900D02*
X128389691Y-64858281D01*
X128389691Y-64858281D02*
X128437310Y-64810661D01*
X128437310Y-64810661D02*
X128532548Y-64667804D01*
X128532548Y-64667804D02*
X128580167Y-64477328D01*
X128580167Y-64477328D02*
X128580167Y-64096376D01*
X128580167Y-64096376D02*
X128532548Y-64001138D01*
X128532548Y-64001138D02*
X128484929Y-63953519D01*
X128484929Y-63953519D02*
X128389691Y-63905900D01*
X128389691Y-63905900D02*
X128199215Y-63905900D01*
X128199215Y-63905900D02*
X128103977Y-63953519D01*
X128103977Y-63953519D02*
X128056358Y-64001138D01*
X128056358Y-64001138D02*
X128008739Y-64096376D01*
X128008739Y-64096376D02*
X128008739Y-64334471D01*
X128008739Y-64334471D02*
X128056358Y-64429709D01*
X128056358Y-64429709D02*
X128103977Y-64477328D01*
X128103977Y-64477328D02*
X128199215Y-64524947D01*
X128199215Y-64524947D02*
X128389691Y-64524947D01*
X128389691Y-64524947D02*
X128484929Y-64477328D01*
X128484929Y-64477328D02*
X128532548Y-64429709D01*
X128532548Y-64429709D02*
X128580167Y-64334471D01*
X129484929Y-63905900D02*
X129008739Y-63905900D01*
X129008739Y-63905900D02*
X128961120Y-64382090D01*
X128961120Y-64382090D02*
X129008739Y-64334471D01*
X129008739Y-64334471D02*
X129103977Y-64286852D01*
X129103977Y-64286852D02*
X129342072Y-64286852D01*
X129342072Y-64286852D02*
X129437310Y-64334471D01*
X129437310Y-64334471D02*
X129484929Y-64382090D01*
X129484929Y-64382090D02*
X129532548Y-64477328D01*
X129532548Y-64477328D02*
X129532548Y-64715423D01*
X129532548Y-64715423D02*
X129484929Y-64810661D01*
X129484929Y-64810661D02*
X129437310Y-64858281D01*
X129437310Y-64858281D02*
X129342072Y-64905900D01*
X129342072Y-64905900D02*
X129103977Y-64905900D01*
X129103977Y-64905900D02*
X129008739Y-64858281D01*
X129008739Y-64858281D02*
X128961120Y-64810661D01*
D14*
%TO.C,IC2*%
X132140000Y-98300000D02*
G75*
G02*
X131940000Y-98300000I-100000J0D01*
G01*
X131940000Y-98300000D02*
G75*
G02*
X132140000Y-98300000I100000J0D01*
G01*
D15*
%TO.C,IC5*%
X138340002Y-91725002D02*
G75*
G02*
X138090000Y-91725002I-125001J0D01*
G01*
X138090000Y-91725002D02*
G75*
G02*
X138340002Y-91725002I125001J0D01*
G01*
D16*
%TO.C,C187*%
X154575580Y-125427911D02*
X154294420Y-125427911D01*
X154575580Y-126447911D02*
X154294420Y-126447911D01*
%TO.C,C154*%
X152415580Y-79790000D02*
X152134420Y-79790000D01*
X152415580Y-80810000D02*
X152134420Y-80810000D01*
%TO.C,J6*%
X119470000Y-66170000D02*
X120800000Y-66170000D01*
X119470000Y-67500000D02*
X119470000Y-66170000D01*
X122070000Y-66170000D02*
X129750000Y-66170000D01*
X122070000Y-68830000D02*
X122070000Y-66170000D01*
X122070000Y-68830000D02*
X129750000Y-68830000D01*
X129750000Y-68830000D02*
X129750000Y-66170000D01*
%TO.C,C152*%
X154575580Y-93910000D02*
X154294420Y-93910000D01*
X154575580Y-94930000D02*
X154294420Y-94930000D01*
D17*
%TO.C,FB4*%
X135338500Y-79160000D02*
G75*
G02*
X135186100Y-79160000I-76200J0D01*
G01*
X135186100Y-79160000D02*
G75*
G02*
X135338500Y-79160000I76200J0D01*
G01*
D16*
%TO.C,TP6*%
X131600000Y-62520000D02*
G75*
G02*
X129800000Y-62520000I-900000J0D01*
G01*
X129800000Y-62520000D02*
G75*
G02*
X131600000Y-62520000I900000J0D01*
G01*
%TO.C,C34*%
X127249420Y-76880000D02*
X127530580Y-76880000D01*
X127249420Y-77900000D02*
X127530580Y-77900000D01*
D18*
%TO.C,J2*%
X178286000Y-75938000D02*
X178286000Y-74922000D01*
X178286000Y-78478000D02*
X178286000Y-77462000D01*
D16*
%TO.C,TP10*%
X126800000Y-62520000D02*
G75*
G02*
X125000000Y-62520000I-900000J0D01*
G01*
X125000000Y-62520000D02*
G75*
G02*
X126800000Y-62520000I900000J0D01*
G01*
%TO.C,C33*%
X124470000Y-76529420D02*
X124470000Y-76810580D01*
X125490000Y-76529420D02*
X125490000Y-76810580D01*
D18*
%TO.C,J1*%
X178286000Y-91668500D02*
X178286000Y-90652500D01*
X178286000Y-94208500D02*
X178286000Y-93192500D01*
D17*
%TO.C,FB3*%
X128738500Y-79500000D02*
G75*
G02*
X128586100Y-79500000I-76200J0D01*
G01*
X128586100Y-79500000D02*
G75*
G02*
X128738500Y-79500000I76200J0D01*
G01*
D16*
%TO.C,C51*%
X132260000Y-74940580D02*
X132260000Y-74659420D01*
X133280000Y-74940580D02*
X133280000Y-74659420D01*
%TO.C,C191*%
X154294420Y-122362910D02*
X154575580Y-122362910D01*
X154294420Y-123382910D02*
X154575580Y-123382910D01*
%TO.C,C155*%
X157816919Y-97694097D02*
X158098079Y-97694097D01*
X157816919Y-98714097D02*
X158098079Y-98714097D01*
%TO.C,TP7*%
X151900000Y-62520000D02*
G75*
G02*
X150100000Y-62520000I-900000J0D01*
G01*
X150100000Y-62520000D02*
G75*
G02*
X151900000Y-62520000I900000J0D01*
G01*
%TO.C,C40*%
X130760000Y-71465580D02*
X130760000Y-71184420D01*
X131780000Y-71465580D02*
X131780000Y-71184420D01*
D17*
%TO.C,U8*%
X164167978Y-119092004D02*
X164167978Y-119564864D01*
X164167978Y-125985144D02*
X164167978Y-126458004D01*
X164167978Y-126458004D02*
X164640838Y-126458004D01*
X164640838Y-119092004D02*
X164167978Y-119092004D01*
X171061118Y-126458004D02*
X171533978Y-126458004D01*
X171533978Y-119092004D02*
X171061118Y-119092004D01*
X171533978Y-119564864D02*
X171533978Y-119092004D01*
X171533978Y-126458004D02*
X171533978Y-125985144D01*
D18*
X172420978Y-126255004D02*
G75*
G02*
X171820978Y-126255004I-300000J0D01*
G01*
X171820978Y-126255004D02*
G75*
G02*
X172420978Y-126255004I300000J0D01*
G01*
D19*
G36*
X163740979Y-122715505D02*
G01*
X163486979Y-122715505D01*
X163486979Y-122334504D01*
X163740979Y-122334504D01*
X163740979Y-122715505D01*
G37*
G36*
X166791478Y-127139003D02*
G01*
X166410478Y-127139003D01*
X166410478Y-126885003D01*
X166791478Y-126885003D01*
X166791478Y-127139003D01*
G37*
G36*
X167291477Y-118665005D02*
G01*
X166910477Y-118665005D01*
X166910477Y-118411005D01*
X167291477Y-118411005D01*
X167291477Y-118665005D01*
G37*
G36*
X172214977Y-121215505D02*
G01*
X171960977Y-121215505D01*
X171960977Y-120834505D01*
X172214977Y-120834505D01*
X172214977Y-121215505D01*
G37*
D16*
%TO.C,TP5*%
X159206954Y-136300000D02*
G75*
G02*
X157406954Y-136300000I-900000J0D01*
G01*
X157406954Y-136300000D02*
G75*
G02*
X159206954Y-136300000I900000J0D01*
G01*
%TO.C,C50*%
X130659999Y-74940580D02*
X130659999Y-74659420D01*
X131679999Y-74940580D02*
X131679999Y-74659420D01*
%TO.C,L7*%
X157285278Y-116203811D02*
X156959720Y-116203811D01*
X157285278Y-117223811D02*
X156959720Y-117223811D01*
D17*
%TO.C,U6*%
X164167977Y-71917002D02*
X164167977Y-72389862D01*
X164167977Y-78810142D02*
X164167977Y-79283002D01*
X164167977Y-79283002D02*
X164640837Y-79283002D01*
X164640837Y-71917002D02*
X164167977Y-71917002D01*
X171061117Y-79283002D02*
X171533977Y-79283002D01*
X171533977Y-71917002D02*
X171061117Y-71917002D01*
X171533977Y-72389862D02*
X171533977Y-71917002D01*
X171533977Y-79283002D02*
X171533977Y-78810142D01*
D18*
X172420977Y-79080002D02*
G75*
G02*
X171820977Y-79080002I-300000J0D01*
G01*
X171820977Y-79080002D02*
G75*
G02*
X172420977Y-79080002I300000J0D01*
G01*
D19*
G36*
X163740978Y-75540503D02*
G01*
X163486978Y-75540503D01*
X163486978Y-75159502D01*
X163740978Y-75159502D01*
X163740978Y-75540503D01*
G37*
G36*
X166791477Y-79964001D02*
G01*
X166410477Y-79964001D01*
X166410477Y-79710001D01*
X166791477Y-79710001D01*
X166791477Y-79964001D01*
G37*
G36*
X167291476Y-71490003D02*
G01*
X166910476Y-71490003D01*
X166910476Y-71236003D01*
X167291476Y-71236003D01*
X167291476Y-71490003D01*
G37*
G36*
X172214976Y-74040503D02*
G01*
X171960976Y-74040503D01*
X171960976Y-73659503D01*
X172214976Y-73659503D01*
X172214976Y-74040503D01*
G37*
D16*
%TO.C,C158*%
X152134422Y-76590001D02*
X152415582Y-76590001D01*
X152134422Y-77610001D02*
X152415582Y-77610001D01*
%TO.C,TP20*%
X158400000Y-74600000D02*
G75*
G02*
X156600000Y-74600000I-900000J0D01*
G01*
X156600000Y-74600000D02*
G75*
G02*
X158400000Y-74600000I900000J0D01*
G01*
%TO.C,C192*%
X156981919Y-114603813D02*
X157263079Y-114603813D01*
X156981919Y-115623813D02*
X157263079Y-115623813D01*
%TO.C,L6*%
X154597779Y-123902910D02*
X154272221Y-123902910D01*
X154597779Y-124922910D02*
X154272221Y-124922910D01*
%TO.C,TP2*%
X162350000Y-62520000D02*
G75*
G02*
X160550000Y-62520000I-900000J0D01*
G01*
X160550000Y-62520000D02*
G75*
G02*
X162350000Y-62520000I900000J0D01*
G01*
%TO.C,C49*%
X124365580Y-72090000D02*
X124084420Y-72090000D01*
X124365580Y-73110000D02*
X124084420Y-73110000D01*
%TO.C,TP4*%
X120800000Y-62520000D02*
G75*
G02*
X119000000Y-62520000I-900000J0D01*
G01*
X119000000Y-62520000D02*
G75*
G02*
X120800000Y-62520000I900000J0D01*
G01*
D18*
%TO.C,U11*%
X175400978Y-107375001D02*
G75*
G02*
X175200978Y-107375001I-100000J0D01*
G01*
X175200978Y-107375001D02*
G75*
G02*
X175400978Y-107375001I100000J0D01*
G01*
%TO.C,U5*%
X175400978Y-91650001D02*
G75*
G02*
X175200978Y-91650001I-100000J0D01*
G01*
X175200978Y-91650001D02*
G75*
G02*
X175400978Y-91650001I100000J0D01*
G01*
D16*
%TO.C,TP19*%
X158200000Y-89300000D02*
G75*
G02*
X156400000Y-89300000I-900000J0D01*
G01*
X156400000Y-89300000D02*
G75*
G02*
X158200000Y-89300000I900000J0D01*
G01*
%TO.C,L2*%
X154597779Y-92384999D02*
X154272221Y-92384999D01*
X154597779Y-93404999D02*
X154272221Y-93404999D01*
%TO.C,TP22*%
X158370000Y-105400000D02*
G75*
G02*
X156570000Y-105400000I-900000J0D01*
G01*
X156570000Y-105400000D02*
G75*
G02*
X158370000Y-105400000I900000J0D01*
G01*
%TO.C,TP1*%
X151403477Y-136170000D02*
G75*
G02*
X149603477Y-136170000I-900000J0D01*
G01*
X149603477Y-136170000D02*
G75*
G02*
X151403477Y-136170000I900000J0D01*
G01*
%TO.C,TP16*%
X158370000Y-120970001D02*
G75*
G02*
X156570000Y-120970001I-900000J0D01*
G01*
X156570000Y-120970001D02*
G75*
G02*
X158370000Y-120970001I900000J0D01*
G01*
D15*
%TO.C,IC6*%
X138340002Y-123242913D02*
G75*
G02*
X138090000Y-123242913I-125001J0D01*
G01*
X138090000Y-123242913D02*
G75*
G02*
X138340002Y-123242913I125001J0D01*
G01*
D16*
%TO.C,L4*%
X152437781Y-78190001D02*
X152112223Y-78190001D01*
X152437781Y-79210001D02*
X152112223Y-79210001D01*
D18*
%TO.C,Y2*%
X140800000Y-66425000D02*
X140800000Y-66425000D01*
X140900000Y-66425000D02*
X140900000Y-66425000D01*
X140800000Y-66425000D02*
G75*
G02*
X140900000Y-66425000I50000J0D01*
G01*
X140900000Y-66425000D02*
G75*
G02*
X140800000Y-66425000I-50000J0D01*
G01*
D16*
%TO.C,C4*%
X159990000Y-104619420D02*
X159990000Y-104900580D01*
X161010000Y-104619420D02*
X161010000Y-104900580D01*
D17*
%TO.C,U10*%
X164167978Y-103367003D02*
X164167978Y-103839863D01*
X164167978Y-110260143D02*
X164167978Y-110733003D01*
X164167978Y-110733003D02*
X164640838Y-110733003D01*
X164640838Y-103367003D02*
X164167978Y-103367003D01*
X171061118Y-110733003D02*
X171533978Y-110733003D01*
X171533978Y-103367003D02*
X171061118Y-103367003D01*
X171533978Y-103839863D02*
X171533978Y-103367003D01*
X171533978Y-110733003D02*
X171533978Y-110260143D01*
D18*
X172420978Y-110530003D02*
G75*
G02*
X171820978Y-110530003I-300000J0D01*
G01*
X171820978Y-110530003D02*
G75*
G02*
X172420978Y-110530003I300000J0D01*
G01*
D19*
G36*
X163740979Y-106990504D02*
G01*
X163486979Y-106990504D01*
X163486979Y-106609503D01*
X163740979Y-106609503D01*
X163740979Y-106990504D01*
G37*
G36*
X166791478Y-111414002D02*
G01*
X166410478Y-111414002D01*
X166410478Y-111160002D01*
X166791478Y-111160002D01*
X166791478Y-111414002D01*
G37*
G36*
X167291477Y-102940004D02*
G01*
X166910477Y-102940004D01*
X166910477Y-102686004D01*
X167291477Y-102686004D01*
X167291477Y-102940004D01*
G37*
G36*
X172214977Y-105490504D02*
G01*
X171960977Y-105490504D01*
X171960977Y-105109504D01*
X172214977Y-105109504D01*
X172214977Y-105490504D01*
G37*
D18*
%TO.C,Q2*%
X139500000Y-73000000D02*
G75*
G02*
X139200000Y-73000000I-150000J0D01*
G01*
X139200000Y-73000000D02*
G75*
G02*
X139500000Y-73000000I150000J0D01*
G01*
D14*
%TO.C,Z1*%
X110624999Y-81800000D02*
G75*
G02*
X110724999Y-81800000I50000J0D01*
G01*
X110725000Y-81800000D02*
G75*
G02*
X110624998Y-81800000I-50001J1D01*
G01*
X110725000Y-81800000D02*
G75*
G02*
X110624998Y-81800000I-50001J1D01*
G01*
X111900000Y-82575000D02*
X114550000Y-82575000D01*
X110624999Y-81800000D02*
X110624999Y-81800000D01*
X110624999Y-81800000D02*
X110624999Y-81800000D01*
X110725000Y-81800000D02*
X110725000Y-81800000D01*
X111900000Y-81025000D02*
X114550000Y-81025000D01*
D16*
%TO.C,TP15*%
X174050978Y-130075004D02*
G75*
G02*
X172250978Y-130075004I-900000J0D01*
G01*
X172250978Y-130075004D02*
G75*
G02*
X174050978Y-130075004I900000J0D01*
G01*
D18*
%TO.C,J3*%
X178361488Y-123129501D02*
X178361488Y-122113501D01*
X178361488Y-125669501D02*
X178361488Y-124653501D01*
%TO.C,U7*%
X175400977Y-75925000D02*
G75*
G02*
X175200977Y-75925000I-100000J0D01*
G01*
X175200977Y-75925000D02*
G75*
G02*
X175400977Y-75925000I100000J0D01*
G01*
D16*
%TO.C,C190*%
X157816919Y-129212008D02*
X158098079Y-129212008D01*
X157816919Y-130232008D02*
X158098079Y-130232008D01*
%TO.C,C193*%
X152134422Y-108107912D02*
X152415582Y-108107912D01*
X152134422Y-109127912D02*
X152415582Y-109127912D01*
%TO.C,C189*%
X152415580Y-111307911D02*
X152134420Y-111307911D01*
X152415580Y-112327911D02*
X152134420Y-112327911D01*
D18*
%TO.C,J5*%
X123772000Y-104620000D02*
X123798000Y-106820000D01*
X128073000Y-102545000D02*
X125873000Y-102545000D01*
X128073000Y-108895000D02*
X125873000Y-108895000D01*
X130148000Y-104620000D02*
X130148000Y-106820000D01*
D16*
%TO.C,C186*%
X158098081Y-132412010D02*
X157816921Y-132412010D01*
X158098081Y-133432010D02*
X157816921Y-133432010D01*
D18*
%TO.C,Y1*%
X128197781Y-94920000D02*
X128797781Y-94920000D01*
X128247781Y-97220000D02*
X128847781Y-97220000D01*
D20*
X126970562Y-97465563D02*
G75*
G02*
X126765000Y-97465563I-102781J0D01*
G01*
X126765000Y-97465563D02*
G75*
G02*
X126970562Y-97465563I102781J0D01*
G01*
D16*
%TO.C,C188*%
X157263079Y-117803813D02*
X156981919Y-117803813D01*
X157263079Y-118823813D02*
X156981919Y-118823813D01*
D18*
%TO.C,J4*%
X178361488Y-107399001D02*
X178361488Y-106383001D01*
X178361488Y-109939001D02*
X178361488Y-108923001D01*
D16*
%TO.C,TP13*%
X174050977Y-82900002D02*
G75*
G02*
X172250977Y-82900002I-900000J0D01*
G01*
X172250977Y-82900002D02*
G75*
G02*
X174050977Y-82900002I900000J0D01*
G01*
%TO.C,C153*%
X157263079Y-86285902D02*
X156981919Y-86285902D01*
X157263079Y-87305902D02*
X156981919Y-87305902D01*
%TO.C,L3*%
X157285278Y-84685900D02*
X156959720Y-84685900D01*
X157285278Y-85705900D02*
X156959720Y-85705900D01*
D21*
%TO.C,U2*%
X126535000Y-126600000D02*
X126535000Y-133200000D01*
X126535000Y-133200000D02*
X132635000Y-133200000D01*
X132635000Y-126600000D02*
X126535000Y-126600000D01*
X132635000Y-126600000D02*
X132635000Y-126805000D01*
X132635000Y-132995000D02*
X132635000Y-133200000D01*
D14*
X124307400Y-126521800D02*
G75*
G02*
X124107400Y-126521800I-100000J0D01*
G01*
X124107400Y-126521800D02*
G75*
G02*
X124307400Y-126521800I100000J0D01*
G01*
D15*
%TO.C,IC1*%
X130025000Y-76350000D02*
G75*
G02*
X129775000Y-76350000I-125000J0D01*
G01*
X129775000Y-76350000D02*
G75*
G02*
X130025000Y-76350000I125000J0D01*
G01*
D16*
%TO.C,L8*%
X152437781Y-109707912D02*
X152112223Y-109707912D01*
X152437781Y-110727912D02*
X152112223Y-110727912D01*
D17*
%TO.C,FB5*%
X137696200Y-105080211D02*
G75*
G02*
X137543800Y-105080211I-76200J0D01*
G01*
X137543800Y-105080211D02*
G75*
G02*
X137696200Y-105080211I76200J0D01*
G01*
D16*
%TO.C,C5*%
X159929420Y-120440000D02*
X160210580Y-120440000D01*
X159929420Y-121460000D02*
X160210580Y-121460000D01*
%TO.C,L1*%
X158120280Y-99294097D02*
X157794722Y-99294097D01*
X158120280Y-100314097D02*
X157794722Y-100314097D01*
%TO.C,TP17*%
X174050978Y-114350003D02*
G75*
G02*
X172250978Y-114350003I-900000J0D01*
G01*
X172250978Y-114350003D02*
G75*
G02*
X174050978Y-114350003I900000J0D01*
G01*
%TO.C,TP11*%
X174050978Y-98625003D02*
G75*
G02*
X172250978Y-98625003I-900000J0D01*
G01*
X172250978Y-98625003D02*
G75*
G02*
X174050978Y-98625003I900000J0D01*
G01*
%TO.C,C38*%
X132360000Y-71465580D02*
X132360000Y-71184420D01*
X133380000Y-71465580D02*
X133380000Y-71184420D01*
D17*
%TO.C,FB6*%
X140551202Y-105080213D02*
G75*
G02*
X140398802Y-105080213I-76200J0D01*
G01*
X140398802Y-105080213D02*
G75*
G02*
X140551202Y-105080213I76200J0D01*
G01*
D16*
%TO.C,C151*%
X158098081Y-100894099D02*
X157816921Y-100894099D01*
X158098081Y-101914099D02*
X157816921Y-101914099D01*
%TO.C,TP12*%
X138800000Y-68800000D02*
G75*
G02*
X137000000Y-68800000I-900000J0D01*
G01*
X137000000Y-68800000D02*
G75*
G02*
X138800000Y-68800000I900000J0D01*
G01*
%TO.C,TP3*%
X143600000Y-136170000D02*
G75*
G02*
X141800000Y-136170000I-900000J0D01*
G01*
X141800000Y-136170000D02*
G75*
G02*
X143600000Y-136170000I900000J0D01*
G01*
%TO.C,C157*%
X156981919Y-83085902D02*
X157263079Y-83085902D01*
X156981919Y-84105902D02*
X157263079Y-84105902D01*
%TO.C,L5*%
X158120280Y-130812008D02*
X157794722Y-130812008D01*
X158120280Y-131832008D02*
X157794722Y-131832008D01*
%TO.C,TP9*%
X171580000Y-131600003D02*
G75*
G02*
X169780000Y-131600003I-900000J0D01*
G01*
X169780000Y-131600003D02*
G75*
G02*
X171580000Y-131600003I900000J0D01*
G01*
D18*
%TO.C,U9*%
X175400978Y-123100002D02*
G75*
G02*
X175200978Y-123100002I-100000J0D01*
G01*
X175200978Y-123100002D02*
G75*
G02*
X175400978Y-123100002I100000J0D01*
G01*
D16*
%TO.C,C6*%
X159979420Y-89030000D02*
X160260580Y-89030000D01*
X159979420Y-90050000D02*
X160260580Y-90050000D01*
%TO.C,C43*%
X124365580Y-73690000D02*
X124084420Y-73690000D01*
X124365580Y-74710000D02*
X124084420Y-74710000D01*
D17*
%TO.C,U4*%
X164167978Y-87642003D02*
X164167978Y-88114863D01*
X164167978Y-94535143D02*
X164167978Y-95008003D01*
X164167978Y-95008003D02*
X164640838Y-95008003D01*
X164640838Y-87642003D02*
X164167978Y-87642003D01*
X171061118Y-95008003D02*
X171533978Y-95008003D01*
X171533978Y-87642003D02*
X171061118Y-87642003D01*
X171533978Y-88114863D02*
X171533978Y-87642003D01*
X171533978Y-95008003D02*
X171533978Y-94535143D01*
D18*
X172420978Y-94805003D02*
G75*
G02*
X171820978Y-94805003I-300000J0D01*
G01*
X171820978Y-94805003D02*
G75*
G02*
X172420978Y-94805003I300000J0D01*
G01*
D19*
G36*
X163740979Y-91265504D02*
G01*
X163486979Y-91265504D01*
X163486979Y-90884503D01*
X163740979Y-90884503D01*
X163740979Y-91265504D01*
G37*
G36*
X166791478Y-95689002D02*
G01*
X166410478Y-95689002D01*
X166410478Y-95435002D01*
X166791478Y-95435002D01*
X166791478Y-95689002D01*
G37*
G36*
X167291477Y-87215004D02*
G01*
X166910477Y-87215004D01*
X166910477Y-86961004D01*
X167291477Y-86961004D01*
X167291477Y-87215004D01*
G37*
G36*
X172214977Y-89765504D02*
G01*
X171960977Y-89765504D01*
X171960977Y-89384504D01*
X172214977Y-89384504D01*
X172214977Y-89765504D01*
G37*
D16*
%TO.C,C156*%
X154294420Y-90844999D02*
X154575580Y-90844999D01*
X154294420Y-91864999D02*
X154575580Y-91864999D01*
%TD*%
M02*
